<?xml version="1.0" encoding="UTF-8"?>
<svg id="Layer_1" data-name="Layer 1" xmlns="http://www.w3.org/2000/svg" viewBox="0 0 294.37 159.61">
  <path d="m294.37,159.49c-.46.01-.91.04-1.37.04-97.15,0-194.29,0-291.44-.02-.54,0-1.56.39-1.56-.38,0-.79,1.01-.38,1.54-.38,4.37-.06,8.75-.05,13.12-.07,9.59.01,19.18.03,28.78.04,2.91,0,5.81-.03,8.72-.05,11,0,22.01,0,33.01.01.08.01.16.03.24.04,1.51,0,3.02,0,4.52,0,4.24-.02,8.48-.03,12.73-.05.17.04.22-.05.2-.2l.08.03c.32.08.64.22.95.22,2.37,0,4.73-.02,7.1-.03,1.12,0,2.25.01,3.37.02.42.01.83.03,1.25.03,41.02,0,82.04,0,123.05,0,.5,0,1-.01,1.5-.02.16-.01.32-.02.47-.03,10.18.01,20.35.03,30.53.04,3.07,0,6.15-.03,9.22-.04,4.58,0,9.16,0,13.75,0,.08.02.16.04.25.05v.75Z" style="fill: #2e3552;"/>
  <path d="m294.37,158.74c-.08-.02-.16-.04-.25-.05.08-.07.16-.13.25-.2v.25Z" style="fill: #dae8f8;"/>
  <path d="m52.15,158.68c-2.91.02-5.81.05-8.72.05-9.59,0-19.18-.03-28.78-.04-.06-1.88-.83-3.62-1.14-5.46-.96-5.66-1.16-11.23,1.66-16.49,2.18-4.07,5.53-6.97,9.43-9.33,3.99-2.42,8.32-4.15,12.41-6.36,2.66-1.43,5.3-2.9,7.19-5.42,1.69-2.27,2.02-4.76,1.55-7.44-.56-3.18-2.12-5.91-3.85-8.57-3.83-5.88-6.94-12.11-8.62-18.95-.7-2.85-1.02-5.76-1.16-8.72-.31-6.45.85-12.6,3.29-18.53,1.97-4.78,4.69-9.13,7.89-13.19,1.96-2.49,4.21-4.7,6.45-6.93,4.97-4.95,10.64-8.97,16.6-12.63,9.65-5.92,20.02-10.22,30.79-13.6,6.01-1.89,12.13-3.37,18.32-4.48,4.59-.82,9.22-1.44,13.88-1.87,6.13-.57,12.26-.9,18.4-.65,5.03.21,10.06.61,15.06,1.39,6.57,1.03,13.02,2.48,19.28,4.68,8.08,2.84,15.62,6.72,22.34,12.07,7.69,6.13,13.66,13.66,17.73,22.63,2.31,5.08,3.8,10.42,4.98,15.87,1.01,4.67,2.35,9.25,4.41,13.58,2.74,5.74,6.99,9.79,13.14,11.77,3.71,1.2,7.47,2.22,11.13,3.6,5.21,1.97,10.03,4.63,14.39,8.07,5.83,4.6,11.16,9.68,15.12,16.05,2.73,4.39,4.61,9.07,5.33,14.22.28,2.02.52,4.02.48,6.06-.13,5.54-1.39,10.83-3.52,15.92-1.78,4.27-4.06,8.26-6.99,11.87-.2.25-.25.51-.24.81-3.07.02-6.15.05-9.22.04-10.18,0-20.35-.03-30.53-.04-.02-.1-.03-.21-.05-.31.52-1.53.13-2.1-1.45-2.13-.58-.01-1.16-.03-1.75-.05,0-2.24,0-4.48,0-6.71,5.71-.53,11.44-.54,17.16-.49.42,0,.84-.03,1.25.04,3.36.54,6.75.86,10.14.67,2.08-.12,4.22-.26,6.14-1.3,1.29-.7,1.65-1.71.99-3-1.07-2.1-2.72-3.52-5.03-4.13-2.99-.79-6.02-.66-9.01-.22-5.99.89-11.8,2.58-17.52,4.54-1.37.47-2.69,1.08-4.1,1.41,0-.73-.02-1.46-.03-2.18.57-.02,1.15-.09,1.72-.03,1.17.12,1.7-.35,1.58-1.52.32-.08.65-.13.96-.23,2.59-.89,5.05-2.12,7.49-3.33,1.84-.91,3.68-1.93,5.13-3.46.48-.51.83-1.12.53-1.8-.29-.68-.9-1.11-1.65-1.17-1.29-.09-2.55-.03-3.78.48-4.22,1.75-7.81,4.49-11.35,7.28-.42.33-1.13.47-1.13,1.22-1.42.13-2.84.11-4.25.01,1.18-1.61,2.34-3.22,3.05-5.1.7-1.84-.08-3.86-1.89-4.54-1.82-.68-3.26.6-3.56,2.76-.32,2.28-.61,4.58-.84,6.88-.93.02-1.86.05-2.79.07-.23-.5-.56-1-1.12-1.05-1.8-.15-2.77-1.45-3.86-2.61.35-.57.65-1.11.24-1.84-1.82-3.23-2.88-6.75-3.67-10.34-.44-1.99-1.13-3.93-1.22-5.99,2.35-.25,4.68-.61,6.88-1.51,2.03-.83,2.07-1.06,1.27-3.03.83-.5.83-1.5,1.3-2.22,2.05.26,3.57-.64,4.95-2.08,2.26-2.35,3.47-5.23,4.55-8.21.36-.98-.31-.7-.78-.59-2.9.71-5.77.45-8.58-.45-.71-.23-1.88-.31-1.74-1.24.1-.65,1.23-.76,1.99-.95,2.81-.7,5.7-.98,8.55-1.48,1.59-.28,2.57-1.16,3.13-2.67.68-1.81.77-3.61.38-5.49-.95-4.64-3.3-6.55-8.05-6.62-1.84-.03-3.63.25-5.43.52-.51.08-.77.38-1,.82-2.05,3.88-4.16,7.74-6.91,11.19-.22.28-.38.54-.35.9-.5,0-.99,0-1.49,0,0-.41.04-.82.13-1.23.66-3.2,2.06-6.12,3.32-9.09.12-.29.42-.61.16-.92-.23-.28-.63-.19-.95-.14-.37.06-.72.2-1.07.31-3.22,1.02-6.16,2.66-9.18,4.13-2.17,1.06-3.58,2.17-2.66,4.78-.54-.01-1.1.07-1.61-.05-3.24-.77-4.73-.28-6.64,2.3-1.57,0-3.15-.01-4.72-.02-.03-.45.35-.52.62-.67,1.09-.58,1.91-1.43,2.57-2.47,1.06-1.69,1.57-3.56,1.7-5.52.19-2.91.28-5.86-1.08-8.53-1.18-2.32-2.86-3.96-5.85-3.83-3.48.16-6.98.02-10.48.01,0-9.99.01-19.98-.02-29.98-.01-3.7-3.26-7-7.01-6.99-11.49.03-22.98.01-34.48.01.93-2.1-.6-3.72-1.14-5.52-.07-.24-.46-.34-.67-.51-.81-.68-1.87-.59-2.75-1.01-1.62-.78-2.8-.63-4.08.62-1.8,1.76-2.63,4.03-3.16,6.43-21.99,0-43.98.06-65.96-.06-3.88-.02-8.53,4.07-8.52,8.54.07,36.89.04,73.78.04,110.68ZM202.13,59.77c2.54,0,5.07.02,7.61,0,1.39-.01,1.89-.52,1.89-1.87,0-4.91,0-9.82,0-14.72,0-1.32-.47-1.89-1.74-1.89-5.16-.03-10.32-.02-15.47,0-1.3,0-1.79.55-1.79,1.84,0,4.87,0,9.73,0,14.6,0,1.55.52,2.04,2.13,2.05,2.45,0,4.91,0,7.36,0Z" style="fill: #eaf3fa;"/>
  <path d="m52.15,158.68c0-36.89.04-73.78-.04-110.68,0-4.46,4.65-8.56,8.52-8.54,21.99.12,43.98.06,65.96.06-.1.71-.25,1.41-.65,2.02-21.91,0-43.82-.02-65.73-.01-3.02,0-6.03,3.06-6.05,6.19-.04,4.58,0,9.16-.02,13.74,0,.68.1,1.09.94,1.08.82-.02.83-.47.83-1.06,0-2.79-.02-5.58,0-8.37.02-2.33-.42-2.03,2.15-2.1.91-.03,1.13.32,1.11,1.16-.04,2.66-.02,5.33-.02,8,0,.58,0,1.17,0,1.75,0,.26.05.54.37.53.32,0,.35-.29.36-.55,0-.29,0-.58,0-.87,0-3.29.03-6.58-.02-9.87-.01-.87.25-1.16,1.13-1.15,1.24.01,2.49.17,3.73-.12.5-.11.61.29.65.7.42,3.69.86,7.39,1.24,11.08.07.64.27.88.9.86,1.17-.03,2.33-.06,3.5,0,.88.05,1.15-.27,1.14-1.14-.04-3.12.02-6.25-.04-9.37-.02-1.16.67-1.02,1.38-1,.68.01,1.44-.21,1.41.98-.07,2.12-.02,4.25-.02,6.37,0,1.28,0,2.57,0,3.85.25-3.16.25-6.32.26-9.48,0-.36-.17-.86.19-1.05.68-.36,1.48-.23,2.19-.1.59.11.61.72.61,1.23,0,2.29,0,4.58,0,6.87,0,2.9,0,2.87,2.91,2.85.91,0,1.12-.33,1.11-1.17-.04-3.41.02-6.83-.04-10.24-.02-1.2.6-1.42,1.56-1.34.33.03.64.15.96.23,0,3.27,0,6.53,0,9.8q0,2.7,2.75,2.7c.95.14,1.29-.21,1.27-1.22-.06-3.65,0-7.3-.04-10.96,0-.8.22-1.09,1.05-1.09.89-.01,1.25.19,1.23,1.17-.05,3.65-.03,7.3-.01,10.96,0,.41-.22,1.05.45,1.1.67.05,1.4.29,2.03-.2,1.2.39,1.89.11,1.77-1.31-.02-.22.15-.46.23-.69.49-.11,1.15.3,1.43-.36.23-.54-.07-.92-.51-1.35-.34-.34-.5-1.17.43-1.27.58-.06,1.13-.23.84-.83-.33-.67.42-2.07-1.2-1.94,0-.63-.07-1.28.49-1.75.41-.09,1.03.25,1.2-.35.25-.87.93-.88,1.57-.89,2.75-.03,5.49-.03,8.24,0,.87,0,1.48.25,1.1,1.36-.22.64-.29,1.27.71,1.49.55.12.62,1.51.18,1.52-1.31.04-.9,1.19-1.3,1.79-.36.54-.15,1.01.52,1.05.58.04.81.24.8.83,0,.68-.44.68-.92.7-1.05.05-.79.85-.83,1.48-.05.74.44.76.98.76,1.79,0,3.58-.06,5.37.02.98.04,1.18-.34,1.17-1.23-.04-3.37.02-6.74-.04-10.11-.02-1.01.43-1.37,1.28-1.39.9-.02,1.01.61,1.01,1.36-.02,3.41.04,6.83-.04,10.24-.03,1.18.6,1.13,1.4,1.13.8,0,1.43.06,1.4-1.12-.08-3.54,0-7.07-.05-10.61-.01-.94.19-1.45,1.22-1.28.14,2.76,1.66,4.76,3.55,6.57.25,1.15.51,2.3.76,3.45,0,.7,0,1.39,0,2.09,0,.42-.03.85.56.9-.08.77-.21,1.53-.56,2.24-23.5,0-46.99,0-70.49-.03-1.19,0-1.55.3-1.53,1.51.07,4.29.03,8.58.03,12.87,0,.25,0,.5,0,.75,0,.32.08.58.47.6.38.02.5-.22.51-.55,0-.29,0-.58,0-.87,0-2.96,0-5.91,0-8.87,0-.41-.2-.94.45-1.14,1.49-.47,2.29.1,2.29,1.65,0,.42,0,.83,0,1.25v8.58c.36-.65.24-1.07.24-1.47.01-2.75.06-5.5-.02-8.25-.03-1.09.37-1.3,1.36-1.31,1.04,0,1.48.19,1.44,1.36-.09,2.79.02,5.58-.05,8.37-.03,1.06.32,1.32,1.34,1.32,7.75-.04,15.5-.02,23.25-.03.4,0,.84.13,1.18-.23.42.39.84.8,1.49.74.02.16.05.31.07.47-.02.42-.05.85-.07,1.27-10.9,0-21.8,0-32.7-.02-.93,0-1.32.18-1.3,1.23.06,4.45.05,8.9,0,13.35,0,.93.26,1.21,1.2,1.2,6.95-.04,13.9-.03,20.84-.03.07,0,.13.02.2.03.13.85.71,1.48,1.12,2.19-.54.01-1.08.04-1.62.04-6.75,0-13.5.03-20.25-.03-1.23-.01-1.53.37-1.5,1.54.07,3.66.03,7.33.03,11q0,3.24,3.26,3.23c.37.22.77.25,1.19.25,3.59,0,7.18,0,10.77,0,.36,0,.75.1,1.03-.25.58,0,1.16,0,1.74,0,.42,0,.7-.1.75-.6.23-2.04.49-4.08.75-6.13.22-1.75.46-3.5.71-5.25.05-.34,0-.68.64-.63,1.57.13,3.14.1,4.72.14-.48.96-.4,1.86.26,2.71-.37,1.61-.63,3.23-.59,4.9.05,2.03-.02,4.07-.03,6.11-.76.12-1.18.92-1.96,1-7,0-13.99,0-20.99,0-.42,0-.84-.02-1.25.05-.68.11-1.03.44-1.03,1.25.03,11.87.03,23.74,0,35.61,0,.79.2,1.1,1.05,1.1,10.04-.03,20.08-.03,30.11-.04.02.6.04,1.19.07,1.79-.07.06-.14.12-.2.19-11,0-22.01,0-33.01-.01Zm10.89-104.5c-.13,0-.25.01-.38.02,0,2.56,0,5.12,0,7.68,0,.4.16.62.58.64.49.02.62-.23.67-.68.12-.97-.23-1.88-.29-2.83-.1-1.61-.38-3.22-.59-4.82Z" style="fill: #dae8f8;"/>
  <path d="m237.38,156.2c.58.02,1.16.04,1.75.05,1.58.03,1.97.6,1.45,2.13-.17.07-.39.09-.42.34-.5,0-1,.02-1.5.02-41.02,0-82.04,0-123.05,0-.42,0-.83-.02-1.25-.03-1.24-.6-2.49-1.17-3.61-1.99-.32-.38-.65-.75-.96-1.14-1.4-1.74-2.11-3.78-1.84-5.95.42-3.4,2.23-5.87,5.59-7.01.33-.1.66-.19.99-.29.87-.01,1.75-.04,2.62-.04,25,0,50.01,0,75.01,0,.5,0,1-.03,1.49-.04,2.23.6,4.47.59,6.72.18,1.91.47,3.81.37,5.7-.13,1.33.01,2.66.04,3.99.03.95,0,2.09.24,2.78-.19.51-.32.43-1.57.62-2.41.88-.2,1.65-.64,2.43-1.06.37.39.75.77,1.12,1.16.51.55.97,1.17,1.87.89.8.59,1.56,1.57,2.42,1.68,1.74.22,3.54.29,5.31-.06.93-.02,1.86-.05,2.79-.07,1.08,0,2.16,0,3.24,0,1.42.1,2.84.12,4.25-.01.82.02,1.64.04,2.45.08.63.03,1.26.1,1.35.93.12,1.18-.41,1.64-1.58,1.52-.57-.06-1.14.02-1.72.03-.08-.01-.16-.04-.25-.04-23.66,0-47.32,0-70.98-.02-.63,0-.99.27-1.32.74-2.16,2.99-2.24,6.26-.27,9.58.52.88,1.17,1.2,2.22,1.2,23.12-.03,46.24-.02,69.36-.03.42,0,.83-.03,1.25-.05Z" style="fill: #2b468b;"/>
  <path d="m102.65,158.68c-4.24.02-8.48.03-12.73.05-.31-.68-.57-1.39-1.07-1.97,4.76,0,9.52-.01,14.28-.02-.35.56-.24,1.17-.2,1.77,0,0-.08-.03-.08-.03-.07.07-.13.13-.2.2Z" style="fill: #dae8f8;"/>
  <path d="m102.93,158.51c-.04-.6-.15-1.21.2-1.77.48-.52.18-1.17.28-1.75.68-.03,1.39.13,2.02-.27,1.19.23,1.46,1.55,2.44,2.03.2.47.6.44,1.02.5.9.15,1.85.3,2.08,1.44-2.37.01-4.73.04-7.1.03-.32,0-.64-.14-.95-.22Z" style="fill: #253a64;"/>
  <path d="m88.85,156.76c.5.58.77,1.28,1.07,1.97-1.51,0-3.02,0-4.52,0,.04-.08.03-.16-.04-.23-.02-.6-.04-1.19-.07-1.79l.11.03h3.27c.06,0,.12.01.18.02Z" style="fill: #253a64;"/>
  <path d="m110.98,158.7c-.24-1.14-1.18-1.29-2.08-1.44-.42-.07-.83-.04-1.02-.5.96-.01,1.91-.02,2.87-.03,1.12.82,2.37,1.39,3.61,1.99-1.12,0-2.25-.01-3.37-.02Z" style="fill: #cce0fb;"/>
  <path d="m240.16,158.72c.03-.25.25-.26.42-.34.02.1.03.21.05.31-.16.01-.32.02-.47.03Z" style="fill: #dae8f8;"/>
  <path d="m85.37,158.51c.06.07.08.14.04.23-.08-.01-.16-.03-.24-.04.07-.06.14-.12.2-.19Z" style="fill: #aecdfb;"/>
  <path d="m102.65,158.68c.07-.07.13-.13.2-.2.02.15-.03.24-.2.2Z" style="fill: #cce0fb;"/>
  <path d="m237.38,156.2c-.42.02-.83.05-1.25.05-23.12,0-46.24,0-69.36.03-1.05,0-1.7-.32-2.22-1.2-1.96-3.32-1.89-6.59.27-9.58.34-.47.69-.74,1.32-.74,23.66.02,47.32.02,70.98.02.08,0,.16.03.25.04,0,.73.02,1.46.03,2.18,0,.83-.01,1.66-.02,2.49,0,2.24,0,4.48,0,6.71Zm-21.14-9.23c1.57,1.54,1.37,3.27,1.37,4.96,0,.42-.02.83,0,1.25.01.32-.15.75.13.94.37.25.71-.12.98-.35,1.03-.85,2.03-1.05,3.06-.02.12.11.28.18.42.27.52.33.75.18.75-.43-.02-1.58.04-3.17-.06-4.74-.05-.89-.43-1.8-1.5-1.86-1.6-.09-3.21-.02-5.14-.02Z" style="fill: #fcecdc;"/>
  <path d="m179.9,76.48c3.49,0,6.99.14,10.48-.01,2.98-.14,4.67,1.51,5.85,3.83,1.36,2.67,1.27,5.62,1.08,8.53-.13,1.96-.64,3.82-1.7,5.52-.65,1.04-1.47,1.89-2.57,2.47-.28.15-.66.22-.62.67-2.46,0-4.91.02-7.37.02-6.16.02-12.32.04-18.49.05-.14,0-.28,0-.42-.01-1.62-1.08-2.94-2.41-3.57-4.31.25-.2.4-.47.24-.76-.44-.78-.36-1.67-.57-2.5-1.18-4.49-2.35-8.98-3.52-13.47.15,0,.3-.01.45-.02,6.24,0,12.48-.01,18.72-.02.67,0,1.35,0,2.02,0Z" style="fill: #aecdfb;"/>
  <path d="m217.13,97.42c-.02-.35.13-.62.35-.9,2.75-3.46,4.85-7.31,6.91-11.19.23-.44.48-.74,1-.82,1.8-.27,3.59-.55,5.43-.52,4.75.07,7.1,1.98,8.05,6.62.38,1.88.3,3.68-.38,5.49-.57,1.51-1.54,2.38-3.13,2.67-2.85.51-5.73.78-8.55,1.48-.76.19-1.89.3-1.99.95-.14.92,1.04,1.01,1.74,1.24,2.81.9,5.67,1.16,8.58.45.47-.12,1.14-.39.78.59-1.08,2.98-2.3,5.86-4.55,8.21-1.38,1.44-2.9,2.33-4.95,2.08.19-.56.18-1.2.74-1.58,1.54-.53,1.79-1.48.87-3.31.2-.69.39-1.38.59-2.07-.17-1.16-1.05-1.89-1.65-2.94-.39,1.22-.75,2.32-1.1,3.41-1.71.38-3.42.77-5.13,1.15-.28.39-.65.68-1.1.85-.41-.36-.24-.85-.25-1.29-.02-2.49-.01-4.97-.01-7.46.62,0,1.25.02,1.87-.04.97-.09,1.66-.47,1.64-1.61-.01-1.15-.74-1.36-1.66-1.38-1.37-.03-2.74-.05-4.11-.07Z" style="fill: #e0ebfd;"/>
  <path d="m179.9,76.48c-.67,0-1.35,0-2.02,0,0-3.5-.03-6.99.04-10.49.02-1.03-.34-1.28-1.29-1.24-1.58.07-3.16.02-4.75.02-7.2-.02-14.4-.03-21.6-.05.71-1.24,1.42-2.47,2.12-3.71.41-.91.17-1.9.22-2.92-.75.89-1.49,1.78-2.24,2.67-.91,0-1.83,0-2.74-.01,0-3.2.03-6.4,0-9.61-.01-.87.25-1.17,1.13-1.14,1.12.03,2.26.2,3.35-.11.81-.23.97.04,1.06.81.35,3.2.76,6.39,1.21,9.57.1.73-.42,1.76.42,2.14.66.3,1.55.09,2.34.1,4.26,0,8.51,0,12.77,0,2.25,0,4.49-.04,6.74.02.98.03,1.28-.26,1.27-1.26-.05-4.87-.01-9.73-.03-14.6,0-2.76-2.4-5.15-5.18-5.15-11.69,0-23.38,0-35.07,0,0-.32,0-.64.01-.96l.75-1.04c11.49,0,22.98.02,34.48-.01,3.75-.01,7,3.29,7.01,6.99.03,9.99.02,19.98.02,29.98Z" style="fill: #dae8f8;"/>
  <path d="m237.39,149.49c0-.83.01-1.66.02-2.49,1.42-.33,2.73-.94,4.1-1.41,5.72-1.96,11.53-3.65,17.52-4.54,2.99-.44,6.02-.58,9.01.22,2.32.61,3.96,2.03,5.03,4.13.66,1.3.29,2.3-.99,3-1.92,1.05-4.06,1.19-6.14,1.3-3.39.19-6.78-.12-10.14-.67-.41-.07-.83-.04-1.25-.04-5.73-.05-11.45-.04-17.16.49Z" style="fill: #cce0fb;"/>
  <path d="m197.13,97.5c1.92-2.58,3.4-3.07,6.64-2.3.51.12,1.07.04,1.61.05,1.1.51,1.98,1.29,2.67,2.29.37.95.64,1.92.64,2.96-.06,1.15-.66,2.16-.82,3.28-.65,1.1-1.19,2.16.01,3.3.49.46.38,1.16.07,1.74-.16.29-.39.54-.28.9-.01.17-.03.34-.04.51-1.24-.14-2.41-.77-3.7-.45-.63-.6-.11-1.38-.34-2.04.03-.35.06-.7.29-.98.58.05,1.05-.18,1.42-.6,1.34-1.54,1.37-5.41.08-7-.44-.55-.59-.33-.81.17-.43.94-.95,1.84-1.69,2.59-.2.2-.43.62-.74.09.05-.04.11-.08.16-.12-.05-.02-.1-.03-.15-.05,0,.06,0,.11,0,.17-2.26.07-2.28.07-2.22,2.19.04,1.6-.18,3.13-1.04,4.52-.83.01-1.66.04-2.49.04-1.75,0-2.46.48-2.74,2.18-.58,3.56-.11,7.11.41,10.63.38,2.53.65,5.02-.46,7.44-.35-.41-.72-.85-1.24-1-1.31-.38-1.93-1.35-2.34-2.67-.11.32-.18.53-.26.76-.79-1.54-.94-2.18-.28-3.26,1.03-1.7,1.31-3.46.87-5.36-.04-1,.04-2-.18-2.98.03-.37.07-.74.08-1.11.03-2.84.67-5.31,3.7-6.44.58-.22.8-.81.94-1.39.4-1.68.8-3.36,1.2-5.04l1.06-3.01Z" style="fill: #253a64;"/>
  <path d="m216.97,120.51c.09,2.06.78,4,1.22,5.99.8,3.59,1.85,7.11,3.67,10.34.41.73.11,1.26-.24,1.84-.8.35-1.59.69-2.39,1.04-.95-.74-1.9-1.48-2.85-2.22-1.56-3.18-2.59-6.53-3.15-10.03-.59-3.72-1.09-7.44-1.34-11.19.83-.35,1.53-1,2.49-1.03.91.49,1.76,1.05,2.25,2.01-.51,1.15.19,2.18.34,3.26Z" style="fill: #ed7e2d;"/>
  <path d="m138.39,39.52c-.25.35-.5.69-.75,1.04-.47-.5-.18-1.11-.23-1.67-.05-.53.03-1.07-.18-1.6-.29-.71-.5-.94-1.14-.23-.97,1.08-2,2-3.68,2.02-1.41.02-1.66.52-1.52,2.03.1,1.1-.3,2.11-.4,3.17-.05.51-.38.79-.82.98-1.4-.1-2.7.25-3.95.83-1.97.91-1.81,2.9-2.23,4.56-.26,1.03,1.05.98,1.42,1.63.16,1.27.32,2.53.48,3.8-1.88-1.81-3.41-3.82-3.55-6.57-.11-1.83.73-3.26,1.91-4.56.92-1.01,1.82-2.05,2.19-3.42.4-.61.56-1.31.65-2.02.53-2.4,1.35-4.67,3.16-6.43,1.28-1.25,2.45-1.39,4.08-.62.89.42,1.95.33,2.75,1.01.2.17.59.27.67.51.54,1.81,2.06,3.42,1.14,5.52Z" style="fill: #253a64;"/>
  <path d="m197.13,97.5c-.35,1-.7,2.01-1.06,3.01-5.03,0-10.07-.02-15.1-.02-6.9,0-13.81.03-20.71.04-.25-.07-.51-.13-.76-.2-1.25-.65-2.12-1.69-2.89-2.82,1.02,0,2.03,0,3.05-.01.47.34.95.71,1.56.71,1.49,0,2.84.54,4.23.95.31.09.67.15.98.08.54-.14,1.39-.09,1.5-.63.12-.59-.77-.58-1.18-.88-.07-.05-.13-.11-.19-.16,6.16-.02,12.32-.04,18.49-.05,2.46,0,4.91-.02,7.37-.02,1.57,0,3.15.01,4.72.02Z" style="fill: #7eb2fd;"/>
  <path d="m208.06,97.54c-.69-.99-1.57-1.77-2.67-2.29-.92-2.61.49-3.72,2.66-4.78,3.02-1.47,5.96-3.11,9.18-4.13.36-.11.71-.25,1.07-.31.32-.05.71-.14.95.14.26.31-.03.63-.16.92-1.26,2.97-2.66,5.89-3.32,9.09-.09.41-.12.82-.13,1.23-2.53.04-5.06.08-7.58.12Z" style="fill: #e0ebfd;"/>
  <path d="m240.68,143.26c-.09-.83-.72-.9-1.35-.93-.82-.04-1.63-.05-2.45-.08,0-.74.71-.89,1.13-1.22,3.55-2.79,7.13-5.53,11.35-7.28,1.23-.51,2.5-.58,3.78-.48.75.05,1.36.49,1.65,1.17.29.68-.05,1.3-.53,1.8-1.45,1.53-3.29,2.55-5.13,3.46-2.45,1.21-4.9,2.44-7.49,3.33-.31.11-.64.16-.96.23Z" style="fill: #cce0fb;"/>
  <path d="m220.74,108.41c1.71-.38,3.42-.77,5.12-1.15.92-.16,1.84-.32,2.75-.48-.2.69-.39,1.38-.59,2.07-.39-.22-.77-.59-1.21-.12-.33.35-.3.84-.1,1.15.46.72.39,1.5.44,2.28-.56.38-.56,1.03-.74,1.58-.47.72-.46,1.71-1.3,2.22-.79,0-1.54.18-2.26.51-1.52.19-3.02.52-4.48.99-.48-.14-1.09.56-1.46-.24.5-.2.51-.71.67-1.11.36-.93.67-1.89.99-2.83,0-1.18.81-1.48,1.76-1.53.99-.05,1.99.07,2.95-.26.39-.14.83-.21.83-.77,0-.49-.4-.59-.73-.73-.76-.33-1.85-.19-1.96-1.43,0-.07-.45-.1-.69-.15Z" style="fill: #1e468a;"/>
  <path d="m202.13,59.77c-2.45,0-4.91,0-7.36,0-1.61,0-2.13-.49-2.13-2.05,0-4.87,0-9.73,0-14.6,0-1.29.49-1.84,1.79-1.84,5.16-.02,10.32-.02,15.47,0,1.26,0,1.74.57,1.74,1.89,0,4.91,0,9.82,0,14.72,0,1.34-.5,1.85-1.89,1.87-2.54.02-5.07,0-7.61,0Zm.13-17.5c-2.41,0-4.83.05-7.24-.02-1.24-.03-1.63.56-1.63,1.65,0,4.41,0,8.83,0,13.24,0,1.29.55,1.86,1.81,1.86,4.62.02,9.24.02,13.86,0,1.22,0,1.8-.55,1.8-1.74.02-4.5.01-8.99,0-13.49,0-1.07-.48-1.56-1.62-1.53-2.33.06-4.66.02-6.99.02Z" style="fill: #cce0fb;"/>
  <path d="m232.62,142.26c-1.08,0-2.16,0-3.24,0,.22-2.3.52-4.6.84-6.88.3-2.16,1.74-3.44,3.56-2.76,1.81.68,2.59,2.69,1.89,4.54-.71,1.89-1.87,3.5-3.05,5.1Z" style="fill: #cce0fb;"/>
  <path d="m208.06,97.54c2.53-.04,5.06-.08,7.58-.12.5,0,.99,0,1.49,0,1.37.02,2.74.04,4.11.07.92.02,1.64.23,1.66,1.38.01,1.15-.68,1.53-1.64,1.61-.62.05-1.25.03-1.87.04-3.56,0-7.12-.01-10.69-.02,0-1.03-.27-2-.64-2.96Z" style="fill: #7eb2fd;"/>
  <path d="m222.86,116.49c.71-.33,1.47-.51,2.26-.51.8,1.97.76,2.2-1.27,3.03-2.19.9-4.53,1.26-6.88,1.51-.15-1.08-.86-2.11-.34-3.26.1,0,.2,0,.3-.01.37.8.98.09,1.46.24.94,0,1.87.03,2.81.02.75,0,1.35-.28,1.67-1.01Z" style="fill: #e0ebfd;"/>
  <path d="m219.23,139.71c.8-.35,1.59-.69,2.39-1.04,1.08,1.16,2.06,2.46,3.86,2.61.56.05.89.55,1.12,1.05-1.76.35-3.57.29-5.31.06-.87-.11-1.62-1.1-2.42-1.68.12-.33.24-.67.36-1Z" style="fill: #253a64;"/>
  <path d="m125.94,41.54c-.36,1.37-1.27,2.41-2.19,3.42-1.18,1.3-2.02,2.73-1.91,4.56-1.03-.17-1.24.34-1.22,1.28.05,3.54-.03,7.08.05,10.61.03,1.18-.6,1.12-1.4,1.12-.8,0-1.43.06-1.4-1.13.08-3.41.01-6.82.04-10.24,0-.76-.1-1.38-1.01-1.36-.85.02-1.3.38-1.28,1.39.07,3.37,0,6.74.04,10.11.01.89-.19,1.27-1.17,1.23-1.79-.07-3.58-.03-5.37-.02-.54,0-1.03-.02-.98-.76.04-.63-.22-1.43.83-1.48.48-.02.91-.02.92-.7,0-.59-.22-.79-.8-.83-.67-.05-.87-.52-.52-1.05.4-.6,0-1.74,1.3-1.79.45-.02.37-1.41-.18-1.52-1-.22-.93-.85-.71-1.49.38-1.12-.23-1.36-1.1-1.36-2.75-.02-5.49-.03-8.24,0-.63,0-1.32.01-1.57.89-.17.6-.78.26-1.2.35-.08-.96.1-1.9.27-2.83.35-1.95.35-1.92-1.55-2.32-.63-.13-.9-.05-.98.66-.15,1.27-.4,2.52-.62,3.78-.53,2.96-1.07,5.93-1.58,8.89-.12.72-.02,1.37.98,1.31-.63.49-1.36.25-2.03.2-.68-.05-.45-.69-.45-1.1-.02-3.65-.04-7.3.01-10.96.01-.98-.35-1.18-1.23-1.17-.83,0-1.06.3-1.05,1.09.03,3.65-.02,7.3.04,10.96.02,1.01-.32,1.37-1.27,1.22,0-3.27,0-6.53,0-9.8q0-2.71-2.75-2.7c-.32-.08-.64-.21-.96-.23-.96-.08-1.58.13-1.56,1.34.06,3.41,0,6.83.04,10.24,0,.84-.2,1.16-1.11,1.17-2.91.01-2.91.05-2.91-2.85,0-2.29,0-4.58,0-6.87,0-.51-.02-1.12-.61-1.23-.72-.13-1.51-.26-2.19.1-.36.19-.19.69-.19,1.05,0,3.16,0,6.31-.26,9.48,0-1.28,0-2.57,0-3.85,0-2.12-.05-4.25.02-6.37.04-1.19-.73-.96-1.41-.98-.71-.01-1.4-.16-1.38,1,.06,3.12,0,6.25.04,9.37.01.87-.26,1.19-1.14,1.14-1.16-.06-2.33-.04-3.5,0-.63.02-.84-.22-.9-.86-.38-3.7-.82-7.39-1.24-11.08-.05-.41-.15-.81-.65-.7-1.24.28-2.49.13-3.73.12-.88,0-1.14.28-1.13,1.15.04,3.29.02,6.58.02,9.87,0,.29,0,.58,0,.87,0,.26-.04.54-.36.55-.32,0-.37-.28-.37-.53,0-.58,0-1.17,0-1.75,0-2.67-.03-5.33.02-8,.01-.84-.21-1.19-1.11-1.16-2.56.07-2.13-.22-2.15,2.1-.02,2.79-.01,5.58,0,8.37,0,.59,0,1.04-.83,1.06-.84.02-.94-.39-.94-1.08.02-4.58-.02-9.16.02-13.74.03-3.12,3.03-6.19,6.05-6.19,21.91,0,43.82,0,65.73.01Z" style="fill: #eaf3fa;"/>
  <path d="m85.3,156.72c-10.04,0-20.08,0-30.11.04-.85,0-1.05-.31-1.05-1.1.02-11.87.02-23.74,0-35.61,0-.82.35-1.14,1.03-1.25.41-.07.83-.05,1.25-.05,7,0,13.99,0,20.99,0-.17.17-.32.37-.52.51-1.86,1.32-3.55,2.83-5.1,4.5-.57.62-.58.94-.11.97,2.91.21,5.77.93,8.69,1.03.45,1.03.36,2.17.69,3.23-3.77.35-7.54.25-11.32.26-.75,0-1.5.02-2.24,0-.5-.02-.9.14-1.21.52-1.85,2.29-3.73,4.56-4.7,7.41-.77,2.28-.99,4.61.42,6.67,1.79,2.61,4.13,4.64,7.3,5.49,1.91.51,3.8.64,5.3-.94.85-.89,1.52-1.96,2.32-2.9,1.71-2.02,3.14-4.27,5.21-5.98.19.45.12.96.17,1.42.14,1.36.65,2.67.56,4.06-.14.08-.35.11-.41.23-.97,1.89-2.02,3.71-3.56,5.22-.41.4-.24.72.37.81,1.63.26,3.26.6,4.93.48.65,1.61.41,3.44,1.23,5.01,0,0-.11-.03-.11-.03Z" style="fill: #eaf3fa;"/>
  <path d="m86.65,80.28c-.34.36-.78.23-1.18.23-7.75,0-15.5-.01-23.25.03-1.02,0-1.37-.26-1.34-1.32.07-2.79-.04-5.58.05-8.37.04-1.17-.4-1.37-1.44-1.36-.99,0-1.39.22-1.36,1.31.08,2.75.03,5.5.02,8.25,0,.4.11.83-.24,1.47v-8.58c0-.42,0-.83,0-1.25,0-1.55-.81-2.12-2.29-1.65-.65.21-.44.73-.45,1.14-.02,2.96,0,5.91,0,8.87,0,.29,0,.58,0,.87-.01.33-.13.57-.51.55-.39-.02-.47-.28-.47-.6,0-.25,0-.5,0-.75,0-4.29.04-8.58-.03-12.87-.02-1.22.34-1.51,1.53-1.51,23.5.03,46.99.03,70.49.03-.49,1.67-.98,3.34-1.48,5.01-.19-.08-.38-.22-.58-.23-1.18-.07-2.33-.16-3.51-.47-1.86-.49-2.19-.09-2.19,1.8,0,1.87,0,3.74-.01,5.6-2.16,0-4.32,0-6.47,0,0-2.08-.08-4.17.01-6.25.05-1.19-.52-1.22-1.43-1.24-.98-.02-1.42.19-1.37,1.29.09,2.08.03,4.16.03,6.25-.68.99-.68,1.98,0,2.96-.08.4.16,1.06-.59.97-.61-.07-.41-.64-.41-1.01-.02-3.04-.05-6.08.01-9.11.02-1.03-.27-1.38-1.32-1.35-.97.03-1.52.09-1.48,1.32.09,3.08.03,6.16.03,9.24,0,.54-.02.99-.77.98-.65,0-.69-.36-.75-.88-.4-3.69-.83-7.38-1.24-11.07-.07-.65-.44-.92-1.02-.74-.79.25-1.53.14-2.32-.02-1.92-.37-2.41.08-2.41,2.04,0,3.12,0,6.24-.01,9.36,0,.38.18.82-.28,1.2-.33-.43-.2-.89-.2-1.3-.01-3.04-.01-6.08,0-9.11,0-.69-.06-1.28-.97-1.23.07-2.17-1.53-2.89-2.82-2.58-1.08.26-1.87.84-2.43,1.86-.61,1.11-2.18-.04-2.92,1.06-.3.44-.77.76-1.09,1.18-.45.6-.76,1.3-1.24,1.86-1.54,1.78-1.03,3.44.19,5.1.36,1.09.94,2.06,1.52,3.04Z" style="fill: #eaf3fa;"/>
  <path d="m76.18,98.5c-6.95,0-13.9,0-20.84.03-.93,0-1.21-.27-1.2-1.2.04-4.45.05-8.9,0-13.35-.01-1.05.37-1.23,1.3-1.23,10.9.03,21.8.02,32.7.02-.31.43-.87.31-1.26.57-1.86.14-3.54.74-4.52,2.41-1.13,1.93-1.71,4.1-2.25,6.27-.8.08-1.64-.17-2.42.22-.1.02-.2.05-.29.07-1.68-.62-3.04-1.96-5.03-2.38,1.3,2.07,2.46,3.93,3.62,5.78-.15.95-.17,1.89.19,2.8Z" style="fill: #eaf3fa;"/>
  <path d="m85.41,156.75c-.81-1.57-.57-3.4-1.23-5.01-.44-2.25-.88-4.5-1.32-6.75.1-1.39-.42-2.7-.56-4.06-.05-.46.02-.97-.17-1.42-.33-1.29-.17-2.57,0-3.88.29-2.3-.8-4.41-1.08-6.64-.33-1.06-.23-2.2-.69-3.23-.33-2.67-.67-5.34-1-8.01.02-2.04.08-4.07.03-6.11-.04-1.67.22-3.29.59-4.9,1.24,1.1,2.73,1.7,4.26,2.26,2.16.78,4.43.85,6.66,1.17,0,.33.01.67-.03,1-.44,3.78-.98,7.55-.99,11.37-.91,2.34-.64,4.84-.93,7.25-.37,3.13-.12,6.31-.07,9.47.07,4.08.02,8.16.03,12.24-.08,1.74-.16,3.49-.24,5.23h-3.27Z" style="fill: #2b468b;"/>
  <path d="m57.41,116.51q-3.26,0-3.26-3.23c0-3.67.05-7.33-.03-11-.02-1.18.27-1.56,1.5-1.54,6.75.06,13.5.03,20.25.03.54,0,1.08-.02,1.62-.04,1.71,1.24,2.4,1.23,3.96-.05.18.09.36.18.53.27-.76,1.03-1.52,2.05-2.27,3.08-1.57-.04-3.15-.01-4.72-.14-.63-.05-.59.29-.64.63-.25,1.75-.48,3.5-.71,5.25-.26,2.04-.52,4.08-.75,6.13-.06.5-.33.61-.75.6-.58,0-1.16,0-1.74,0-.05-2.39.34-2.22-1.5-2.25.05-.48-.09-.97.18-1.45.39-.68.76-1.41-.52-1.57-.23-.03-.4-.18-.39-.41.03-.91-.59-.82-1.19-.82-2.99,0-5.98.03-8.97-.01-.96-.01-1.31.27-1.01,1.24.22.73.46,1.53-.77,1.58-.24.01-.28.26-.32.47-.26,1.34.62,1.27,1.49,1.22,0,.67,0,1.33,0,2Z" style="fill: #eaf3fa;"/>
  <path d="m79.72,104.03c.76-1.03,1.52-2.05,2.27-3.08.14.02.28.03.41.05.39.34.87.2,1.31.2,2.81.01,5.61,0,8.42,0-.3,3.76,1.38,6.3,4.77,7.8-.04.17-.08.33-.11.5-1.91.68-3.91.62-5.89.67-2.23-.32-4.5-.39-6.66-1.17-1.53-.56-3.02-1.16-4.26-2.26-.66-.85-.74-1.76-.26-2.71Z" style="fill: #fa9747;"/>
  <path d="m125.4,56.09c-.16-1.27-.32-2.53-.48-3.8.91.23,1.82.46,2.72.69.79.2,1.83-.35,2.34.27.52.64.08,1.67.21,2.52.16,1.38.4,2.76.46,4.15.08,1.71.5,2.34,2.11,2.85,1.26.39,2.52.81,3.75,1.28.61.23,1.18.55,1.87.43,1.45,1.21,3.01.17,4.52.21,0,.11,0,.22,0,.33.08.09.15.25.23.25.41.02.95-.08.95.49,0,.57-.62.6-1.01.71-.54.15-1.16.02-1.5.63-.23-.4-.51-.71-1.03-.65-.88-.3-1.78-.14-2.67-.12-2.09-.08-4.19-.04-6.28-.28-1.87-.21-3.47-.72-4.09-2.75-.11-.35-.27-.69-.41-1.04-.31-.9-.63-1.81-.94-2.71-.25-1.15-.51-2.3-.76-3.45Z" style="fill: #fcb17e;"/>
  <path d="m86.87,83.33c.39-.26.95-.14,1.26-.57.02-.42.05-.85.07-1.27.88-.13,1.69-.37,1.97-1.47l-2.04,1c-.65.06-1.06-.35-1.49-.74-.58-.98-1.17-1.95-1.52-3.04.43-.55.25-1.18.23-1.79-.03-.83,0-1.64.67-2.31.91,1.04,1.62,2.25,2.89,2.88.44.47,1.01.68,1.66.81-.43-.52-1.22-.6-1.38-1.33.45.24.95.34,1.43.24,1.14-.23,1.33.36,1.29,1.31-.02.49-.25,1.06.23,1.49-.11,2.73.62,3.99,2.53,4.36-.52,1.61-1.93,1.97-3.31,2.08-1.7.13-3.52.31-4.5-1.65Zm3.87-3.64s-.03.07-.03.1c0,.01.05.02.08.03.01-.03.03-.07.03-.1,0-.01-.05-.02-.08-.03Z" style="fill: #fcb17e;"/>
  <path d="m127.09,62.25c.14.34.3.68.41,1.04.63,2.02,2.23,2.53,4.09,2.75,2.09.24,4.19.2,6.28.28-.69.55-1.52.75-2.35.98-1.29.36-2.51.87-3.27,2.08l-.04-.03c-.6-.05-1.05.15-1.29.73l.02-.02c-.24-.03-.45,0-.51.28,0,0,.03-.03.03-.03-.1.07-.21.15-.31.22h.01c-.21,0-.41.04-.51.26-1.34.85-2.77,1.49-4.33,1.81-1.26-.35-.45-1.39-.68-2.08,0-.08,0-.17.01-.25,0-.16.02-.32.02-.49.49-1.67.98-3.34,1.48-5.01.35-.71.49-1.47.56-2.24.13-.09.26-.18.38-.28Z" style="fill: #253a64;"/>
  <path d="m79.36,117.75c.33,2.67.67,5.34,1,8.01-2.93-.1-5.78-.82-8.69-1.03-.47-.03-.46-.36.11-.97,1.55-1.67,3.24-3.18,5.1-4.5.19-.14.35-.34.52-.51.78-.09,1.2-.88,1.96-1Z" style="fill: #cce0fb;"/>
  <path d="m93.4,62.27c-1,.06-1.1-.59-.98-1.31.51-2.97,1.06-5.93,1.58-8.89.22-1.26.48-2.51.62-3.78.08-.71.35-.79.98-.66,1.9.39,1.9.37,1.55,2.32-.17.94-.35,1.87-.27,2.83-.56.47-.49,1.12-.49,1.75-.33,1.92-.67,3.83-1,5.75-.08.23-.25.47-.23.69.12,1.42-.57,1.7-1.77,1.31Z" style="fill: #cce0fb;"/>
  <path d="m84.65,50.02q2.75-.02,2.75,2.7c0,3.27,0,6.53,0,9.8q-2.75,0-2.75-2.7c0-3.27,0-6.53,0-9.8Z" style="fill: #cce0fb;"/>
  <path d="m68.9,114.25c1.84.03,1.46-.14,1.5,2.25-.28.35-.68.25-1.03.25-3.59,0-7.18,0-10.77,0-.42,0-.82-.04-1.19-.25,0-.67,0-1.33,0-2,.45-.28.95-.25,1.44-.25,3.35,0,6.7,0,10.06,0Z" style="fill: #cce0fb;"/>
  <path d="m81.46,100.68c-1.56,1.27-2.25,1.28-3.96.05-.41-.71-.99-1.34-1.12-2.19.38-.18.76-.35,1.14-.53.27.6.72.98,1.31,1.26.89.43,1.76.93,2.63,1.41Z" style="fill: #fa9747;"/>
  <path d="m63.04,54.18c.2,1.61.48,3.21.59,4.82.06.95.41,1.86.29,2.83-.05.45-.19.7-.67.68-.42-.02-.58-.24-.58-.64,0-2.56,0-5.12,0-7.68.13,0,.25-.01.38-.02Z" style="fill: #eaf3fa;"/>
  <path d="m95.4,60.27c.33-1.92.67-3.83,1-5.75,1.61-.13.87,1.28,1.2,1.94.29.6-.26.77-.84.83-.93.1-.77.93-.43,1.27.44.43.74.81.51,1.35-.28.66-.95.25-1.43.36Z" style="fill: #eaf3fa;"/>
  <path d="m77.52,98c-.38.18-.76.35-1.14.53-.07-.01-.13-.02-.2-.03-.36-.91-.34-1.85-.19-2.8.3-.56.6.2.93-.01.45-.3,1.11-.36,1.37-.03.32.41-.17.97-.32,1.46-.1.31-.29.59-.44.89Z" style="fill: #fcb17e;"/>
  <path d="m88.14,81.02l2.04-1c-.28,1.1-1.08,1.34-1.97,1.47-.02-.16-.05-.31-.07-.47Z" style="fill: #fa9747;"/>
  <path d="m127.09,62.25c-.13.09-.26.18-.38.28-.59-.05-.56-.48-.56-.9,0-.7,0-1.39,0-2.09.31.9.63,1.81.94,2.71Z" style="fill: #aecdfb;"/>
  <path d="m190.35,117.48c.44,1.91.16,3.66-.87,5.36-.66,1.08-.5,1.72.28,3.26.08-.23.15-.44.26-.76.4,1.32,1.02,2.29,2.34,2.67.53.15.89.58,1.24,1-.11.43-.17.88-.33,1.29-.44,1.12-.85,2.25-.9,3.47l.02-.02c-.34.04-.19.31-.22.49-.18.75-.35,1.51-.54,2.25-.62,2.38-.28,4.42,2.03,5.77-.5.02-1,.04-1.49.04-25,0-50.01,0-75.01,0-.87,0-1.75.03-2.62.04-.36.03-.76-.21-1.08.14-2.18,0-4.37.01-6.55.02-1.11-.02-2.23-.04-3.34-.06-1.45-.02-1.89-.49-1.89-1.95,0-1.39.39-1.75,1.87-1.78.29,0,.58-.04.86-.06.16.02.33.06.49.06,18.49,0,36.97,0,55.46,0,1.87,0,2.79-.9,3.29-2.78.82-3.12.51-6.28.46-9.42-.06-3.58-1.9-5.26-5.49-5.26-17.61,0-35.23,0-52.84,0-.46,0-.91.03-1.37.04-.25-.02-.5-.07-.73-.04-1.53.23-2.09-.77-2.01-2.21.04-.62.37-1.07.73-1.52,3.29,0,6.58-.02,9.87-.03,26.03,0,52.06,0,78.09-.01Z" style="fill: #b6453d;"/>
  <path d="m193.65,142.25c-2.3-1.35-2.65-3.39-2.03-5.77.19-.75.36-1.5.54-2.25.24-.09.23-.29.22-.49,0,0-.02.02-.02.02,2.26-3.72,4.5-7.46,7.01-11.03,1.58-1.97,3.19-3.91,4.96-5.72,2.6.54,5.17.83,7.56-.75.26,3.75.75,7.48,1.34,11.19.56,3.5,1.59,6.85,3.15,10.03.08.5-.33.78-.5,1.17-.78.42-1.55.86-2.43,1.06-1.44-1.11-2.73-2.36-3.88-3.78-.24-.29-.4-.76-.93-.69,0-.34-.08-.63-.29-.92-2.42-3.39-4.64-6.86-4.34-11.34-.43,1.27-.79,2.53-1.01,3.81-.43,2.48-.93,4.95-.4,7.5.24,1.17.59,2.3,0,3.58-.7,1.54-1.37,3.09-2.24,4.54-2.25.42-4.49.42-6.72-.18Z" style="fill: #fa9747;"/>
  <path d="m200.37,142.43c.87-1.46,1.54-3,2.24-4.54.58-1.28.24-2.41,0-3.58-.53-2.54-.03-5.02.4-7.5.22-1.28.58-2.54,1.01-3.81-.3,4.48,1.92,7.95,4.34,11.34.21.29.29.59.29.92-.62,2.44-.93,4.98-2.58,7.04-1.89.5-3.79.6-5.7.13Z" style="fill: #ed7e2d;"/>
  <path d="m106.9,142.5c2.18,0,4.37-.01,6.55-.02-.02.08,0,.13.09.15-3.37,1.14-5.17,3.61-5.59,7.01-.27,2.17.45,4.21,1.84,5.95.31.39.64.76.96,1.14-.96.01-1.91.02-2.87.03-.98-.48-1.25-1.81-2.44-2.03-.53-1.41-.92-2.86-1.48-4.27-.44-1.1-1-2.21-1.01-3.45,1.55-1.3,2.9-2.77,3.95-4.51Z" style="fill: #eaf3fa;"/>
  <path d="m206.07,142.3c1.64-2.06,1.96-4.61,2.58-7.04.53-.07.69.39.93.69,1.14,1.41,2.44,2.67,3.88,3.78-.18.84-.11,2.09-.62,2.41-.69.44-1.83.19-2.78.19-1.33,0-2.66-.02-3.99-.03Z" style="fill: #eaf3fa;"/>
  <path d="m215.88,138.66c.17-.39.58-.67.5-1.17.95.74,1.9,1.48,2.85,2.22-.12.33-.24.67-.36,1-.9.28-1.36-.35-1.87-.89-.36-.39-.74-.77-1.12-1.16Z" style="fill: #eaf3fa;"/>
  <path d="m113.54,142.63c-.08-.02-.11-.07-.09-.15.32-.35.72-.11,1.08-.14-.33.1-.66.19-1,.29Z" style="fill: #fcb17e;"/>
  <path d="m88.67,156.73c.08-1.74.16-3.49.24-5.23,3.23-.03,5.77-1.88,6.86-4.97.17-.47.12-1.13.82-1.28,1.92,3.49,4.28,6.68,6.82,9.74-.1.58.2,1.23-.28,1.75-4.76,0-9.52.01-14.28.02-.06,0-.12-.01-.18-.03Z" style="fill: #eaf3fa;"/>
  <path d="m103.41,154.99c-2.54-3.06-4.9-6.25-6.82-9.74-1.24-2.55-2.34-5.15-2.85-7.98-.21-1.18.22-2.4-.3-3.53.21-.35.42-.7.62-1.06,1.86-3.39,3.71-6.79,5.56-10.18.42,2.7.61,5.42.61,8.16,0,.37.07.74.11,1.11-.29,1.57-.19,3.15-.16,4.73.61,3.58,1.56,7.08,2.75,10.51.01,1.24.57,2.35,1.01,3.45.56,1.41.95,2.86,1.48,4.27-.63.4-1.34.24-2.02.27Z" style="fill: #2b468b;"/>
  <path d="m216.24,146.97c1.93,0,3.54-.07,5.14.02,1.07.06,1.44.97,1.5,1.86.1,1.58.04,3.16.06,4.74,0,.61-.22.76-.75.43-.14-.09-.3-.16-.42-.27-1.03-1.02-2.04-.83-3.06.02-.27.22-.61.59-.98.35-.28-.19-.12-.62-.13-.94-.01-.42,0-.83,0-1.25,0-1.69.21-3.42-1.37-4.96Z" style="fill: #7eb2fd;"/>
  <path d="m150.27,64.72c7.2.02,14.4.04,21.6.05,1.58,0,3.17.05,4.75-.02.95-.04,1.31.21,1.29,1.24-.07,3.5-.03,6.99-.04,10.49-6.24,0-12.48,0-18.72.01,0-2.5-.04-4.99,0-7.49.01-.91-.31-1.25-1.23-1.26-.86,0-1.71.32-2.58.05-.56-.75-1.31-1.12-2.2-1.46-1.16-.44-2.4-.04-3.5-.58.1-.41.35-.73.62-1.04Z" style="fill: #eaf3fa;"/>
  <path d="m149.65,65.75c1.1.54,2.34.14,3.5.58.89.34,1.63.71,2.2,1.46.53,1.21,1.12,2.39,1.59,3.63.64,1.68,1.19,3.39,1.77,5.09,1.17,4.49,2.34,8.98,3.52,13.47.22.83.13,1.72.57,2.5.16.29.02.56-.24.76-.83.01-1.65.03-2.48.04-.15-.08-.29-.17-.44-.25-1.84-2.77-3.67-5.54-5.51-8.3-.16-.47-.37-.92-.48-1.4-.77-3.62-1.86-7.14-3.08-10.62-.63-1.78-1.77-3.03-3.73-3.49-2.26-.53-4.53-.93-6.83-1.23-1.06-.13-2.24.14-3.2-.6,1.23-.36,2.58-.27,3.73-.94.52-.06.8.26,1.03.65.16.61.66.37,1.03.38,1.2.03,2.41-.1,3.59.04,1.6.19,2.79-.21,3.46-1.76Z" style="fill: #ed7e2d;"/>
  <path d="m158.71,76.51c-.59-1.7-1.14-3.41-1.77-5.09-.47-1.23-1.06-2.42-1.59-3.63.86.27,1.72-.05,2.58-.05.93,0,1.24.34,1.23,1.26-.03,2.5,0,4.99,0,7.49-.15,0-.3.01-.45.02Z" style="fill: #cce0fb;"/>
  <path d="m160.08,93.28c.83-.01,1.65-.03,2.48-.04.63,1.9,1.95,3.23,3.57,4.31-.34.32-.77.22-1.17.24-1.81.1-3.29-.89-4.87-1.52.38-1,.16-2-.01-3Z" style="fill: #fcb17e;"/>
  <path d="m160.1,96.27c1.59.63,3.06,1.61,4.87,1.52.4-.02.83.08,1.17-.24.14,0,.28,0,.42.01.06.05.12.11.19.16.41.31,1.29.3,1.18.88-.11.54-.96.49-1.5.63-.3.08-.67.01-.98-.08-1.39-.41-2.74-.95-4.23-.95-.61,0-1.09-.36-1.56-.71-.1-.5.15-.87.43-1.23Z" style="fill: #b6453d;"/>
  <path d="m208.7,100.5c3.56,0,7.12.01,10.69.02,0,2.49,0,4.98.01,7.46,0,.44-.17.92.25,1.29-.45.41-.83.99-1.35,1.2-2.02.82-4.07,1.56-6.19,2.07-.95-.48-1.94-.86-2.98-1.09-.08-.92-1.09-.69-1.49-1.21.01-.17.03-.34.04-.51.64.1,1-.02.96-.81-.06-1.07-.02-2.15-.02-3.23,0-.73-.18-1.39-.74-1.9.16-1.12.76-2.14.82-3.28Z" style="fill: #fcecdc;"/>
  <path d="m212.1,112.54c2.12-.51,4.18-1.25,6.19-2.07.53-.21.91-.79,1.35-1.2.45-.18.81-.46,1.1-.85.24.05.68.08.69.15.12,1.24,1.21,1.11,1.96,1.43.34.14.73.24.73.73,0,.56-.43.63-.83.77-.96.33-1.96.22-2.95.26-.95.05-1.76.34-1.76,1.53-1.77-.16-3,.87-4.21,1.94-.96.03-1.66.69-2.49,1.03-2.39,1.57-4.96,1.28-7.55.75-2.02-.56-4.1-.89-6.02-1.76,1.18-.7,2.31-1.48,2.92-2.75.36-.75.77-.76,1.47-.52,1.55.53,3.09,1.14,4.74,1.35,1.69.54,3.17-.15,4.66-.79Z" style="fill: #fcb17e;"/>
  <path d="m228.62,106.79c-.92.16-1.84.32-2.75.48.35-1.09.71-2.19,1.1-3.41.6,1.05,1.48,1.78,1.65,2.94Z" style="fill: #fcecdc;"/>
  <path d="m227.16,112.17c-.05-.78.02-1.56-.44-2.28-.2-.31-.23-.81.1-1.15.44-.47.83-.1,1.21.12.92,1.83.67,2.78-.87,3.32Z" style="fill: #fcb17e;"/>
  <path d="m137.63,41.53c11.69,0,23.38,0,35.07,0,2.77,0,5.17,2.39,5.18,5.15.01,4.87-.02,9.74.03,14.6.01,1-.29,1.29-1.27,1.26-2.24-.07-4.49-.02-6.74-.02,0-.75,0-1.5,0-2.25.29,0,.58,0,.87,0,.41,0,.62-.2.61-.61-.01-.32.1-.79-.34-.82-1.24-.11-.97-.89-.75-1.61.3-1-.11-1.23-1.04-1.22-2.87.04-5.75.1-8.61-.02-1.37-.06-1.44,1.69-2.69,1.66-.05,0-.2.83.14.99.81.38.47,1.05.55,1.62-1.24-.22-1.71.31-1.51,1.53.04.24,0,.48,0,.73-.79-.01-1.68.2-2.34-.1-.84-.38-.31-1.41-.42-2.14-.45-3.18-.85-6.37-1.21-9.57-.08-.77-.24-1.04-1.06-.81-1.09.31-2.23.13-3.35.11-.88-.02-1.14.28-1.13,1.14.04,3.2.01,6.4,0,9.61-.66,0-1.31,0-1.97,0,1.12-.17,1.3-.87,1.25-1.9-.09-2.16-.09-4.32,0-6.48.05-1.12-.32-1.53-1.4-1.36-.2.03-.42.03-.62,0-.97-.14-1.3.24-1.27,1.24.07,2.66.03,5.32.01,7.97,0,.44.17.92-.24,1.29-1.12-.42-1.63-1.35-2.01-2.39-.98-2.7-1.22-5.58-2.08-8.31.27-.33.45-.64.2-1.1-.89-1.62-1.49-3.49-3.64-3.94.69-1.06,1.13-2.22,1.24-3.49.17-.25.35-.51.52-.76Z" style="fill: #eaf3fa;"/>
  <path d="m137.63,41.53c-.17.25-.35.51-.52.76-.68.54-.8,1.59-1.65,1.93-1.04.4-.99,1.02-.53,1.8-.09,1.4-.66,1.91-2.06,1.75-1.54-.19-2.5-1.18-3.2-2.48.43-.19.77-.48.82-.98.1-1.06.5-2.07.4-3.17-.14-1.51.11-2.01,1.52-2.03,1.67-.03,2.71-.94,3.68-2.02.64-.71.86-.49,1.14.23.21.53.13,1.06.18,1.6.05.56-.24,1.17.23,1.67,0,.32,0,.64-.01.96Z" style="fill: #fcb17e;"/>
  <path d="m149.65,65.75c-.67,1.55-1.86,1.95-3.46,1.76-1.18-.14-2.39-.01-3.59-.04-.36,0-.87.23-1.03-.38.34-.61.97-.48,1.5-.63.39-.11,1.02-.14,1.01-.71,0-.56-.55-.47-.95-.49-.08,0-.15-.16-.23-.25.24-.29.58-.52.53-.98h-.03c.41-.1.56-.36.51-.77v.03c.38-.11.56-.37.5-.78,0,0,0,.03,0,.03.39-.09.48-.41.56-.74l-.03.02c.28-.09.21-.34.26-.54.07-.08.14-.16.2-.24,1.65-.04,3.31-.07,4.96-.11l2.02.07c-.71,1.24-1.42,2.47-2.12,3.71-.28.3-.52.63-.62,1.04Z" style="fill: #1e468a;"/>
  <path d="m157.12,62.52c0-.24.04-.49,0-.73-.2-1.22.27-1.75,1.51-1.53,3.76,0,7.51,0,11.27.01,0,.75,0,1.5,0,2.25-4.26,0-8.51,0-12.77,0Z" style="fill: #cce0fb;"/>
  <path d="m152.4,61.01c-.67-.02-1.35-.05-2.02-.07.02-.06.02-.12,0-.18.75-.89,1.5-1.78,2.24-2.67-.06,1.03.19,2.01-.22,2.92Z" style="fill: #fcecdc;"/>
  <path d="m150.38,60.76c.01.06.01.12,0,.18-1.65.04-3.31.07-4.96.11.08-.1.17-.2.25-.29.66,0,1.31,0,1.97,0,.91,0,1.83,0,2.74.01Z" style="fill: #cce0fb;"/>
  <path d="m190.35,117.48c-26.03,0-52.06,0-78.09.01-3.29,0-6.58.02-9.87.02-1.16,0-2.32-.01-3.48-.02-.71-2.67-1.41-5.33-2.12-8,.04-.17.08-.33.11-.5.23-.31.24-.66.28-1.04.2-1.98-.13-3.97,0-5.95,2.29-.46,4.57-.91,6.45-2.46.66-.55,1.2-1.13,1.05-2.07.24-.02.49-.04.73-.06.9,0,1.81,0,2.71.01.25.02.51.03.76.05.46,0,.92.02,1.37.02,14.45,0,28.9,0,43.35,0,.17.59-.2,1.1-.23,1.66-.33.38-.22.83-.22,1.27-.96.02-1.91,0-2.87.07-2.03.15-3.9.94-4.62,2.86-.98,2.6-.8,5.36-.05,8.05.04.15.15.3.25.43,1.34,1.89,3.26,2.63,5.49,2.63,12.94.01,25.87,0,38.81,0,.22.99.15,1.99.18,2.98Z" style="fill: #7eb2fd;"/>
  <path d="m190.17,114.5c-12.94,0-25.87,0-38.81,0-2.24,0-4.15-.74-5.49-2.63-.1-.13-.2-.28-.25-.43-.75-2.69-.93-5.45.05-8.05.73-1.93,2.59-2.72,4.62-2.86.95-.07,1.91-.05,2.87-.07,2.05,1.06,4.37.96,6.53,1.56.04.01.08,0,.12,0,.53-.06,1.25-.12,1.41-.56.21-.59-.69-.52-.95-.9,6.9-.01,13.81-.03,20.71-.04,5.03,0,10.07.01,15.1.02-.4,1.68-.8,3.36-1.2,5.04-.14.58-.36,1.17-.94,1.39-3.02,1.14-3.67,3.61-3.7,6.44,0,.37-.05.74-.08,1.11Z" style="fill: #fcecdc;"/>
  <path d="m207.44,113.33c-1.65-.21-3.18-.82-4.74-1.35-.7-.24-1.11-.23-1.47.52-.6,1.27-1.74,2.05-2.92,2.75-.72.18-1.44.31-2.11-.2-.18-.14-.46-.33-.67-.14-.24.22-.08.53-.05.81.37,2.85,1.55,5.25,3.89,7.01-2.51,3.56-4.75,7.3-7.01,11.03.05-1.22.47-2.34.9-3.47.16-.41.22-.86.33-1.29,1.11-2.42.83-4.91.46-7.44-.52-3.52-.99-7.07-.41-10.63.28-1.7.99-2.19,2.74-2.18.83,0,1.66-.02,2.49-.04.45.2.92.37,1.35.61.8.44,1.56.97,2.47,1.13.51.09,1.25.34,1.23-.67,1.29-.31,2.47.31,3.7.45.4.52,1.41.29,1.49,1.21-.45.73-1.05,1.32-1.68,1.88Z" style="fill: #fff;"/>
  <path d="m203.93,109.79c.03,1.01-.71.76-1.23.67-.91-.15-1.68-.69-2.47-1.13-.43-.24-.9-.41-1.35-.61.86-1.39,1.08-2.92,1.04-4.52-.06-2.11-.04-2.11,2.22-2.19h0c.31.52.54.11.74-.09.74-.75,1.26-1.64,1.69-2.59.23-.49.37-.71.81-.17,1.28,1.58,1.26,5.46-.08,7-.37.42-.84.65-1.42.6-.95-.36-1.91-.72-2.86-1.09.68.96,1.25,2.02,2.58,2.07.23.66-.29,1.45.34,2.04Z" style="fill: #fcb17e;"/>
  <path d="m207.87,103.78c.56.51.75,1.17.74,1.9,0,1.08-.05,2.16.02,3.23.05.79-.32.92-.96.81-.11-.37.12-.61.28-.9.31-.57.41-1.28-.07-1.74-1.21-1.14-.67-2.2-.01-3.3Z" style="fill: #fa9747;"/>
  <path d="m203.59,107.74c-1.33-.05-1.89-1.11-2.58-2.07.95.36,1.91.72,2.86,1.09-.23.29-.26.64-.29.98Z" style="fill: #fa9747;"/>
  <path d="m202.14,102.01c0-.06,0-.11,0-.17.05.02.1.03.15.05-.05.04-.11.08-.16.12,0,0,0,0,0,0Z" style="fill: #fcb17e;"/>
  <path d="m214.38,115.23c1.21-1.07,2.43-2.1,4.21-1.94-.33.95-.63,1.9-.99,2.83-.15.4-.17.91-.67,1.11-.1,0-.2,0-.3.01-.49-.96-1.34-1.52-2.24-2.02Z" style="fill: #fa9747;"/>
  <path d="m129.67,45.28c.7,1.3,1.65,2.3,3.2,2.48,1.4.17,1.97-.35,2.06-1.75.28-.19.59-.28.94-.25,2.14.46,2.75,2.32,3.64,3.94.25.46.07.77-.2,1.1-1.7.79-1.71.79-1.27,2.5.26,1.02.17,2.05.08,3.06-.09,1-.44,1.97-.43,2.99-.29.69-.1,1.51-.55,2.16-2.76-.03-4.43-1.62-5.69-3.88-.36-.65-.41-1.54-1.25-1.88-.13-.85.31-1.89-.21-2.52-.51-.63-1.55-.07-2.34-.27-.91-.23-1.82-.46-2.72-.69-.37-.65-1.68-.59-1.42-1.63.42-1.66.25-3.65,2.23-4.56,1.25-.57,2.55-.93,3.95-.83Z" style="fill: #1e468a;"/>
  <path d="m160.1,96.27c-.29.36-.53.73-.43,1.23-1.02,0-2.03,0-3.05.01-.15-.25-.31-.5-.46-.75.56-.84-.24-1.66-.05-2.49.5,0,1-.07,1.49,0,1.06.16,1.75-.21,2.06-1.26.15.08.29.17.44.25.17,1,.39,2,.01,2.99Z" style="fill: #aecdfb;"/>
  <path d="m156.15,96.77c.15.25.31.5.46.75.77,1.14,1.64,2.18,2.89,2.82-1.37.46-2.67.24-3.95-.34-.71-.32-1.39-.73-2.18-.83.03-.56.4-1.07.23-1.66-.07-.33-.14-.66-.21-1,.9.32,1.83.25,2.76.25Z" style="fill: #fcb17e;"/>
  <path d="m153.37,99.17c.79.1,1.47.51,2.18.83,1.27.58,2.58.79,3.95.34.26.07.51.13.76.2.27.38,1.16.32.95.9-.16.44-.88.49-1.41.56-.04,0-.09.01-.12,0-2.16-.6-4.48-.49-6.53-1.56,0-.44-.11-.89.22-1.27Z" style="fill: #b6453d;"/>
  <path d="m222.86,116.49c-.32.73-.92,1-1.67,1.01-.94,0-1.87-.01-2.81-.02,1.46-.46,2.96-.79,4.48-.99Z" style="fill: #7eb2fd;"/>
  <path d="m202.26,42.27c2.33,0,4.66.04,6.99-.02,1.14-.03,1.62.46,1.62,1.53,0,4.5.02,8.99,0,13.49,0,1.19-.58,1.73-1.8,1.74-4.62.02-9.24.02-13.86,0-1.26,0-1.8-.57-1.81-1.86-.02-4.41,0-8.83,0-13.24,0-1.09.39-1.69,1.63-1.65,2.41.07,4.83.02,7.24.02Zm.27,3.05c-.43,1.78.3,3.4-.54,4.87-.13.23.11.49.39.49.36,0,.55-.31.46-.6-.45-1.49-.03-3.03-.31-4.76Zm2.46,2.88c-.66.26-1.3.57-1.64,1.22.77-.12,1.26-.61,1.64-1.22Z" style="fill: #e0ebfd;"/>
  <path d="m81.05,128.99c.28,2.23,1.37,4.34,1.08,6.64-.17,1.31-.33,2.58,0,3.88-2.07,1.7-3.5,3.96-5.21,5.98-.8.95-1.47,2.01-2.32,2.9-1.51,1.57-3.4,1.45-5.3.94-3.16-.85-5.51-2.88-7.3-5.49-1.41-2.05-1.19-4.39-.42-6.67.96-2.85,2.84-5.12,4.7-7.41.31-.38.71-.54,1.21-.52.75.03,1.5,0,2.24,0,3.77,0,7.55.09,11.32-.26Z" style="fill: #cce0fb;"/>
  <path d="m82.86,144.99c.44,2.25.88,4.5,1.32,6.75-1.67.12-3.29-.23-4.93-.48-.61-.1-.78-.41-.37-.81,1.54-1.5,2.59-3.33,3.56-5.22.06-.12.27-.16.41-.23Z" style="fill: #cce0fb;"/>
  <path d="m94.69,82.9c-1.91-.38-2.64-1.64-2.53-4.36.19-.16.37-.43.57-.45,1.85-.15,2.05-1.54,2.17-2.92.12-1.36-.3-2.63-.96-3.83,1.45-.38,1.43-1.51,1.5-2.58.91-.05.97.54.97,1.23-.01,3.04-.01,6.08,0,9.11,0,.42-.13.88.2,1.3.46-.38.28-.82.28-1.2.02-3.12,0-6.24.01-9.36,0-1.96.49-2.41,2.41-2.04.79.15,1.53.27,2.32.02.58-.19.94.08,1.02.74.41,3.69.84,7.38,1.24,11.07.06.52.1.87.75.88.74,0,.77-.43.77-.98,0-3.08.06-6.16-.03-9.24-.04-1.23.52-1.29,1.48-1.32,1.05-.03,1.34.32,1.32,1.35-.06,3.04-.03,6.08-.01,9.11,0,.37-.2.94.41,1.01.76.09.52-.56.59-.97.59.02,1.17.04,1.76.06,0,1.07-.02,2.14-.02,3.21-5.21,0-10.41.02-15.62.03-.2.04-.39.08-.59.11Z" style="fill: #dae8f8;"/>
  <path d="m110.92,79.55c-.59-.02-1.17-.04-1.76-.06-.69-.99-.68-1.97,0-2.96.92-.02,1.83-.03,2.75-.05,2.16,0,4.32,0,6.47,0,3.37,0,6.73-.02,10.1-.03.68.18,1.34.46,2.03.54,4.13.49,8.27.68,12.42.39,1.89-.13,2.28.21,2.17,2.14-11.39,0-22.79.02-34.18.03Z" style="fill: #aecdfb;"/>
  <path d="m95.44,68.77c-.07,1.07-.05,2.2-1.5,2.58.66,1.2,1.08,2.47.96,3.83-.12,1.38-.31,2.77-2.17,2.92-.2.02-.38.29-.57.45-.48-.43-.25-1-.23-1.49.04-.95-.15-1.53-1.29-1.31-.48.1-.98,0-1.43-.24-.1,0-.19,0-.29,0-.04-.03-.08-.06-.12-.09.03.04.06.08.09.12.03.16.29.31.04.5-1.27-.64-1.98-1.84-2.89-2.88-.68.67-.71,1.48-.67,2.31.02.61.2,1.24-.23,1.79-1.21-1.66-1.73-3.32-.19-5.1.48-.56.79-1.26,1.24-1.86.32-.43.8-.74,1.09-1.18.74-1.1,2.31.05,2.92-1.06.56-1.02,1.35-1.6,2.43-1.86,1.29-.31,2.89.41,2.82,2.58Z" style="fill: #253a64;"/>
  <path d="m128.48,76.45c-3.37,0-6.73.02-10.1.03,0-1.87,0-3.74.01-5.6,0-1.89.33-2.29,2.19-1.8,1.18.31,2.33.39,3.51.47.2.01.38.15.58.23,0,.16-.02.32-.02.49-.03.02-.1.05-.09.07.02.06.05.12.08.18.23.69-.58,1.72.68,2.08-.1,2.24,1.45,3.11,3.17,3.86Z" style="fill: #dae8f8;"/>
  <path d="m111.91,76.48c-.92.02-1.83.03-2.75.05,0-2.08.05-4.17-.03-6.25-.05-1.1.39-1.32,1.37-1.29.91.02,1.48.06,1.43,1.24-.09,2.08-.02,4.16-.01,6.25Z" style="fill: #dae8f8;"/>
  <path d="m94.69,82.9c.2-.04.39-.08.59-.11.43.14.85.31,1.28.4,2.1.43,3.61,1.52,4.38,3.6.61,1.67,1.35,3.29,2.04,4.93.57,1.92,1.14,3.83,1.71,5.75.14.94-.39,1.53-1.05,2.07-1.88,1.55-4.16,2-6.45,2.46-.53,0-1.07-.01-1.6-.01q-1.93,0-1.93-1.97c-.2-.83.57-1.45.48-2.25,1.37-.09,2.69-.39,4-.77,1.56-.35,1.67-.66.76-2.29.07-.67-.06-1.3-.23-1.94-.09-.34-.21-.58-.56-.3-1.84,1.46-3.49,3.09-4.45,5.29-1.25-.17-2.62.43-3.76-.53-.87-1.42-1.73-2.85-2.6-4.27.03-.33-.12-.56-.41-.71l.02.02c-.09-.09-.18-.18-.26-.27,0,0,.02.02.02.02-.93-.47-1.86-.35-2.8,0-.05.04-.11.07-.17.07-.36,0-.71.02-1.06.02-.84-.04-1.68-.07-2.51-.11.54-2.17,1.12-4.33,2.25-6.27.97-1.67,2.65-2.28,4.52-2.41.98,1.96,2.81,1.78,4.5,1.65,1.39-.11,2.79-.47,3.31-2.08Z" style="fill: #fa9747;"/>
  <path d="m87.29,92.97c.87,1.42,1.73,2.85,2.6,4.27-.87.14-1.68-.5-2.56-.23-.19.06-.7-.06-.52.21.55.8-.29.76-.54,1.04-.25.27-.61.42-.89.66-.29.24-.61.53-.41.94.15.32.51.37.86.38.76.01,1.46-.2,2.16-.47,1.73-.67,3.01-.35,4.14,1.02,0,.14,0,.28,0,.42-2.81,0-5.61,0-8.42,0-.44,0-.91.14-1.31-.2-.33-.62-.66-1.23-.99-1.85-1.27-2.32-2.92-4.43-4.01-6.85.1-.02.2-.05.29-.07,1.66-.03,3.31-.06,4.97-.08.35.1.69.1,1.03-.05.07,0,.12-.03.17-.07.13.02.26.04.39.06.1.15.21.14.31,0,.7-.02,1.4-.04,2.1-.06,0,0-.02-.02-.02-.02.02.16.07.28.26.27,0,0-.02-.02-.02-.02-.04.34.14.55.41.71Z" style="fill: #1e468a;"/>
  <path d="m77.4,92.3c1.1,2.42,2.75,4.53,4.01,6.85.33.61.66,1.23.99,1.85-.14-.02-.28-.03-.41-.05-.18-.09-.36-.18-.53-.27-.87-.47-1.74-.97-2.63-1.41-.59-.29-1.04-.67-1.31-1.26.15-.29.34-.58.44-.89.16-.49.64-1.05.32-1.46-.26-.34-.93-.27-1.37.03-.32.21-.63-.55-.93.01-1.16-1.85-2.32-3.71-3.62-5.78,1.99.43,3.35,1.77,5.03,2.38Z" style="fill: #253a64;"/>
  <path d="m82.66,92.15c-1.66.03-3.31.06-4.97.08.78-.39,1.61-.14,2.42-.22.84.04,1.68.07,2.51.11,0,0,.04.03.04.03Z" style="fill: #aecdfb;"/>
  <path d="m96.79,109.5c.71,2.67,1.41,5.33,2.12,8-.03,1.7.73,3.29.72,5-1.85,3.39-3.71,6.79-5.56,10.18-.2.36-.41.71-.62,1.06-1.19-3.73-2.38-7.47-3.56-11.2,0-3.82.54-7.59.99-11.37.04-.33.02-.67.03-1,1.98-.05,3.98,0,5.89-.67Z" style="fill: #253a64;"/>
  <path d="m89.88,122.54c1.19,3.73,2.38,7.47,3.56,11.2.52,1.14.08,2.35.3,3.53.51,2.83,1.61,5.42,2.85,7.98-.7.15-.65.8-.82,1.28-1.09,3.08-3.63,4.94-6.86,4.97,0-4.08.04-8.16-.03-12.24-.05-3.16-.3-6.33.07-9.47.28-2.42.02-4.92.93-7.25Z" style="fill: #cce0fb;"/>
  <path d="m68.9,114.25c-3.35,0-6.7,0-10.06,0-.5,0-1-.03-1.44.25-.87.05-1.75.11-1.49-1.22.04-.21.08-.46.32-.47,1.24-.06,1-.86.77-1.58-.29-.97.05-1.25,1.01-1.24,2.99.04,5.98.02,8.97.01.59,0,1.22-.09,1.19.82,0,.22.16.38.39.41,1.27.16.91.89.52,1.57-.28.48-.14.97-.18,1.45Z" style="fill: #dae8f8;"/>
  <path d="m92.13,101.21c0-.14,0-.28,0-.42.05-1.19.94-.66,1.53-.75q0,1.97,1.93,1.97c.53,0,1.07,0,1.6.01-.13,1.98.2,3.96,0,5.95-.04.38-.05.73-.28,1.04-3.39-1.5-5.07-4.05-4.77-7.8Z" style="fill: #ed7e2d;"/>
  <path d="m130.19,55.77c.84.34.89,1.22,1.25,1.88,1.26,2.25,2.94,3.84,5.69,3.88-.26,1.27.28,2.2,1.25,2.95-.69.12-1.26-.2-1.87-.43-1.24-.47-2.49-.89-3.75-1.28-1.61-.5-2.04-1.14-2.11-2.85-.06-1.39-.3-2.77-.46-4.15Z" style="fill: #253a64;"/>
  <path d="m138.38,64.48c-.97-.75-1.51-1.68-1.25-2.95.45-.65.26-1.47.55-2.16.23.47.54.93.69,1.42.68,2.26,2.31,3.27,4.51,3.6,0,.1,0,.2.01.3-1.51-.04-3.06,1-4.52-.21Z" style="fill: #dae8f8;"/>
  <path d="m140.55,66.44c-1.15.67-2.5.58-3.73.94-1.77.1-3.04,1.33-4.56,2,.76-1.21,1.98-1.72,3.27-2.08.83-.23,1.66-.43,2.35-.98.89-.02,1.79-.18,2.67.12Z" style="fill: #2b468b;"/>
  <path d="m142.9,64.69c0-.1,0-.2-.01-.3.18-.12.36-.23.55-.35.05.45-.29.69-.53.98,0-.11,0-.22,0-.33Z" style="fill: #fcecdc;"/>
  <path d="m88.92,76.02c.25-.19-.01-.33-.04-.5l.03-.03c.1,0,.19,0,.29,0,.16.73.95.81,1.38,1.33-.65-.13-1.22-.33-1.66-.81Z" style="fill: #2b468b;"/>
  <path d="m90.75,79.7s.08.02.08.03c0,.03-.02.07-.03.1-.03-.01-.08-.02-.08-.03,0-.03.02-.07.03-.1Z" style="fill: #fa9747;"/>
  <path d="m132.26,69.37c1.52-.66,2.79-1.9,4.56-2,.96.73,2.14.46,3.2.6,2.3.29,4.57.7,6.83,1.23,1.96.46,3.1,1.71,3.73,3.49,1.22,3.48,2.32,7.01,3.08,10.62.1.48.31.93.48,1.4.56,3.21,1.13,6.41,1.96,9.56-.19.83.62,1.65.05,2.49-.93,0-1.86.07-2.76-.25-.75-.62-.97-1.63-1.67-2.29-.96-1.65-1.97-3.27-2.87-4.95-1.37-2.54-3.12-4.93-3.39-7.95-.05-.6.07-1.26-.35-1.8.11-1.93-.29-2.27-2.17-2.14-4.15.29-8.29.1-12.42-.39-.69-.08-1.35-.35-2.03-.54-1.71-.75-3.27-1.62-3.17-3.86,1.56-.33,2.99-.96,4.33-1.81.17-.09.34-.17.51-.26,0,0-.01,0-.01,0,.1-.07.21-.15.31-.22,0,0-.03.03-.03.03.21-.02.41-.06.51-.28,0,0-.02.02-.02.02.51-.11.95-.32,1.29-.73l.04.03Z" style="fill: #fa9747;"/>
  <path d="m132.21,69.34c-.34.41-.79.62-1.29.73.24-.58.7-.78,1.29-.73Z" style="fill: #2b468b;"/>
  <path d="m130.15,70.52c-.17.09-.34.17-.51.26.1-.22.29-.26.51-.26Z" style="fill: #2b468b;"/>
  <path d="m130.94,70.06c-.1.22-.3.27-.51.28.07-.28.28-.31.51-.28Z" style="fill: #2b468b;"/>
  <path d="m130.45,70.31c-.1.07-.21.15-.31.22.1-.07.21-.15.31-.22Z" style="fill: #2b468b;"/>
  <path d="m124.63,70.51c-.03-.06-.06-.12-.08-.18,0-.01.06-.04.09-.07,0,.08,0,.17-.01.25Z" style="fill: #eaf3fa;"/>
  <path d="m104.4,121.28c.46-.02.91-.04,1.37-.04,17.61,0,35.23,0,52.84,0,3.58,0,5.43,1.69,5.49,5.26.05,3.14.36,6.31-.46,9.42-.49,1.88-1.42,2.78-3.29,2.78-18.49.01-36.97,0-55.46,0-.16,0-.33-.04-.49-.06,0-5.79,0-11.58,0-17.37Zm43.69,6.46c-.43,2.06-.11,4.14-.18,6.21-.03.86.57.43.82.24,2.21-1.64,4.37-1.85,6.61-.03.69.56.86.1.86-.6,0-1.91.04-3.83.07-5.74.42-.8.89-1.57,1.8-2.35-2.63-.22-4.98-.17-7.32-.09-1.71.06-2.25.6-2.65,2.36Z" style="fill: #fcecdc;"/>
  <path d="m104.4,121.28c0,5.79,0,11.58,0,17.37-.29.02-.57.05-.86.06-1.48.03-1.87.4-1.87,1.78,0,1.46.44,1.93,1.89,1.95,1.11.02,2.23.04,3.34.06-1.06,1.73-2.4,3.21-3.95,4.51-1.19-3.43-2.14-6.93-2.75-10.51,1.46-1.37,2.19-3.15,2.63-5.03.15-.64-.39-.78-1-.55-.55.2-.8.88-1.47.85-.04-.37-.11-.74-.11-1.11,0-2.74-.19-5.46-.61-8.16.02-1.7-.74-3.29-.72-5,1.16,0,2.32.01,3.48.02-.36.45-.69.89-.73,1.52-.08,1.44.48,2.44,2.01,2.21.24-.04.49.02.73.04Z" style="fill: #cce0fb;"/>
  <path d="m192.39,133.73c0,.2.02.4-.22.49.03-.18-.12-.45.22-.49Z" style="fill: #fff;"/>
  <path d="m199.38,122.73c-2.34-1.76-3.52-4.15-3.89-7.01-.04-.29-.2-.6.05-.81.22-.19.5,0,.67.14.67.51,1.38.38,2.11.2,1.92.87,4,1.2,6.02,1.76-1.76,1.81-3.38,3.75-4.96,5.72Z" style="fill: #eaf3fa;"/>
  <path d="m100.35,131.76c.67.03.92-.65,1.47-.85.61-.23,1.15-.09,1,.55-.44,1.88-1.17,3.66-2.63,5.03-.04-1.58-.13-3.16.16-4.73Z" style="fill: #eaf3fa;"/>
  <path d="m156.1,94.27c-.83-3.15-1.41-6.35-1.96-9.56,1.84,2.77,3.67,5.54,5.51,8.3-.31,1.04-1,1.41-2.06,1.26-.49-.07-.99,0-1.49,0Z" style="fill: #fcecdc;"/>
  <path d="m207.44,113.33c.63-.57,1.23-1.15,1.68-1.88,1.04.24,2.03.61,2.98,1.09-1.49.64-2.97,1.32-4.66.79Z" style="fill: #fa9747;"/>
  <path d="m169.9,60.27c-3.76,0-7.51,0-11.27-.01-.08-.57.27-1.24-.55-1.62-.35-.16-.2-1-.14-.99,1.26.02,1.32-1.72,2.69-1.66,2.87.12,5.74.06,8.61.02.93-.01,1.34.22,1.04,1.22-.22.72-.49,1.5.75,1.61.44.04.33.51.34.82.02.41-.2.61-.61.61-.29,0-.58,0-.87,0Z" style="fill: #dae8f8;"/>
  <path d="m143.44,64.04c-.18.12-.37.23-.55.35-2.2-.33-3.84-1.34-4.51-3.6-.15-.5-.46-.95-.69-1.42-.01-1.02.34-1.99.43-2.99.09-1.01.17-2.05-.08-3.06-.43-1.71-.42-1.71,1.27-2.5.86,2.73,1.1,5.61,2.08,8.31.38,1.04.89,1.97,2.01,2.39.26.3.61.44.99.52.01.17.02.33.03.5,0,0,0-.03,0-.03-.33.15-.5.41-.51.78,0,0,0-.03,0-.03-.34.15-.5.41-.51.78,0,0,.03,0,.03,0Z" style="fill: #fcb17e;"/>
  <path d="m144.38,62.05c-.38-.09-.72-.23-.99-.52.41-.37.24-.85.25-1.29.02-2.66.05-5.32-.01-7.97-.02-1,.3-1.38,1.27-1.24.2.03.42.03.62,0,1.08-.17,1.45.24,1.4,1.36-.09,2.16-.09,4.32,0,6.48.04,1.03-.13,1.73-1.25,1.9-.08.1-.17.2-.25.29-.07.08-.14.16-.2.24-.27.09-.31.29-.26.54,0,0,.03-.02.03-.02-.2.08-.4.16-.59.24Z" style="fill: #dae8f8;"/>
  <path d="m135.87,45.77c-.34-.04-.65.05-.94.25-.47-.79-.51-1.4.53-1.8.85-.33.98-1.39,1.65-1.93-.11,1.27-.55,2.42-1.24,3.49Z" style="fill: #253a64;"/>
  <path d="m143.91,63.3c.01-.36.18-.62.51-.78.06.41-.12.66-.51.78Z" style="fill: #fcecdc;"/>
  <path d="m143.41,64.05c0-.37.17-.63.51-.78.05.4-.1.67-.51.78Z" style="fill: #fcecdc;"/>
  <path d="m144.38,62.05c.2-.08.4-.16.59-.24-.08.33-.17.65-.56.74-.01-.17-.02-.33-.03-.5Z" style="fill: #fcecdc;"/>
  <path d="m144.94,61.83c-.05-.24,0-.45.26-.54-.05.2.02.45-.26.54Z" style="fill: #fcecdc;"/>
  <path d="m151.72,94.22c.7.66.92,1.67,1.67,2.29.07.33.14.66.21,1-14.45,0-28.9,0-43.35,0-.46,0-.92-.01-1.37-.02-.41-2.9-.23-3.19,2.03-3.24,7.86,0,15.72.02,23.59.01,5.74,0,11.48-.02,17.22-.04Z" style="fill: #aecdfb;"/>
  <path d="m102.97,91.74c-.68-1.64-1.42-3.27-2.04-4.93-.77-2.08-2.28-3.17-4.38-3.6-.44-.09-.85-.27-1.28-.4,5.21,0,10.41-.02,15.62-.03,0,.92,0,1.84,0,2.76-.37,0-.75,0-1.12,0q-1.62,0-1.63,1.6c0,3.44-.02,6.88-.03,10.32-.9,0-1.81,0-2.71-.01,0-3.41-.04-6.82,0-10.22.01-.92-.25-1.22-1.19-1.22-.92,0-1.08.37-1.1,1.19-.03,1.52.24,3.06-.16,4.57Z" style="fill: #eaf3fa;"/>
  <path d="m108.12,97.44c0-3.44.02-6.88.03-10.32q0-1.6,1.63-1.6c.37,0,.75,0,1.12,0,0,2.91.01,5.82.02,8.73-2.26.05-2.44.34-2.03,3.24-.25-.02-.51-.03-.76-.05Z" style="fill: #cce0fb;"/>
  <path d="m102.97,91.74c.4-1.51.13-3.05.16-4.57.02-.82.18-1.18,1.1-1.19.94,0,1.2.3,1.19,1.22-.04,3.41,0,6.82,0,10.22-.24.02-.49.04-.73.06-.57-1.92-1.14-3.83-1.71-5.75Z" style="fill: #dae8f8;"/>
  <path d="m202.53,45.32c.28,1.73-.14,3.27.31,4.76.09.29-.1.6-.46.6-.28,0-.52-.25-.39-.49.84-1.47.11-3.08.54-4.87Z" style="fill: #cce0fb;"/>
  <path d="m204.99,48.2c-.38.62-.87,1.1-1.64,1.22.34-.65.97-.96,1.64-1.22Z" style="fill: #cce0fb;"/>
  <path d="m110.91,94.25c0-2.91-.01-5.82-.02-8.73,0-.92,0-1.84,0-2.76,0-1.07.02-2.14.02-3.21,11.39,0,22.79-.02,34.18-.03.42.54.3,1.2.35,1.8.27,3.02,2.02,5.41,3.39,7.95.91,1.68,1.91,3.3,2.87,4.95-5.74.01-11.48.04-17.22.04-7.86,0-15.72,0-23.59-.01Z" style="fill: #fcecdc;"/>
  <path d="m88.88,75.53s-.06-.08-.09-.12c.04.03.08.06.12.09,0,0-.03.03-.03.03Z" style="fill: #2b468b;"/>
  <path d="m93.65,100.03c-.59.1-1.48-.43-1.53.75-1.13-1.37-2.41-1.69-4.14-1.02-.7.27-1.4.48-2.16.47-.35,0-.71-.06-.86-.38-.19-.41.13-.7.41-.94.28-.24.64-.39.89-.66.25-.27,1.09-.23.54-1.04-.19-.27.33-.15.52-.21.88-.27,1.69.36,2.56.23,1.14.96,2.5.36,3.76.53.16,0,.32,0,.48.01.09.8-.68,1.42-.48,2.25Z" style="fill: #fcb17e;"/>
  <path d="m94.13,97.78c-.16,0-.32,0-.48-.01.96-2.21,2.61-3.83,4.45-5.29.36-.28.47-.05.56.3.17.64.3,1.28.23,1.94-.44.7-.6,1.5-.76,2.29-1.31.39-2.64.68-4,.77Z" style="fill: #ed7e2d;"/>
  <path d="m98.13,97.01c.16-.79.32-1.59.76-2.29.91,1.63.8,1.94-.76,2.29Z" style="fill: #dae8f8;"/>
  <path d="m84.25,92.09c-.13-.02-.26-.04-.39-.06.93-.36,1.86-.48,2.8,0-.7.02-1.4.04-2.1.06-.1,0-.21,0-.31,0Z" style="fill: #fcecdc;"/>
  <path d="m87.29,92.97c-.26-.16-.45-.37-.41-.71.28.15.43.38.41.71Z" style="fill: #fcecdc;"/>
  <path d="m82.66,92.15s-.04-.03-.04-.03c.35,0,.71-.02,1.06-.02-.34.15-.68.15-1.03.05Z" style="fill: #7eb2fd;"/>
  <path d="m86.9,92.28c-.19,0-.25-.11-.26-.27.09.09.18.18.26.27Z" style="fill: #fcecdc;"/>
  <path d="m84.25,92.09c.1,0,.21,0,.31,0-.1.15-.21.16-.31,0Z" style="fill: #7eb2fd;"/>
  <path d="m156.27,127.82c-.03,1.91-.07,3.83-.07,5.74,0,.7-.17,1.16-.86.6-2.24-1.83-4.4-1.61-6.61.03-.25.19-.85.62-.82-.24.07-2.07-.25-4.15.18-6.21,2.73.03,5.45.05,8.18.08Z" style="fill: #fa9747;"/>
  <path d="m156.27,127.82c-2.73-.03-5.45-.05-8.18-.08.4-1.76.94-2.3,2.65-2.36,2.34-.08,4.69-.13,7.32.09-.91.78-1.38,1.55-1.8,2.35Z" style="fill: #ed7e2d;"/>
</svg>