<?xml version="1.0" encoding="UTF-8"?>
<svg id="Layer_1" data-name="Layer 1" xmlns="http://www.w3.org/2000/svg" viewBox="0 0 376.97 80.53">
  <path d="m376.97,29.53c-5.63,1.36-11.27,2.7-16.9,4.09-10.82,2.67-21.61,5.45-32.45,8.03-7.05,1.68-14.01,3.71-21.15,4.98-3.25.58-6.53,1.02-9.81,1.42-6.25.76-12.51.79-18.78.69-3.84-.07-7.67-.51-11.5-.91-9.47-1.01-18.58-3.67-27.78-5.89-7.13-1.72-14.23-3.52-21.35-5.28-6.75-1.67-13.51-3.34-20.27-5-6.72-1.66-13.43-3.3-20.15-4.96-7.12-1.76-14.23-3.53-21.35-5.28-6.72-1.66-13.42-3.35-20.15-4.95-5.4-1.28-10.73-2.84-16.19-3.82-3.9-.7-7.82-1.28-11.78-1.63-3.14-.28-6.31-.24-9.43-.55-3.55-.35-7.07-.01-10.56.16-9.94.5-19.66,2.51-29.3,4.98-14.52,3.72-29.1,7.24-43.65,10.83-4.02.99-8.05,1.95-12.07,2.95-.41.1-.81.14-1.23.14-.52,0-.89-.26-1.05-.73-.16-.51-.07-1.02.42-1.32.31-.19.66-.34,1.02-.43,6.71-1.67,13.43-3.33,20.14-4.99,9.57-2.36,19.13-4.76,28.72-7.07,7.24-1.75,14.42-3.79,21.76-5.09,3.46-.61,6.94-1.05,10.44-1.38,3.35-.31,6.7-.38,10.06-.52,4.77-.2,9.5.19,14.25.5,10.69.7,20.94,3.59,31.26,6.13,13.55,3.33,27.1,6.7,40.65,10.05,7.04,1.74,14.08,3.46,21.11,5.2,13.87,3.43,27.73,6.9,41.62,10.27,6.19,1.5,12.34,3.24,18.63,4.29,3.58.59,7.2,1.02,10.82,1.39,5.6.58,11.21.49,16.81.41,3.59-.05,7.17-.5,10.75-.89,8.06-.88,15.84-3,23.67-4.93,7.04-1.73,14.08-3.46,21.11-5.2,10.65-2.63,21.31-5.27,31.96-7.9.56-.14,1.12-.28,1.69-.03v2.25Z"/>
  <path d="m376.97,61.26c-3.22.78-6.44,1.55-9.66,2.34-13.43,3.31-26.86,6.66-40.3,9.92-6.84,1.66-13.61,3.6-20.55,4.85-3.25.58-6.53,1.01-9.81,1.42-6.62.83-13.26.8-19.9.67-3.42-.07-6.84-.51-10.25-.88-9.84-1.07-19.31-3.83-28.88-6.16-13.56-3.31-27.1-6.69-40.65-10.04-7.04-1.74-14.08-3.46-21.12-5.2-13.87-3.43-27.74-6.87-41.62-10.28-4.62-1.14-9.24-2.33-13.9-3.27-4.33-.87-8.7-1.52-13.12-1.89-3.1-.26-6.23-.23-9.3-.54-3.47-.35-6.9,0-10.31.16-6.85.32-13.67,1.19-20.36,2.81-11.11,2.69-22.21,5.43-33.31,8.16-10.54,2.59-21.07,5.19-31.61,7.79-.28.07-.57.12-.85.14-.69.06-1.27-.11-1.42-.89-.15-.74.26-1.23.92-1.43,1.11-.34,2.23-.62,3.36-.9,8.25-2.03,16.49-4.05,24.74-6.08,11.9-2.93,23.79-5.92,35.71-8.8,5.14-1.24,10.36-2.12,15.63-2.67,4.05-.43,8.1-.56,12.15-.8,3.25-.19,6.47.06,9.69.16,4.24.13,8.47.7,12.69,1.32,8.22,1.2,16.18,3.49,24.22,5.45,13.88,3.38,27.75,6.85,41.62,10.28,6.72,1.66,13.43,3.3,20.15,4.96,13.87,3.43,27.74,6.9,41.62,10.27,5.83,1.42,11.62,3.03,17.55,4.02,3.5.58,7.03,1.02,10.57,1.39,5.43.57,10.87.48,16.31.44,3.89-.03,7.75-.51,11.62-.92,7.65-.82,15.04-2.79,22.47-4.62,13.88-3.41,27.75-6.86,41.62-10.29,4.1-1.01,8.21-2.01,12.31-3.03.67-.17,1.33-.07,1.99-.11v2.25Z"/>
  <path d="m376.97,45.52c-2.46.19-4.77,1.02-7.14,1.6-14.24,3.49-28.46,7.09-42.71,10.53-7.12,1.72-14.18,3.73-21.41,4.98-3.42.59-6.85,1.08-10.31,1.41-5.17.5-10.35.89-15.53.68-5.41-.22-10.81-.62-16.19-1.38-9.05-1.28-17.8-3.82-26.65-5.94-7.13-1.71-14.23-3.52-21.35-5.27-6.72-1.66-13.43-3.3-20.15-4.96-13.83-3.41-27.67-6.83-41.5-10.24-10.17-2.51-20.34-5.06-30.53-7.48-4.18-.99-8.43-1.64-12.7-2.19-6.94-.89-13.9-1.19-20.87-.92-5.7.22-11.38.77-17,1.85-12.98,2.5-25.7,6.1-38.54,9.18-10.79,2.59-21.56,5.27-32.33,7.97-1.01.25-1.73.09-1.98-.84-.27-1,.55-1.36,1.37-1.56,4.54-1.13,9.08-2.25,13.63-3.37,11.62-2.87,23.23-5.8,34.87-8.6,6.68-1.61,13.3-3.49,20.05-4.78,3.73-.72,7.49-1.24,11.28-1.66,5.91-.65,11.84-.9,17.78-.69,5.08.18,10.14.67,15.19,1.38,8.27,1.16,16.27,3.45,24.35,5.41,13.56,3.3,27.1,6.69,40.65,10.04,7.04,1.74,14.08,3.46,21.12,5.2,13.87,3.43,27.73,6.91,41.62,10.27,5.27,1.27,10.49,2.76,15.84,3.72,3.9.71,7.81,1.32,11.77,1.71,5.38.53,10.76.9,16.15.68,5.12-.21,10.24-.55,15.32-1.36,14.18-2.26,27.91-6.42,41.84-9.72,10.76-2.55,21.48-5.26,32.22-7.91.62-.15,1.22-.23,1.85-.22v2.5Z"/>
  <path d="m376.97,53.52c-2.56.09-4.94,1.01-7.39,1.6-14.24,3.48-28.46,7.09-42.71,10.53-7.12,1.72-14.18,3.73-21.41,4.98-3.62.62-7.28,1.03-10.94,1.44-4.09.46-8.2.64-12.28.6-5.45-.05-10.9-.41-16.34-1.08-9.12-1.13-17.93-3.57-26.8-5.76-14.48-3.57-28.96-7.15-43.43-10.72-6.72-1.66-13.43-3.31-20.15-4.96-7.08-1.75-14.16-3.5-21.23-5.24-10.18-2.51-20.34-5.05-30.53-7.49-4.82-1.16-9.74-1.81-14.67-2.43-6.87-.88-13.77-.9-20.65-.64-7.02.26-14.01,1.16-20.87,2.81-11.16,2.68-22.29,5.46-33.43,8.2-10.54,2.59-21.07,5.19-31.61,7.79-.04,0-.08.04-.12.04-.87.05-2.02.51-2.31-.74-.27-1.18.75-1.45,1.69-1.68,9.21-2.26,18.42-4.55,27.63-6.82,11.86-2.93,23.72-5.89,35.59-8.76,4.5-1.09,9.07-1.8,13.67-2.43,7.39-1.01,14.82-1.15,22.24-.91,5.11.17,10.21.79,15.28,1.6,7.67,1.22,15.12,3.34,22.63,5.17,13.89,3.37,27.75,6.85,41.62,10.27,13.51,3.34,27.02,6.67,40.54,10.01,7.08,1.75,14.14,3.55,21.24,5.22,5.36,1.26,10.65,2.82,16.08,3.78,4.03.71,8.08,1.27,12.15,1.67,4.26.42,8.53.69,12.78.62,4.54-.07,9.09-.37,13.63-.84,8.31-.87,16.37-2.89,24.44-4.89,13.87-3.43,27.75-6.86,41.62-10.29,4.1-1.01,8.21-2.01,12.31-3.03.58-.15,1.16-.07,1.74-.11v2.5Z"/>
  <path d="m376.97,37.53c-2.64.36-5.16,1.19-7.74,1.8-7.13,1.71-14.24,3.5-21.36,5.26-11.9,2.94-23.79,5.93-35.71,8.8-4.58,1.1-9.22,1.93-13.92,2.41-3.05.31-6.1.54-9.15.78-3.62.28-7.24.27-10.84.15-4.99-.18-9.98-.64-14.94-1.35-9-1.3-17.71-3.84-26.52-5.96-7.13-1.71-14.23-3.52-21.35-5.27-6.72-1.66-13.43-3.3-20.15-4.96-7.12-1.76-14.23-3.53-21.35-5.28-6.72-1.66-13.43-3.31-20.15-4.96-10.21-2.52-20.41-5.1-30.65-7.52-4.22-1-8.51-1.7-12.83-2.15-3.25-.34-6.51-.55-9.77-.79-2.96-.21-5.91-.27-8.84-.14-5.12.22-10.24.55-15.31,1.36-14.14,2.24-27.83,6.4-41.72,9.68-10.88,2.57-21.72,5.32-32.57,8.02-1,.25-1.76.03-2-.88-.25-.95.53-1.32,1.38-1.53,9.53-2.35,19.05-4.74,28.58-7.09,6.67-1.65,13.35-3.31,20.03-4.91,7.25-1.73,14.42-3.79,21.76-5.09,3.42-.6,6.85-1.07,10.31-1.4,5.21-.49,10.43-.89,15.65-.67,5.32.22,10.64.63,15.94,1.37,8.35,1.17,16.44,3.43,24.6,5.42,13.56,3.31,27.1,6.69,40.65,10.04,7.04,1.74,14.08,3.46,21.11,5.2,13.87,3.43,27.73,6.9,41.62,10.27,5.79,1.41,11.54,3.03,17.41,4.05,3.29.57,6.61,1.01,9.94,1.39,5.96.67,11.93.85,17.9.66,5.37-.17,10.73-.65,16.03-1.6,13.55-2.42,26.76-6.27,40.12-9.47,10.79-2.59,21.56-5.28,32.34-7.94.49-.12.97-.2,1.47-.19v2.5Z"/>
  <path d="m376.97,21.54c-9.61,2.38-19.21,4.77-28.82,7.15-6.67,1.65-13.34,3.33-20.04,4.9-7.09,1.66-14.09,3.72-21.27,5.03-4.03.73-8.07,1.32-12.15,1.69-3.27.3-6.55.27-9.8.54-3.21.27-6.4,0-9.56-.15-7.35-.34-14.66-1.29-21.83-3.05-12.83-3.14-25.66-6.32-38.48-9.48-13.83-3.41-27.66-6.83-41.5-10.24-13.51-3.34-27.01-6.7-40.53-9.99-5.71-1.39-11.38-2.95-17.2-3.81-2.98-.44-5.98-.77-8.98-1.11-5.93-.66-11.87-.49-17.81-.42-3.3.04-6.59.44-9.88.87-14.59,1.87-28.59,6.35-42.86,9.65-7.18,1.66-14.32,3.53-21.47,5.3-4.06,1-8.12,2-12.19,2.97-.9.21-1.96.6-2.51-.57-.36-.75.39-1.42,1.87-1.78,9.49-2.35,18.98-4.71,28.46-7.05,11.54-2.85,23.07-5.74,34.62-8.53,4.5-1.09,9.07-1.8,13.67-2.43C86.1,0,93.53-.13,100.95.1c5.53.17,11.06.75,16.5,1.81,13.7,2.67,27.15,6.44,40.71,9.73,13.89,3.37,27.74,6.85,41.62,10.28,6.68,1.65,13.36,3.27,20.03,4.92,7.08,1.74,14.15,3.51,21.23,5.24,5.35,1.31,10.68,2.68,16.07,3.83,3.55.76,7.15,1.28,10.78,1.66,3.88.41,7.77.51,11.65.81,3.43.26,6.81-.06,10.19-.17,5.2-.16,10.39-.79,15.5-1.8,12.92-2.56,25.61-6.12,38.41-9.21,10.43-2.52,20.84-5.1,31.25-7.69.7-.17,1.39-.21,2.1-.21v2.25Z"/>
</svg>