<?xml version="1.0" encoding="UTF-8"?>
<svg id="Layer_1" data-name="Layer 1" xmlns="http://www.w3.org/2000/svg" viewBox="0 0 307.35 252.49">
  <path d="m33.98,198.03c-1.99-5.02-3.96-10.06-5.97-15.07C18.76,159.92,9.51,136.89.23,113.86c-.42-1.04-.29-1.57.7-2.18,22.12-13.6,44.22-27.23,66.31-40.87,3.51-2.17,8.77-1.14,10.44,2.79.66,1.59,1.32,3.19,2,4.78.96,2.22,1.63,4.56,2.81,6.69.91,2.86,2.1,5.61,3.33,8.35.1.27.2.54.29.81.14.36.29.71.43,1.07.11.25.21.5.32.75.91,2.3,1.82,4.61,2.73,6.91.11.23.23.46.34.7.18,1,.68,1.87,1.07,2.79.12.26.24.53.35.79.73,2.15,1.58,4.26,2.52,6.33.1.23.2.45.29.68.25.98.63,1.91,1.12,2.79l.3.74c.26.96.63,1.88,1.1,2.75.09.25.18.49.27.74,1.89,4.93,3.81,9.85,5.94,14.68,0,.3.11.56.29.79.26,1.01.64,1.96,1.15,2.86.1.24.21.49.31.73.24,1.04.69,2,1.16,2.95.1.25.2.49.3.74.26.74.53,1.48.79,2.22-.5.02-.99.04-1.49.05-5.56,0-11.13.02-16.69.02-.21-.97-.36-1.96-.64-2.91-1.23-4.26-5.08-7.26-9.43-7.08-6.95.28-11.3,4.18-11.7,11.43-1.02.68-1.12,1.71-1.05,2.8-1.42,2.39-3.05,4.56-5.21,6.4-2.09,1.77-1.99,3.92-.1,5.84.61.62.77,1.25.67,2.12-.22,1.81-.02,3.52,1.95,4.4-.79,1.48-1.59,2.96-2.38,4.45-.2.38-.56.76-.1,1.2-.96,2.04-1.44,4.18-1.58,6.44-.19,3.15.44,6.15,1.37,9.12-.35.18-.84.2-.76.81.49,3.77.98,7.55,1.46,11.32.09.67.46.93,1.12.81.3.27.6.55.89.82-.06.57.16.85.76.73.47-.09.94-.19,1.41-.29.2,3.45-.42,6.86-.51,10.3-2.23,0-4.46,0-6.69,0-.2-.31-.37-.66-.62-.92-4.01-4.24-8.38-8.05-13.4-11.08-2.8-1.69-2.76-1.68-3.03,1.69-.15,1.88-.46,3.74-.71,5.68-.4-.24-.43-.55-.54-.81-1.32-3.18-2.7-6.34-3.92-9.56-.4-1.05-1.02-1.63-2-1.97Zm-13.48-59.82c.2-.1.5-.23.8-.39,3.72-1.94,7.46-3.85,11.15-5.83,6.03-3.24,12.1-6.42,18.16-9.62,6.76-3.58,13.5-7.2,20.29-10.72,1.48-.77,2.94-1.56,4.41-2.33.74-.39.98-.75.5-1.65-2.18-4.16-4.27-8.36-6.34-12.58-.42-.86-.88-.96-1.65-.52-5.03,2.9-10.07,5.8-15.12,8.68-4.32,2.47-8.67,4.92-12.99,7.39-4.32,2.47-8.63,4.97-12.95,7.45-4,2.3-7.99,4.59-11.99,6.87-.47.27-.69.55-.43,1.1,1.82,3.87,3.63,7.76,5.45,11.63.12.25.23.56.73.51Z" style="fill: #feb546;"/>
  <path d="m277.13,184.76c.22,2.89.6,5.77.98,8.64.26,1.95.32,3.92.55,5.88.27,2.3.64,4.59.93,6.89.22,1.74.37,3.5.57,5.24.31,2.63.66,5.26.97,7.9.2,1.75.36,3.5.55,5.25.25,2.35.5,4.71.77,7.06.22,1.99.46,3.97.71,5.96.31,2.47.65,4.93.96,7.4.04.28.14.58-.08.84-2.18.58-4.38.65-6.59.19-.76-2.66-1.48-5.33-2.28-7.97-1.64-5.41-3.34-10.8-4.97-16.21-1.46-4.84-2.87-9.71-4.3-14.56-.94-3.19-1.87-6.37-2.82-9.56-.54-1.8-1.11-3.59-1.63-5.39-.28-.97-1.08-1.37-1.87-1.25-.67.1-.58.95-.65,1.6-.27,2.69-.54,5.38-.85,8.06-.28,2.42-.52,4.85-.85,7.27-.14,1.5-.28,3-.42,4.5-.12.85-.23,1.69-.35,2.54-.17.75-.27,1.51-.31,2.29-.1,1.75-.31,3.5-.52,5.24-.3,2.47-.75,4.92-.91,7.4-.13,1.96-.46,3.89-.6,5.85-.25,3.33-.8,6.64-1.23,9.95-2.23.28-4.45.51-6.62-.35-.63-.43-.21-1.09-.37-1.63.22-.52-.24-.93-.23-1.43.03-4.01-.49-7.98-.73-11.98-.21-3.42-.36-6.85-.52-10.27-.02-.55-.11-1.06-.28-1.57.1-1.16.1-2.32-.03-3.48-.06-.86-.12-1.71-.18-2.57-.08-2.18-.39-4.35-.44-6.52-.14-5.61-.59-11.21-.74-16.81-.07-2.37-.11-4.77-.04-7.15.8.31,1.61.6,2.39.94,1.86.79,1.86.8,2.19-1.1.05-.28.1-.56.15-.85,5.95,2.41,12.09,3.45,18.49,2.5.06,1.76.15,1.8,1.91,1.99,3.16.35,6.25-.06,9.33-.75Z" style="fill: #08095b;"/>
  <path d="m90.99,106.44c-.38-.92-.89-1.79-1.07-2.79,7.59-1.98,15.18-3.95,22.76-5.94.3-.08.76-.11.67-.57-.12-.57-.56-.32-.91-.23-7.62,2.01-15.24,4.03-22.86,6.04-.91-2.3-1.82-4.61-2.73-6.91,3.86-1.02,7.71-2.04,11.56-3.06.33-.09.86-.1.66-.66-.16-.44-.55-.22-.86-.14-3.89,1.04-7.79,2.08-11.68,3.11-.14-.36-.29-.71-.43-1.07,6.18-1.65,12.35-3.29,18.53-4.94.16-.04.33-.05.49-.11.27-.09.61-.15.52-.56-.09-.42-.41-.33-.69-.27-.28.06-.56.14-.85.21-6.1,1.61-12.2,3.23-18.3,4.84-1.23-2.74-2.43-5.48-3.33-8.35,1.73-.44,3.47-.85,5.19-1.33,3.55-1,7.18-1.73,10.67-2.94,2.65-.65,5.31-1.28,7.95-1.96,3.29-.84,6.58-1.69,9.85-2.62.86-.24,1.09.04,1.29.78.3,1.11.34,2.3,1,3.3-.03.38.04.73.14,1.1,1.5,5.64,2.99,11.28,4.48,16.92,1.1,4.15,2.21,8.3,3.32,12.46.26,1.65-.24,3.34.26,4.98-.08.03-.16.07-.23.1-.3,0-.6-.01-.91-.02-.44,0-.87,0-1.31,0-2.02-.02-4.04-.05-6.07-.07.21-.87-.25-.87-.89-.7-6.84,1.82-13.69,3.64-20.54,5.46-.47-.87-.84-1.79-1.1-2.75.4-.11.8-.23,1.2-.33,6.54-1.73,13.08-3.45,19.62-5.18.34-.09.86-.09.74-.62-.14-.57-.6-.25-.92-.17-1.37.35-2.73.71-4.09,1.07-5.61,1.5-11.22,2.99-16.84,4.49-.49-.88-.87-1.81-1.12-2.79,2.53-.67,5.06-1.33,7.58-2,4.53-1.2,9.07-2.39,13.6-3.6.31-.08.91-.02.8-.56-.12-.65-.67-.23-1.03-.23-.2,0-.4.12-.6.17-3.53.93-7.07,1.84-10.6,2.78-3.36.9-6.71,1.84-10.06,2.76-.94-2.07-1.79-4.17-2.52-6.33,1.84-.5,3.69-1,5.53-1.48,5.54-1.46,11.09-2.91,16.62-4.38.31-.08.92,0,.82-.54-.12-.62-.67-.27-1.04-.25-.16,0-.31.1-.47.14-7.27,1.91-14.54,3.82-21.81,5.72Z" style="fill: #daeef7;"/>
  <path d="m286.85,248.47c.41.44.94.26,1.42.26,4.29.01,8.58,0,12.87,0,1.55,0,2,.43,2,1.86,0,1.38-.51,1.86-2.01,1.89-.17,0-.33,0-.5,0-94.14,0-188.28,0-282.41,0-2,0-2.61-.49-2.53-2.03.06-1.19.58-1.71,1.81-1.72,2.54-.01,5.08,0,7.62-.01.44,0,.92.14,1.32-.2.53.06,1.06.16,1.58.16,2.6.02,5.19.01,7.79.01.62,0,1.24,0,1.86.01,1.71,0,3.41-.01,5.12-.02,5.03-.02,10.06-.04,15.1-.07.68.01,1.36.02,2.04.03.31.23.65.31,1.04.31,2.57-.01,5.14-.01,7.71,0,.39,0,.74-.05,1.04-.31,5.48,0,10.96,0,16.44,0,.37.19.75.31,1.18.31,2.57-.02,5.14,0,7.7,0,.34,0,.66,0,.91-.29,6.25,0,12.49.02,18.74.02,2.58,0,5.16-.04,7.74-.06h.99c.37.02.74.06,1.12.06,13.88,0,27.76,0,41.64,0,.41,0,.83-.05,1.24-.07.54.03,1.08.07,1.62.07,22.54,0,45.08,0,67.61,0,2.12,0,4.25,0,6.37,0,3.25,0,6.5-.02,9.76-.03,8.33.01,16.67.02,25,.03,2.55,0,5.1,0,7.65,0,.49,0,.99.08,1.43-.24Z" style="fill: #c5e0e8;"/>
  <path d="m178.68,68.82c.66-.81,1.44-.84,2.44-.65,2.12.41,4.25.75,6.28,1.54.63.25,1.21.55,1.58,1.15,1.16,1.87,2.16,3.83,2.92,5.9-.16,0-.32,0-.48,0-.35-.33-.85-.23-1.25-.43-.94-.47-1.04-.02-.86.76-.43-.07-.86-.14-1.42-.23,0,.66,0,1.29,0,1.93-.49-.09-1.01-.11-1.46-.28-1.18-.45-1.35.04-1.34,1.12.05,5.54.03,11.08.03,16.61-1.82.13-3.63-.13-5.45-.22-.08-.71-.41-1.01-1.19-1.08-3.21-.3-6.44-.43-9.61-1.09-.98-.29-1.96-.51-2.99-.48.99.44,1.98.8,3.06.86,3.12.62,6.27,1.06,9.45,1.27.71.05.8.42.8.97,0,1,.01,1.99-.01,2.99,0,.43.08.55.44.25.41.03.83,0,1.22.09,1.35.29,2.77-.03,4.09.49.11.54-.4,1.28.5,1.58-.02.07-.04.15-.04.22-2.82.21-5.65.13-8.48.11-.06-.07-.11-.13-.17-.2-.02.07-.04.14-.06.2-.35.12-.71.22-1.04.38-2.95,1.35-6.01,2.25-9.26,2.51-.42-.01-.83-.05-1.25-.04-3.72.11-6.78-1.24-9.18-4.08-1.53-2.43-2.09-5.17-2.56-7.93.01-.46.03-.91.03-1.37.02-2-.2-4.03.09-5.98.47-3.15,1.03-6.31,2.12-9.33.79-2.18,1.75-4.23,3.61-5.74,1.48-1.2,3.25-1.82,4.94-2.61,1.23-.02,2.44-.34,3.63-.55,1.36-.23,2.47,0,3.6.61.54.46,1.19.72,1.85.95,1.82.61,3.65,1.05,5.42-.18Zm-13.53,23.94c.7-1.06.88-2.28.98-3.51.39-2.65.33-5.3-.03-7.96.12-.65-.01-1.25-.39-1.95-.05.73-.21,1.33.1,1.9.12,2.67.19,5.34-.11,8-.18,1.18-.36,2.35-.54,3.53-.26.04-.52.07-.84.12q.72.36.83-.13Z" style="fill: #ff5c7e;"/>
  <path d="m277.13,184.76c-3.07.69-6.16,1.11-9.33.75-1.76-.2-1.85-.23-1.91-1.99-.17-.89-.45-1.78-.48-2.68-.1-4.28-.22-8.56-.17-12.84.05-4.86.28-9.72.42-14.58.09-3.03.06-6.07.28-9.1.21-2.85.53-5.69.41-8.56.06-.06.1-.14.17-.17,7.85-2.63,13.77-10.5,14.08-18.7.18-4.98.15-9.96-.22-14.94-.06-.86.17-1.44,1.07-1.62,1.26-.25,2.45-.72,3.65-1.15.69-.13.61.5.68.81.88,4.05,1.79,8.08,2.15,12.24.31,3.59.69,7.17.61,10.78-.13,5.86-2.3,11.01-5.45,15.83-2.06,3.15-4.46,6.02-7.17,8.62-.54-.57-1.2-.11-1.79-.19-.17-.08-.34-.16-.5-.24-.02-.02-.05-.04-.07-.06.03.02.06.03.08.05.17.08.34.16.5.24.39.46.92.51,1.47.51.1,3.11.95,6.1,1.54,9.13.92,4.74,1.96,9.46,3.19,14.14.08.77.18,1.53.55,2.23.32,2.3,1.01,4.52,1.55,6.77.16.67.09,1.38.43,2.04.28.53-.25.68-.62.85-1.66.77-3.4,1.3-5.14,1.85Zm-2.5-38.24c-.04-.06,0-.3-.18-.1.07.03.13.05.2.08.01.09-.05.26.15.14-.06-.04-.11-.08-.17-.12Z" style="fill: #56779f;"/>
  <path d="m247.4,181.01c-.05.28-.1.56-.15.85-.33,1.9-.33,1.89-2.19,1.1-.79-.34-1.6-.63-2.39-.94-1.66-.85-3.33-1.71-4.99-2.56-.21-.75-.83-.41-1.26-.41-20.01-.02-40.02-.01-60.03-.01,0-.25,0-.5,0-.75.14-.38.7-.34.78-.79h-.02c.2-.03.44.01.52-.25h-.02c.18-.07.35-.15.53-.24.26-.32.6-.47,1-.53.09.26.3.27.52.23,9.15-.08,18.31.25,27.47-.19.18.21.43.22.68.22,4.94-.01,9.89-.02,14.83-.03,3.74,0,7.48,0,11.21-.01.21,0,.42.01.63.02.94,0,1.87-.02,2.81.03.67.03.99-.24,1-.9.66-2.99,1.27-5.99,2-8.96,1.34-5.42,2.74-10.83,4.12-16.24.5-1.41.9-2.85,1.18-4.31.24-.59.49-1.18.5-1.83.18-.65.37-1.29.55-1.94.56-.22,1.26,0,1.7-.58.2-.01.41-.02.51-.24.09-.04.18-.07.27-.11-.03,0-.07-.03-.09-.02-.06.04-.11.1-.17.15-.17.08-.34.16-.51.24-.79.09-.25-.43-.25-.66-.61.09-.84.85-1.52.7-2.05-4.54-3.07-9.29-3.06-14.28,0-3.21.28-6.37,1-9.5.03-.18.06-.35.09-.53.33-.6.45-1.26.54-1.93,2.29-7.03,5.86-13.35,10.53-19.06.39-.48.71-.95,1.39-.46.99.87,2.15,1.48,3.24,2.19.45.27.45.64.24,1.06-.25.52-.5,1.05-.73,1.58-1.07,2.51-2.38,4.92-3.03,7.6-.75.44-1.62.81-.86,1.96.31.46-.19.62-.46.85-.86.73-1.59,1.52-.88,2.76-.07.5-.15,1-.22,1.5-.24.63-.36,1.28-.38,1.94-.19.43-.19.88-.14,1.34-.54,1.03-.65,2.1-.23,3.2-.06.49-.16.98-.18,1.48-.16,4.06.63,7.81,3.63,10.81.02.15.04.3.06.45-1,2.06-1.61,4.27-2.27,6.45-3.24,10.68-5.76,21.52-6.9,32.64-.23,2.3-.77,4.58-.62,6.92Z" style="fill: #56779f;"/>
  <path d="m35.81,248.71c-2.6,0-5.19,0-7.79-.01-.53,0-1.06-.11-1.58-.16-1.33-.58-2.65-1.2-4-1.74-.67-.27-.72-.61-.46-1.22.55-1.28,1.03-2.6,1.67-4.26-1.8,1.01-3.28,1.82-4.72,2.68-.57.34-1.01.35-1.59-.02-4.98-3.22-9.33-7.11-12.92-11.83-.18-.23-.84-.6-.01-.9,2.9-.16,5.79-.4,8.69-.47,4.61-.11,9.21.07,13.81.47,2.48.21,4.97.26,7.43.57,4.63.58,9.25,1.27,13.87,1.95,5.28.77,10.5,1.88,15.71,3,0,.8-.02,1.61-.03,2.41-.16.38-.33.75-.47,1.13-.91,2.51-2.23,4.72-4.52,6.23-.12.08-.24.15-.36.23-1.22.27-.4,1.27-.67,1.89-5.03.02-10.06.04-15.1.07-1.71,0-3.41.01-5.12.02-.27-.77-.54-1.54-.88-2.52-.39.99-.69,1.75-.99,2.51Z" style="fill: #e03268;"/>
  <path d="m126.62,115.75c-.5-1.64,0-3.33-.26-4.98,0-8.01,1.03-15.86,3.54-23.5.82-1.99,1.67-3.98,2.46-5.99.32-.81.59-.95,1.22-.22,1.4,1.65,2.86,3.24,4.32,4.84.26.29.44.72.97.79.18-1.03-.33-1.95-.55-2.86-.7-2.89-1.06-5.86-2.08-8.67-.13-.36-.08-.68.17-1.03,6.43-9.26,15.01-15.76,25.41-19.95.09.26,0,.47-.13.7-1.03,1.75-2.03,3.52-3.09,5.25-4.4,7.23-8.33,14.71-12.22,22.23-2.8,5.42-5.36,10.96-7.79,16.56-2.39,5.52-4.66,11.07-6.43,16.83-.93.03-1.87.07-2.8.1-.65,0-1.3,0-1.94,0l-.79-.1Z" style="fill: #03ccc0;"/>
  <path d="m33.98,198.03c.98.34,1.6.92,2,1.97,1.22,3.22,2.61,6.37,3.92,9.56.11.26.14.57.54.81.25-1.94.56-3.8.71-5.68.26-3.37.23-3.38,3.03-1.69,5.01,3.03,9.39,6.83,13.4,11.08.25.27.42.61.62.92-.28.78-.83,1.61.44,2.06.03.12.01.28.08.35,2.98,2.84,4.68,6.39,5.67,10.32.18,1.11-.02,2.19-.24,3.26-.27,0-.45-.16-.66-.31-2.28-1.66-4.53-3.36-6.85-4.95-8.34-5.69-17.09-10.7-26.03-15.37-6.22-3.25-12.55-6.32-18.9-9.32-3.03-1.43-6.06-2.91-9.22-4.04,1.75-.81,3.67-.95,5.52-1.18,3.03-.38,6.08-.7,9.15-.61,5.36.15,10.64.81,15.75,2.52.35.12.72.2,1.08.29Z" style="fill: #ff5c7e;"/>
  <path d="m2.48,197.01c3.17,1.14,6.19,2.61,9.22,4.04,6.35,3,12.67,6.07,18.9,9.32,8.94,4.67,17.69,9.67,26.03,15.37,2.33,1.59,4.58,3.29,6.85,4.95.21.15.39.31.66.31,0,.34,0,.67,0,1.01-2.98-1.35-5.92-2.8-9-3.93-8.06-2.97-16.32-4.69-24.95-4.35-.75.03-1.05.24-1.01,1.01.05,1.08.01,2.16,0,3.25,0,.33-.07.73-.39.86-.36.15-.45-.29-.62-.49-1.02-1.2-2.02-2.42-3-3.65-.33-.42-.61-.59-1.23-.53-1.86.17-3.62.92-5.51.84-1.53-1.87-2.8-3.93-4.15-5.92-.46-.67-.41-1.1.19-1.69,2.12-2.05,4.09-4.23,5.91-6.86-1.43,0-2.87,0-4.3,0-2-.01-4-.05-6-.06-.53,0-.92-.11-1.21-.65-2.23-4.09-4.33-8.25-6.36-12.45-.05-.1-.02-.24-.03-.36Z" style="fill: #e03268;"/>
  <path d="m132.16,115.75c1.76-5.75,4.04-11.31,6.43-16.83,2.43-5.6,4.99-11.14,7.79-16.56,3.88-7.51,7.81-15,12.22-22.23,1.06-1.73,2.05-3.5,3.09-5.25.14-.23.23-.44.13-.7,0,0,.03.01.03.01.13.02.26.03.4.05.83,4.56,1.66,9.11,1.94,13.75-1.68.8-3.46,1.41-4.94,2.61-1.86,1.51-2.82,3.55-3.61,5.74-1.09,3.03-1.65,6.18-2.12,9.33-.29,1.96-.08,3.99-.09,5.98,0,.46-.02.91-.03,1.37-2.65,1.59-4.91,3.68-7.1,5.8-4,3.87-7.47,8.21-10.42,12.93-.8,1.28-1.89,2.42-2.19,3.99h-1.5Z" style="fill: #07bfad;"/>
  <path d="m18.42,225.01c1.89.07,3.65-.67,5.51-.84.62-.06.89.11,1.23.53.98,1.24,1.98,2.45,3,3.65.17.2.25.64.62.49.32-.13.38-.53.39-.86.02-1.08.05-2.17,0-3.25-.03-.77.27-.98,1.01-1.01,8.63-.35,16.89,1.38,24.95,4.35,3.08,1.14,6.02,2.59,9,3.93.02,1.59.26,3.18-.2,4.75-5.22-1.12-10.43-2.23-15.71-3-4.62-.68-9.24-1.37-13.87-1.95-2.46-.31-4.96-.36-7.43-.57-4.6-.4-9.2-.58-13.81-.47-2.9.07-5.79.31-8.69.47,3.82-2.49,8-4.19,12.34-5.52.57-.17,1.27-.12,1.66-.71Z" style="fill: #ff5c7e;"/>
  <path d="m206.65,102.51c5.67-.5,9.47,2.19,11.86,7.11.77,1.59,1.22,3.33,1.4,5.12.04.36.19.7.28,1.05-.05.65-.01,1.3.19,1.93,0,.52,0,1.03.01,1.55-.16,3.77-.66,7.49-1.45,11.18-.87,4.03-1.98,7.98-3.6,11.78-1.78-.09-3.55-.18-5.33-.27-.12-1.47-.11-2.97-.39-4.42-.33-1.66.08-3.37-.49-4.98.31-1.79.62-3.57.92-5.36.69-4.19.93-8.4.33-12.61-.56-3.88-2.02-7.34-5.25-9.82.49-.76.63-1.76,1.52-2.25Z" style="fill: #08095b;"/>
  <path d="m178.68,68.82c-1.77,1.23-3.6.8-5.42.18-.66-.22-1.31-.48-1.85-.95.03-.99.01-1.99.13-2.97.06-.52-.18-.78-.48-1.05-1.3-1.2-2.02-2.72-2.34-4.41-.13-.7-.37-.85-1.02-.86-1.2-.03-2.07-.84-2.24-2.08-.15-1.1.09-2.08,1.33-2.46,1.52.17,1.9.52,1.86,1.88-.02.59.04,1.13.62,1.35.55.21,1.03-.17,1.41-.52.43-.39.6-.93.76-1.52.5-1.9.49-3.85.48-5.83,1.49.56,2.82,1.12,4.19,1.57.72.23,1.76.41,1.99-.49.25-1.04.62-.45.98-.27,1.36.69,2.64,1.52,4.14,1.91.62.16.92.5,1.01,1.26.08.71-.07,1.53.43,2.18.86.18,1.3.72,1.26,1.59-.04,1.06-.55,1.89-1.58,2.14-.66.16-.87.48-1.04,1.03-.72,2.36-2.22,4.04-4.49,5.01-.28.12-.67.24-.57.55.29.91-.11,1.92.45,2.77Zm1.09-14.62c1.06.45,2.35.22,3.24,1.19-.61-1.69-1.95-1.37-3.24-1.19Zm-3.75-.27c-1.23-.99-2.03-.95-3.48.24,1.32-.29,2.4-.61,3.48-.24Zm-.61,1.66c-.04-.44-.32-.69-.73-.68-.42.01-.7.29-.69.72,0,.43.27.68.73.66.44-.02.68-.26.7-.71Zm4.65.78c.08.42.32.68.76.64.45-.04.65-.33.61-.76-.03-.44-.3-.69-.73-.65-.42.04-.62.35-.64.77Z" style="fill: #febfba;"/>
  <path d="m206.65,102.51c-.89.49-1.03,1.49-1.52,2.25-1,1.22-2.9,1.41-4.98.51,0-7.29,0-14.59.02-21.88,0-.48-.18-1.01.26-1.41,1.32.73,2.63-.16,3.95-.03.15.02.38-.29.5-.49.53-.92,1.18-1.78,1.55-2.79.75-1.22,1.49-2.43,2.24-3.65.12,0,.23.02.35.03.02,7.42.03,14.85.05,22.27,0,.58-.32,1.01-.55,1.49-.59,1.25-1.66,2.26-1.88,3.7Z" style="fill: #294d7a;"/>
  <path d="m98.34,80.8c-3.5,1.2-7.12,1.94-10.67,2.94-1.72.48-3.46.89-5.19,1.33-1.18-2.13-1.85-4.46-2.81-6.68-.68-1.59-1.33-3.18-2-4.78,2.68-.65,5.11-1.95,7.67-2.9,1.33-.49,2.62-.9,4.08-.98,2.43-.13,5.14,1.73,6.05,4.04.92,2.36,1.91,4.69,2.87,7.04Z" style="fill: #f4a641;"/>
  <path d="m184.66,55.74c-.5-.65-.35-1.47-.43-2.18-.09-.77-.39-1.1-1.01-1.26-1.5-.39-2.78-1.23-4.14-1.91-.35-.18-.72-.77-.98.27-.22.91-1.26.73-1.99.49-1.37-.45-2.7-1-4.19-1.57.01,1.98.02,3.93-.48,5.83-.15.58-.33,1.12-.76,1.52-.38.35-.87.73-1.41.52-.57-.22-.63-.76-.62-1.35.04-1.37-.34-1.71-1.86-1.88-.21-.91-.54-1.82-.61-2.74-.18-2.26.44-4.3,2.07-5.96.22-.23.78-.4.07-.79-.4-.22-.04-.53.19-.66.46-.25.95-.44,1.46-.67,0,0,.02-.07-.01-.11-.29-.42-1.2-.74-.53-1.36.5-.45,1.32-.01,1.6.43.56.9,1.13.65,1.87.39,2.64-.91,5.22-.23,7.79.41,1.88.47,3.6,1.26,5.02,2.59.42.4,1.4.93.07,1.55-.42.2.04.45.17.65.4.58.88,1.12.73,1.91-.04.2.01.53-.09.58-2.3,1.17-1.31,3.52-1.92,5.29Z" style="fill: #08095b;"/>
  <path d="m129.9,87.27c-2.51,7.63-3.55,15.49-3.54,23.5-1.11-4.15-2.22-8.3-3.32-12.46-1.49-5.64-2.98-11.28-4.48-16.92-.1-.37-.17-.72-.14-1.1,2.81-.46,5.63-.86,8.42-1.41,1.12-.22,1.41.1,1.63,1.15.49,2.41.63,4.9,1.44,7.24Z" style="fill: #c5e0e8;"/>
  <path d="m250.89,93.53c1.55-2.09,1.69-4.29.51-6.59,2.6.15,5.2.32,7.75.86,2.97.64,5.98,1.05,8.96,1.66,2.81.58,5.24,1.51,6.52,4.3-.55,1.39-1.98,2.28-3.43,1.97-2.92-.62-5.9-.6-8.85-.97-3.81-.48-7.64-.83-11.46-1.24Z" style="fill: #daeef7;"/>
  <path d="m278.39,89.31c2.52-.04,5.03,0,7.47.75,1.82,1.38,1.55,3.25,1.1,5.09-.34,1.37-1.48,1.92-2.78,2.16-1.27-.13-2.56.09-3.82-.26-1.02-.12-2.03-.24-3.05-.37,2.31-1.23,3.14-2.99,2.54-5.53-.18-.78-.58-1.46-1.47-1.65h0c0-.06,0-.13,0-.2Z" style="fill: #e03268;"/>
  <path d="m220.38,117.72c-.2-.63-.24-1.28-.19-1.93,8.34,0,16.67.02,25.01.03-.09.67-.21,1.33-.54,1.93-8.09,0-16.19-.02-24.28-.02Z" style="fill: #ff5c7e;"/>
  <path d="m206.43,78.67c-.37,1.01-1.01,1.87-1.55,2.79-.12.2-.35.51-.5.49-1.32-.13-2.63.76-3.95.03-.35-.34-.82-.35-1.25-.46-3.77-.92-7.53-1.83-11.3-2.74v-1.93c.57.09,1,.16,1.42.23,1.44.95,3.13,1.3,4.69,1.96,1.7.72,3.46,1.31,5.26,1.8-2.07-1.52-4.56-2.22-6.71-3.59,1.11-.01,2.06.54,3.05.9,2.15.78,4.23,1.72,6.21,2.87,1.18.69,2.09.28,2.58-.99.74-1.93,1.53-3.84,2.35-5.88.5,1.64-.07,3.06-.29,4.51Zm-5.69,2.72c-.21-.43-.52-.42-.91-.27.26.29.51.5.91.27Z" style="fill: #daeef7;"/>
  <path d="m63.87,9.24c-2.92.95-3.98,3.06-4.59,5.8-.76-2.68-1.68-4.98-4.79-5.8,3.09-.82,4.01-3.11,4.78-5.72.68,2.63,1.64,4.78,4.61,5.72Z" style="fill: #feb546;"/>
  <path d="m298.1,151.23c3.1-.96,4.01-3.2,4.66-5.81.67,2.62,1.6,4.87,4.6,5.81-2.93.94-3.91,3.13-4.59,5.81-.68-2.66-1.61-4.88-4.66-5.81Z" style="fill: #ff5c7e;"/>
  <path d="m174.77,11.48c-.76-2.56-1.63-4.85-4.7-5.71,2.98-.96,3.96-3.1,4.67-5.77.71,2.67,1.67,4.86,4.63,5.74-2.93.92-3.95,3.08-4.6,5.74Z" style="fill: #ff5c7e;"/>
  <path d="m259.15,87.81c-2.56-.54-5.15-.71-7.75-.86-.38-.39-.25-.58.25-.56,2.28.09,4.5.62,6.79.71,2.18.08,4.34.53,6.52.65,2.19.12,4.36.47,6.53.74.88.11,1.82-.28,2.66.28,2.46,2.52,2,5.96-1,7.49-3.34-.04-6.62-.74-9.95-.86-1.99-.42-4.04-.35-6.04-.62-2.04-.15-4.07-.58-6.13-.5-.23,0-.53.07-.58-.28-.05-.33.19-.41.45-.45,3.82.41,7.65.77,11.46,1.24,2.94.37,5.93.35,8.85.97,1.46.31,2.89-.58,3.43-1.97.21-.46.25-.96.27-1.46.09-2.24-.67-3.1-2.89-3.3-.86-.08-1.71-.3-2.57-.36-3.43-.23-6.83-.93-10.29-.84Z" style="fill: #ff5c7e;"/>
  <path d="m273.15,96.24c3-1.52,3.46-4.97,1-7.49,1.21-.02,2.41,0,3.55.49.13.37.42.31.71.28h0c-.08.32.15.53.29.78,1.34,2.56.24,5.35-2.48,6.24-1.02-.1-2.03-.2-3.05-.3Z" style="fill: #e03268;"/>
  <path d="m286.85,248.47c-.43.32-.94.24-1.43.24-2.55,0-5.1,0-7.65,0-.75-.82-.27-1.8-.34-2.7,2.21.46,4.41.38,6.59-.19.73.5,1.46,1,2.2,1.49.43.28.81.56.62,1.16Z" style="fill: #e03268;"/>
  <path d="m117.41,36.58c.63,1.72,1.38,3.27,3.53,3.99-2.24.66-2.86,2.28-3.54,4.21-.48-2.05-1.28-3.52-3.3-4.24,1.96-.75,2.85-2.15,3.31-3.97Z" style="fill: #03ccc0;"/>
  <path d="m286.6,90.06c2.52-.13,3.55.86,3.54,3.39,0,2.71-.51,3.43-2.72,4.2-.73.26-1.36-.02-2.03-.09.04-.03.04-.07.01-.12,1.03-.38,2.06-.88,2.35-2.01.5-1.95.87-3.94-1.16-5.38Z" style="fill: #e03268;"/>
  <path d="m32.6,58.15c1.73-.57,2.53-1.82,3.09-3.7.67,1.74,1.32,3.13,3.17,3.67-1.86.54-2.52,1.93-3.17,3.62-.58-1.75-1.24-3.14-3.09-3.58Z" style="fill: #ff5c7e;"/>
  <path d="m257.15,94.76c2.01.27,4.05.2,6.04.62-.17.48-.63.73-.93,1.11-.57.73-1.62.99-1.91,1.98-1.09-.71-2.26-1.32-3.24-2.19.01-.51.02-1.01.03-1.52Z" style="fill: #febfba;"/>
  <path d="m270.87,47.45c.48,1.58.86,2.92,2.49,3.52-1.53.67-2.06,1.94-2.46,3.63-.48-1.6-.86-2.93-2.48-3.55,1.5-.69,2.03-1.95,2.45-3.6Z" style="fill: #feb546;"/>
  <path d="m280.37,97.06c1.25.35,2.55.12,3.82.26.38.29.8.17,1.22.13.03.04.02.08-.01.12-.09.54-.19,1.08-.28,1.62-1.2.43-2.39.9-3.65,1.15-.36-1.09-.72-2.18-1.08-3.27Z" style="fill: #febfba;"/>
  <path d="m285.4,97.44c-.41.04-.84.16-1.22-.13,1.3-.24,2.44-.79,2.78-2.16.45-1.84.72-3.71-1.1-5.09.24,0,.49,0,.73,0,2.02,1.44,1.65,3.43,1.16,5.38-.29,1.13-1.32,1.63-2.35,2.01Z" style="fill: #f4a641;"/>
  <path d="m280.91,173.26c-.38-.7-.48-1.46-.55-2.23.43,0,.98-.15,1.18.38.28.74-.23,1.3-.63,1.85Z" style="fill: #daeef7;"/>
  <path d="m274.14,147.27c.6.08,1.25-.38,1.79.19-.1.1-.2.2-.31.31-.55,0-1.08-.05-1.47-.51,0,0-.01.01-.01.01Z" style="fill: #c5e0e8;"/>
  <path d="m278.4,89.53c-.28.03-.58.1-.71-.28.24.02.47.04.7.06,0,.07,0,.14,0,.21Z" style="fill: #f4a641;"/>
  <path d="m209.02,75.05c-.12,0-.23-.02-.35-.03.01-.22.13-.35.35-.39,0,.14,0,.27,0,.41Z" style="fill: #56779f;"/>
  <path d="m191.41,76.76c.16,0,.32,0,.48,0-.17.27-.33.26-.48,0Z" style="fill: #daeef7;"/>
  <path d="m162.24,54.25c-.13-.02-.26-.03-.4-.05.16-.2.29-.18.4.05Z" style="fill: #03ccc0;"/>
  <path d="m20.5,138.21c-.5.05-.61-.25-.73-.51-1.82-3.88-3.63-7.76-5.45-11.63-.26-.55-.04-.83.43-1.1,4-2.28,8-4.58,11.99-6.87,4.32-2.48,8.63-4.98,12.95-7.45,4.32-2.47,8.67-4.92,12.99-7.39,5.04-2.88,10.08-5.78,15.12-8.68.77-.45,1.23-.35,1.65.52,2.07,4.21,4.16,8.42,6.34,12.58.47.91.23,1.27-.5,1.65-1.47.77-2.93,1.57-4.41,2.33-6.79,3.52-13.53,7.14-20.29,10.72-6.05,3.21-12.12,6.38-18.16,9.62-3.69,1.99-7.43,3.89-11.15,5.83-.29.15-.6.29-.8.39Z" style="fill: #f4a641;"/>
  <path d="m63.93,236.75c.47-1.57.22-3.16.2-4.75,0-.34,0-.67,0-1.01.22-1.08.42-2.16.24-3.26.02-1.15-.06-2.32.08-3.46.29-2.39.34-4.79.41-7.19,0-.7,0-1.39,0-2.09.1-3.44.71-6.85.51-10.29.27-.31.67-.32,1.02-.42,4.86-1.42,9.72-2.85,14.61-4.2.9-.25,1.08-.57.92-1.44-.3-1.7-.55-3.43-.68-5.15-.11-1.49-.75-2.9-.55-4.41,1.8-.13,3.48-.77,5.17-1.34.92,2.45,1.85,4.89,2.77,7.34.25,1.34.61,2.67.74,4.02.32,3.29.45,6.6.85,9.89.14,1.18-.08,2.42.44,3.55-.03.84-.12,1.68.13,2.51.06.68.13,1.36.19,2.04-.01.31-.03.61-.04.92.31,3.22.66,6.44.93,9.66.25,2.99.43,5.98.78,8.96.31,2.61.25,2.61-1.97,3.4-1.9.47-3.73.15-5.53-.49-.47-.43-1.41-.37-1.46-1.17-.08-1.23-.43-2.42-.51-3.63-.17-2.67-.67-5.29-.97-7.94-.36-3.24-.88-6.46-1.34-9.69.2-.74-.36-1.38-.24-2.11,0-.33.04-.67-.02-.99-.56-3.03-.83-6.1-1.22-9.15q-.24-1.86-2.11-1.62c-.2.03-.41.02-.62.02-.52,0-.7.26-.75.77-.33,3.66-.69,7.31-1.05,10.96-.44.67-.07,1.4-.16,2.09-.5,2.21-.46,4.47-.76,6.71-.26,1.95-.34,3.92-.55,5.88-.3,2.84-.82,5.67-.91,8.52-.05,1.47-.66,1.76-1.8,1.85-1.68.44-3.35.27-5.02-.06-.59-.27-1.18-.54-1.77-.81,0-.8.02-1.61.03-2.41Z" style="fill: #08095b;"/>
  <path d="m85.88,187.74c-1.69.57-3.36,1.21-5.17,1.34-.22-.74-.43-1.54-.46-2.27-.07-1.4-.84-1.39-1.82-1.27-.6-.13-1.12.21-1.67.33-2.2.46-4.25,1.54-6.55,1.62-.73-2.91-1.46-5.83-2.18-8.74-.06-1.96.63-3.74,1.4-5.49.31-.16.45-.43.49-.76.06-.04.27-.02.08-.18-.02.06-.04.13-.06.19-.44.05-.55.34-.52.73-.51.06-.55.55-.75.87-.9,1.45-.79,3.04-.62,4.63-.52-.14-1.04-.28-1.55-.42-2.12-.81-3.96-2.07-5.78-3.39-.46-.44-.1-.82.1-1.2.79-1.49,1.58-2.97,2.38-4.45.75-1.04,1.47-2.1,2.26-3.11,2.28-2.94,5.28-4.11,8.95-3.54,1.93,2.33,5.88,1.9,7.54-.1.99.07,2.02-.32,2.97.25-.22,2.34-1.21,4.53-1.38,6.89-.17,2.35-.19,4.67.34,6.99.57,2.52,1.76,4.72,3.15,6.84-.38,1.41-.76,2.82-1.14,4.22Z" style="fill: #03ccc0;"/>
  <path d="m81.94,162.54c-1.66,2-5.61,2.43-7.54.1.37-.17,1.1.11,1.01-.61-.11-.9.64-2.15-.39-2.64-2.75-1.31-4.48-3.35-5.24-6.27-.06-.24-.04-.48-.53-.45-2.06.15-2.53-.19-3.36-2.14-.07-1.09.04-2.12,1.05-2.8.76-.15,1.48.38,2.18.23,1.74-.37,3.42-.92,4.86-2.08,2.09-1.69,3.23-3.95,4.05-6.59.88,2.36,2.12,4.33,4.03,5.74,1.97,1.45,3.87,3.2,6.66,2.66.14.02.29.04.43.06.25.17.5.34.75.51.09.16.18.33.28.49.58,1.29-.19,2.38-.55,3.53-.8.09-1.5.83-2.36.48-.71-.29-.8.06-.94.62-.6,2.35-1.94,4.18-4.04,5.42-1,.59-1.55,2.46-1.02,3.48.14.27.44.17.66.27Zm2-14.3s.04.06.06.09c-.02-.02-.05-.05-.07-.07-1.24-1.28-2.66-1.41-3.61-.19,1.28-.77,2.42.08,3.63.17Zm-11.51.08c1.27-.47,2.45-.21,3.66-.37-1.16-1.05-2.28-.95-3.66.37Zm3.26,1.37c-.04-.36-.32-.65-.78-.62-.52.03-.83.39-.73.92.07.37.17.89.73.76.43-.1.83-.36.78-1.05Zm6.76.15c.05-.27-.09-.63-.61-.69-.47-.05-.8.22-.86.68-.07.48.21.81.66.88.47.08.79-.15.82-.88Z" style="fill: #febfba;"/>
  <path d="m70.21,187.49c2.3-.07,4.35-1.15,6.55-1.62.55-.12,1.07-.46,1.67-.33,0,.16,0,.32.01.48.33,2.43.73,4.85.97,7.28.17,1.64.75,3.24.47,4.92-.24.04-.5.05-.73.12-3.89,1.12-7.79,2.22-11.66,3.4-1.73.53-3.57.73-5.16,1.68-.66.12-1.03-.13-1.12-.81-.48-3.77-.97-7.55-1.46-11.32-.08-.61.41-.63.76-.81,1.77,3.71,4.26,6.98,6.27,10.72.32-.65-.03-1.14.34-1.6.39.52.76,1.01,1.15,1.53.32-.52-.34-.88.05-1.26.46.09.47.72,1,.76.27-.77-.81-1.21-.5-2.08.29.36.49.67.75.93.26.26.33.68.83.85-.03-.83-.52-1.41-.84-2.05-.82-1.62-.84-1.61.99-1.8.06,0,.11-.09.32-.27-.95-.45-1.83-.87-2.71-1.28-.56-.26-1.15-.44-1.45-1.09-.68-1.48-1.34-2.95-1.35-4.62.22-.08.45-.16.67-.25,1.36-.59,2.96-.52,4.18-1.5Z" style="fill: #ff5c7e;"/>
  <path d="m88.73,147.71c-2.78.53-4.69-1.21-6.66-2.66-1.91-1.41-3.15-3.39-4.03-5.74-.82,2.64-1.96,4.91-4.05,6.59-1.43,1.16-3.12,1.7-4.86,2.08-.7.15-1.43-.38-2.18-.23.4-7.25,4.75-11.15,11.7-11.43,4.35-.17,8.2,2.83,9.43,7.08.28.95.43,1.94.64,2.91.03.4.05.8.08,1.2-.05.06-.07.12-.07.2Z" style="fill: #ff5602;"/>
  <path d="m65.89,150.54c.83,1.95,1.29,2.29,3.36,2.14.49-.04.47.21.53.45.76,2.92,2.48,4.96,5.24,6.27,1.03.49.28,1.75.39,2.64.09.72-.64.44-1.01.61-3.67-.56-6.67.6-8.95,3.54-.78,1.01-1.51,2.07-2.26,3.11-1.97-.88-2.17-2.58-1.95-4.4.11-.87-.06-1.5-.67-2.12-1.89-1.91-1.98-4.07.1-5.84,2.17-1.84,3.79-4.01,5.21-6.4Z" style="fill: #ff5602;"/>
  <path d="m65.36,189.24c0,1.67.67,3.14,1.35,4.62.3.65.89.83,1.45,1.09.88.42,1.76.83,2.71,1.28-.21.18-.26.26-.32.27-1.84.19-1.82.18-.99,1.8.32.64.82,1.22.84,2.05-.49-.17-.57-.59-.83-.85-.26-.26-.46-.57-.75-.93-.31.87.77,1.31.5,2.08-.53-.04-.54-.67-1-.76-.39.38.27.73-.05,1.26-.39-.52-.76-1.01-1.15-1.53-.38.47-.02.95-.34,1.6-2.01-3.74-4.5-7.01-6.27-10.72-.93-2.97-1.56-5.97-1.37-9.12.14-2.26.62-4.4,1.58-6.44,1.82,1.32,3.66,2.58,5.78,3.39-.21.76-.44,1.51-.62,2.27-.67,2.85-1.22,5.71-.51,8.64Z" style="fill: #febfba;"/>
  <path d="m102.89,135.94c-2.12-4.84-4.04-9.75-5.94-14.68,3.53-.93,7.06-1.88,10.59-2.77,1.44-.36,2.83-.98,4.35-.93-.11.3-.41.39-.64.55-3.55,2.43-5.37,5.77-5.31,10.11.03,2.32-.02,4.65-.04,6.97-1.01.25-2.01.5-3.02.75Z" style="fill: #daeef7;"/>
  <path d="m88.79,147.5c-.03-.4-.05-.8-.08-1.2,5.56,0,11.13-.01,16.69-.02.5,0,.99-.03,1.49-.05,1.02,0,2.03,0,3.05.01.9.01,1.81.02,2.71.03.09.13.17.13.27,0,.08,0,.15-.02.22-.04,1.08.02,2.17.04,3.25.06.34.25.68.29,1.02,0,2.5-.03,5-.05,7.51-.08.25.03.49.05.74.08.08.12.16.12.25,0,.74-.03,1.48-.06,2.22-.08.18.03.37.05.55.08.16.22.32.21.49,0,2.42,0,4.84,0,7.25,0,.12.06.24.11.36.17.07.64-.41,1.15-.43,1.76-13.65,0-27.3-.01-40.95-.01-1.83,0-3.66.03-5.49.04-.25-.17-.5-.34-.75-.51-.06-.17-.19-.26-.37-.26Z" style="fill: #07bfad;"/>
  <path d="m62.33,203.45c1.59-.95,3.43-1.15,5.16-1.68,3.87-1.19,7.77-2.28,11.66-3.4.24-.07.49-.08.73-.12.61-.02.84.66,1.38.78-.27.46-.76.44-1.18.56-3.34.97-6.67,1.99-10.03,2.88-2.27.61-4.48,1.49-6.83,1.8-.3-.27-.6-.55-.89-.82Z" style="fill: #daeef7;"/>
  <path d="m63.22,204.26c2.35-.31,4.56-1.2,6.83-1.8,3.36-.9,6.69-1.91,10.03-2.88.42-.12.92-.11,1.18-.56-.05-1.45-.35-2.86-.56-4.29-.35-2.49-.56-4.99-.81-7.5-.09-.9-.48-1.39-1.45-1.2,0-.16,0-.32-.01-.48.98-.12,1.74-.13,1.82,1.27.04.73.25,1.52.46,2.27-.2,1.52.44,2.93.55,4.42.13,1.73.38,3.45.68,5.15.15.87-.03,1.19-.92,1.44-4.88,1.35-9.74,2.78-14.61,4.2-.35.1-.75.11-1.02.42-.47.1-.94.19-1.41.29-.6.12-.82-.16-.76-.73Z" style="fill: #e03268;"/>
  <path d="m89.58,102.95c7.62-2.01,15.24-4.03,22.86-6.04.34-.09.79-.34.91.23.1.46-.36.49-.67.57-7.59,1.98-15.18,3.96-22.76,5.94-.11-.23-.23-.46-.34-.69Z" style="fill: #56779f;"/>
  <path d="m90.99,106.44c7.27-1.91,14.54-3.81,21.81-5.72.16-.04.32-.14.47-.14.37-.01.92-.36,1.04.25.1.54-.51.45-.82.54-5.54,1.47-11.08,2.92-16.62,4.38-1.85.49-3.69.99-5.53,1.48-.12-.26-.24-.53-.35-.79Z" style="fill: #56779f;"/>
  <path d="m93.86,113.56c3.35-.92,6.7-1.86,10.06-2.76,3.53-.95,7.06-1.86,10.6-2.78.2-.05.4-.17.6-.17.36,0,.9-.42,1.03.23.1.54-.49.48-.8.56-4.53,1.21-9.07,2.41-13.6,3.6-2.53.67-5.06,1.33-7.58,2-.1-.23-.2-.45-.29-.68Z" style="fill: #56779f;"/>
  <path d="m95.28,117.03c5.61-1.5,11.22-2.99,16.84-4.49,1.36-.36,2.73-.73,4.09-1.07.32-.08.79-.41.92.17.13.53-.39.53-.74.62-6.54,1.73-13.08,3.46-19.62,5.18-.4.11-.8.22-1.2.33-.1-.25-.2-.49-.3-.74Z" style="fill: #56779f;"/>
  <path d="m111.9,117.56c-1.53-.05-2.92.57-4.35.93-3.54.89-7.06,1.84-10.59,2.77-.09-.25-.18-.49-.27-.74,6.85-1.82,13.69-3.64,20.54-5.46.64-.17,1.1-.17.89.7-.06.03-.12.05-.18.08-.21-.04-.4,0-.55.16-1.97,0-3.72.82-5.49,1.55Z" style="fill: #56779f;"/>
  <path d="m85.81,93.41c6.1-1.61,12.2-3.23,18.3-4.84.28-.07.56-.15.85-.21.28-.06.61-.16.69.27.08.41-.26.46-.52.56-.16.05-.33.06-.49.11-6.18,1.64-12.35,3.29-18.53,4.94-.1-.27-.2-.54-.3-.81Z" style="fill: #56779f;"/>
  <path d="m109.94,146.25c-1.02,0-2.03,0-3.05-.01-.26-.74-.53-1.48-.79-2.22,1.19-.35,2.39-.69,3.58-1.04,1.17.76,2.33,1.51,3.5,2.27-1.08.33-2.16.67-3.24,1Z" style="fill: #daeef7;"/>
  <path d="m64.88,215c0,.7,0,1.39,0,2.09-2.08,0-4.16-.02-6.25-.03-1.27-.45-.72-1.28-.44-2.06,2.23,0,4.46,0,6.69,0Z" style="fill: #f4a641;"/>
  <path d="m86.54,95.29c3.89-1.04,7.78-2.08,11.68-3.11.31-.08.7-.31.86.14.2.56-.33.58-.66.66-3.85,1.03-7.71,2.04-11.56,3.06-.11-.25-.21-.5-.32-.75Z" style="fill: #56779f;"/>
  <path d="m105.81,143.28c-.47-.95-.92-1.91-1.16-2.95.83-.21,1.66-.42,2.49-.63.62.86,1.25,1.73,1.87,2.59-1.07.33-2.14.66-3.2.99Z" style="fill: #daeef7;"/>
  <path d="m104.33,139.59c-.51-.9-.89-1.86-1.15-2.86.93-.25,1.86-.5,2.78-.74.27.99.54,1.98.81,2.97-.82.21-1.63.42-2.45.63Z" style="fill: #daeef7;"/>
  <path d="m105.81,143.28c1.07-.33,2.14-.66,3.2-.99.23.23.45.46.68.69-1.19.35-2.39.69-3.58,1.04-.1-.25-.2-.49-.3-.74Z" style="fill: #56779f;"/>
  <path d="m105.97,135.98c-.93.25-1.86.5-2.78.74-.18-.23-.3-.49-.29-.79,1.01-.25,2.01-.5,3.02-.75.02.26.04.53.06.79Z" style="fill: #56779f;"/>
  <path d="m104.33,139.59c.82-.21,1.63-.42,2.45-.63.12.25.24.49.36.74-.83.21-1.66.42-2.49.63-.1-.24-.21-.49-.31-.73Z" style="fill: #56779f;"/>
  <path d="m236.64,248.71c-22.54,0-45.08,0-67.61,0-.54,0-1.08-.05-1.62-.07.1-.12.18-.32.31-.35,1.6-.36,3.07-1.05,4.43-1.92,3.72-2.39,6.05-5.61,6.02-10.23-.02-3.04,0-6.08,0-9.12,0-1.31-.32-2.56-.87-3.72-2.22-4.68-6.25-6.92-11.08-8.02-.75-.17-1.58.23-2.3-.25,13.6-.01,27.21-.03,40.81-.03,10.07,0,20.14.02,30.21.03,3.32.51,6.42,1.57,9.18,3.53.17.51.26,1.03.28,1.57.15,3.42.31,6.85.52,10.27.24,3.99.76,7.97.73,11.98,0,.5.46.91.23,1.43-1.21,1.08-2.45,2.11-3.88,2.92-1.68.95-3.55,1.39-5.35,2Z" style="fill: #feb546;"/>
  <path d="m237.67,179.46c1.66.85,3.33,1.71,4.99,2.56-.07,2.38-.03,4.78.04,7.15.16,5.6.6,11.2.74,16.81.05,2.16.37,4.34.44,6.52-.37.01-.75.04-1.12.04-24.17,0-48.34,0-72.52,0-.37,0-.75-.03-1.12-.04,1.88-1.49,3.22-3.36,3.69-5.73.67-3.42.27-6.85-.16-10.26.08-.23.16-.47.24-.7,1.2-3.52,2.03-7.14,2.76-10.79.54-.03,1.06-.05,1.6-.14,2.27-.41,4.55-.84,6.85-1.09,3.16-.35,6.3-.86,9.48-1.09,3.91-.28,7.8-.82,11.71-1.17,3.46-.31,6.93-.54,10.39-.75,4.96-.29,9.92-.58,14.89-.74,2.16-.07,4.3-.44,6.46-.29.26.02.49-.05.64-.29Z" style="fill: #daeef7;"/>
  <path d="m277.43,246.02c.08.91-.4,1.88.34,2.7-8.33-.01-16.67-.02-25-.03.25-.97.1-1.94.08-2.92.43-3.32.98-6.62,1.23-9.95.15-1.96.48-3.89.6-5.85.16-2.48.62-4.93.91-7.4.21-1.74.42-3.49.52-5.24.04-.78.14-1.54.31-2.29,1.2-.03,2.4-.06,3.59-.09.63-.02,1.37.21,1.31-.91-.04-.85.08-1.7-1.19-1.57,0-.37-.25-.6-.49-.82-1.09-1.03-1.85-2.28-2.46-3.64.33-2.42.57-4.85.85-7.27.31-2.68.58-5.37.85-8.06.06-.65-.02-1.5.65-1.6.79-.12,1.59.28,1.87,1.25.53,1.8,1.1,3.59,1.63,5.39.95,3.18,1.88,6.37,2.82,9.56,1.43,4.85,2.83,9.72,4.3,14.56,1.63,5.41,3.33,10.8,4.97,16.21.8,2.64,1.53,5.31,2.28,7.97Z" style="fill: #fff;"/>
  <path d="m247.4,181.01c-.15-2.34.38-4.62.62-6.92,1.13-11.12,3.66-21.96,6.9-32.64.66-2.18,1.27-4.39,2.27-6.45.71-.07,1.22.6,1.94.52,2.23,1.21,4.51.74,6.8.24.14,0,.29,0,.43,0,.12,2.87-.2,5.71-.41,8.56-.22,3.02-.19,6.06-.28,9.1-.14,4.86-.36,9.72-.42,14.58-.05,4.28.07,8.56.17,12.84.02.9.31,1.78.48,2.68-6.41.94-12.54-.09-18.49-2.5Z" style="fill: #daeef7;"/>
  <path d="m169.13,212.49c.37.02.75.04,1.12.04,24.17,0,48.34,0,72.52,0,.37,0,.75-.03,1.12-.04.06.86.12,1.71.18,2.57-3.05-.19-6.1-.09-9.15-.05-10.07-.01-20.14-.03-30.21-.03-13.6,0-27.21.02-40.81.03-.12-.01-.23-.02-.35-.03,1.86-.82,3.83-1.4,5.57-2.49Z" style="fill: #56779f;"/>
  <path d="m252.86,245.77c.01.97.17,1.95-.08,2.92-3.25,0-6.5.02-9.76.03-.66-.56-.37-.98.21-1.35,1-.65,2.01-1.29,3.02-1.94,2.17.85,4.39.63,6.62.35Z" style="fill: #e03268;"/>
  <path d="m234.93,215.02c3.05-.05,6.1-.15,9.15.05.13,1.16.13,2.32.03,3.48-2.76-1.96-5.86-3.02-9.18-3.53Z" style="fill: #fff;"/>
  <path d="m246.24,245.42c-1.01.65-2.01,1.29-3.02,1.94-.57.37-.87.79-.21,1.35-2.12,0-4.25,0-6.37,0,1.8-.61,3.67-1.05,5.35-2,1.43-.8,2.66-1.84,3.88-2.92.16.53-.26,1.2.37,1.63Z" style="fill: #fff;"/>
  <path d="m260.15,212.47c1.27-.13,1.14.72,1.19,1.57.06,1.12-.68.89-1.31.91-1.2.03-2.4.06-3.59.09.12-.85.23-1.69.35-2.54,1.12-.01,2.24-.02,3.37-.03Z" style="fill: #56779f;"/>
  <path d="m260.15,212.47c-1.12.01-2.24.02-3.37.03.14-1.5.28-3,.42-4.5.61,1.36,1.37,2.61,2.46,3.64.24.23.49.45.49.82Z" style="fill: #daeef7;"/>
  <path d="m107.14,139.69c-.12-.25-.24-.49-.36-.74-.27-.99-.54-1.98-.81-2.97-.02-.26-.04-.53-.06-.79.02-2.32.07-4.65.04-6.97-.06-4.34,1.76-7.68,5.31-10.11.23-.16.53-.25.64-.55,1.77-.73,3.51-1.55,5.49-1.55.18-.05.36-.11.55-.16.06-.03.12-.06.18-.08,2.02.02,4.04.05,6.07.07.07.12.15.25.22.37-4.99,1.02-10.28,5.51-9.76,12.33.17,2.23,0,4.49.04,6.74.06,3.04,1.43,5.48,3.58,7.55,1.89,1.81,4.21,2.74,6.67,3.42-2.5.03-5,.05-7.51.08-.27-.03-.54-.05-.81-.08l-2.14-.51c-.43-.16-.85-.32-1.28-.47-1.17-.76-2.33-1.51-3.5-2.27-.23-.23-.45-.46-.68-.69-.62-.86-1.25-1.73-1.87-2.59Z" style="fill: #e03268;"/>
  <path d="m124.92,146.24c-2.46-.68-4.79-1.6-6.67-3.42-2.15-2.07-3.52-4.5-3.58-7.55-.04-2.25.13-4.5-.04-6.74-.52-6.82,4.77-11.31,9.76-12.33.35-.06.69-.12,1.04-.18.32-.03.67.09.95-.17.08-.03.16-.07.23-.1.26.03.53.07.79.1,0,.11,0,.23,0,.34-.64.19-1.28.35-1.9.59-4.42,1.69-8.19,5.95-7.88,11.27.14,2.28.04,4.58.02,6.87-.02,2.77,1.06,5.08,2.86,7.11,2.04,2.31,4.72,3.45,7.62,4.2-.74.03-1.48.06-2.22.08-.08,0-.17,0-.25,0-.25-.03-.49-.05-.74-.08Z" style="fill: #feb546;"/>
  <path d="m125.44,116.02c-.35.06-.69.12-1.04.18-.07-.12-.15-.25-.22-.37.44,0,.87,0,1.31,0-.03.06-.04.12-.05.19Z" style="fill: #ff5c7e;"/>
  <path d="m125.44,116.02c0-.07.02-.13.05-.19.3,0,.61.01.91.02-.28.26-.63.14-.95.17Z" style="fill: #f4a641;"/>
  <path d="m163.56,214.98c.12.01.23.02.35.03.72.48,1.55.08,2.3.25,4.82,1.11,8.85,3.34,11.08,8.02.55,1.16.87,2.42.87,3.72,0,3.04-.02,6.08,0,9.12.04,4.62-2.3,7.84-6.02,10.23-1.36.88-2.83,1.56-4.43,1.92-.12.03-.2.23-.31.35-.41.02-.83.07-1.24.07-13.88,0-27.76,0-41.64,0-.37,0-.74-.04-1.12-.06,0-.06,0-.13,0-.19,1.11-.63,2.27-1.14,3.48-1.56.1-.05.2-.09.29-.14h0c.08,0,.15,0,.22-.05,1.61.3,3.26-.11,4.87.22-.1.35-.3.7.04,1.03.36.35.69.08,1.02-.06.86-.36,1.72-.73,2.58-1.1.12.1.22.14.27-.07l-.03.02c8.4.01,16.8.02,25.2.04,1.89,0,3.73-.34,5.47-1.07,3.45-1.45,6.3-3.54,7.41-7.36.49-.83.5-1.74.5-2.66,0-2.37-.03-4.75.01-7.12.05-2.79-1-5.11-2.9-7.07-2.58-2.65-5.79-3.97-9.43-4.3-3.65-.34-7.32-.02-10.98-.19.18-.09.36-.25.54-.25,2.07-.05,4.1-.48,6.15-.72,1.86-.22,3.6-.94,5.47-1.06Z" style="fill: #f4a641;"/>
  <path d="m122.42,248.64c-2.58.02-5.16.06-7.74.06-6.25,0-12.49-.01-18.74-.02.23-.96-.67-1.15-1.12-1.65.04-.07.09-.15.13-.22,8.88,0,17.75,0,26.63,0,.41,0,.83-.07,1.22.14-.19.45-.58.85-.33,1.4-.02.1-.04.19-.06.29Z" style="fill: #f4a641;"/>
  <path d="m86.15,248.68c-5.48,0-10.96,0-16.44,0,.02-.62.03-1.24.05-1.86,5.46,0,10.91,0,16.37.01,0,.62.01,1.24.02,1.86Z" style="fill: #f4a641;"/>
  <path d="m86.15,248.68c0-.62-.01-1.24-.02-1.86.03-.18.05-.36.08-.53,1.2.44,2.3,1.17,3.62,1.29,1.51.14,3.07.61,4.43-.52.12-.05.24-.09.36-.14.05.08.11.12.2.12.45.5,1.35.69,1.12,1.65-.24.28-.57.29-.91.29-2.57,0-5.14,0-7.7,0-.43,0-.81-.11-1.18-.31Z" style="fill: #08095b;"/>
  <path d="m69.76,246.81c-.02.62-.03,1.24-.05,1.86-.3.26-.65.31-1.04.31-2.57,0-5.14-.01-7.71,0-.39,0-.73-.08-1.04-.31-.19-1.04.89-1.08,1.29-1.65,2.98,1.46,5.75.62,8.45-.8.03.2.06.4.09.6Z" style="fill: #08095b;"/>
  <path d="m61.22,247.02c-.4.57-1.48.62-1.29,1.65-.68-.01-1.36-.02-2.04-.03.27-.61-.55-1.61.67-1.89.11,0,.22.02.33.03.75.01,1.5.02,2.25.03.02.07.05.14.08.2Z" style="fill: #f4a641;"/>
  <path d="m35.81,248.71c.3-.76.6-1.52.99-2.51.34.98.61,1.75.88,2.52-.62,0-1.24,0-1.86-.01Z" style="fill: #fff;"/>
  <path d="m122.42,248.64c.02-.1.04-.19.06-.29.29.18.61.15.93.1,0,.06,0,.13,0,.19-.33,0-.66,0-.99,0Z" style="fill: #feb546;"/>
  <path d="m200.16,105.27c2.07.9,3.97.71,4.98-.51,3.23,2.48,4.69,5.94,5.25,9.82.6,4.21.36,8.42-.33,12.61-.29,1.79-.61,3.57-.92,5.36-.31.17-.41.48-.48.79-.63,3.06-1.65,6-2.8,8.9-1.82.15-3.61-.2-5.41-.25-.1-.52-.26-1.03-.28-1.55-.15-3.36-.47-6.71-.71-10.06-.22-3.12-.41-6.24-.61-9.36-.35-1.08-.09-2.21-.25-3.31.03-.08.03-.15,0-.23-.1-.25-.31-.22-.51-.22-2.8.02-5.6.03-8.4.05-5.32-.1-10.61-.53-15.84-1.62-1.5-.54-2.9-1.25-4.15-2.24-2.29-2.32-3.28-5.16-3.31-8.38,3.24-.25,6.31-1.15,9.26-2.51.34-.15.7-.25,1.04-.38,0,0,.11.03.11.03l.11-.04c2.83.02,5.66.1,8.48-.11.37.02.74.05,1.11.07.57.11,1.14.2,1.7.33,3.99.93,7.97,1.86,11.95,2.79Z" style="fill: #10116b;"/>
  <path d="m200.16,105.27c-3.98-.93-7.97-1.87-11.95-2.79-.56-.13-1.14-.22-1.7-.33-.36-.1-.72-.19-1.07-.29-.89-.3-.39-1.03-.5-1.58,1.12-.21,2.04.72,3.33.66-.6-.7-1.57-.75-1.82-1.67,1.33-.08,2.52.95,3.99.3-1.29-.61-2.66-.5-3.93-1.48,1.33-.22,2.41-.01,3.63,0-.98-.7-2.13-.37-3.05-1,1.2-.32,2.3.3,3.4,0-1.73-.73-3.55-.76-5.36-.86,0-5.54.02-11.08-.03-16.61,0-1.08.16-1.57,1.34-1.12.46.17.97.19,1.46.28,3.77.91,7.54,1.82,11.3,2.74.43.11.9.12,1.25.46-.44.4-.26.93-.26,1.41-.01,7.29-.02,14.59-.02,21.88Z" style="fill: #56779f;"/>
  <path d="m166.37,105.08c.04,3.22,1.02,6.06,3.31,8.38-.67.76-1.34,1.52-2.01,2.28-.92,0-1.83,0-2.75,0-.65-.6-1.4-1.03-2.23-1.47-.18.59.23,1,.24,1.47-.37.03-.75.07-1.12.1-.72,0-1.43,0-2.15,0-.34,0-.69,0-1.03.01-.23,0-.46,0-.69,0-.62-.02-1.24-.05-1.86-.05-5.06-.02-10.12-.04-15.18-.05.33-.37.64-.76,1-1.1,2.81-2.69,5.46-5.54,8.34-8.17,1.94-1.78,4.09-3.38,5.69-5.52,2.4,2.84,5.47,4.19,9.18,4.08.41-.01.83.03,1.25.04Z" style="fill: #07bfad;"/>
  <path d="m155.94,100.96c-1.61,2.13-3.75,3.74-5.69,5.52-2.88,2.63-5.53,5.48-8.34,8.17-.36.34-.67.73-1,1.1-2.42,0-4.83,0-7.25,0,.3-1.56,1.4-2.71,2.19-3.99,2.95-4.73,6.42-9.07,10.42-12.93,2.19-2.12,4.45-4.21,7.1-5.8.47,2.77,1.03,5.51,2.56,7.93Z" style="fill: #03ccc0;"/>
  <path d="m185.1,96.24c1.81.1,3.63.13,5.36.86-1.1.29-2.2-.33-3.4,0,.92.63,2.07.3,3.05,1-1.22,0-2.29-.21-3.63,0,1.27.98,2.65.87,3.93,1.48-1.47.65-2.65-.38-3.99-.3.25.92,1.21.97,1.82,1.67-1.29.06-2.21-.87-3.33-.66-1.32-.52-2.74-.2-4.09-.49-.4-.09-.81-.07-1.22-.09.07-1.23.35-2.45.04-3.68,1.82.09,3.62.35,5.45.22Z" style="fill: #febfba;"/>
  <path d="m179.66,96.02c.3,1.23.03,2.45-.04,3.68-.37.31-.45.18-.44-.25.02-.99,0-1.99.01-2.99,0-.55-.09-.92-.8-.97-3.18-.22-6.33-.65-9.45-1.27-.02-.13-.05-.25-.07-.38,3.17.66,6.4.79,9.61,1.09.78.07,1.11.37,1.19,1.08Z" style="fill: #fff;"/>
  <path d="m166.11,81.3c.36,2.65.42,5.3.03,7.96-.14,0-.29,0-.43-.01.3-2.66.23-5.33.12-8,.1.02.19.04.29.05Z" style="fill: #fff;"/>
  <path d="m165.7,89.25c.14,0,.29,0,.43.01-.1,1.23-.28,2.44-.98,3.51,0,0,.01,0,.01,0,.18-1.18.36-2.35.54-3.53Z" style="fill: #febfba;"/>
  <path d="m168.86,93.85c.02.13.05.25.07.38-1.08-.06-2.07-.42-3.06-.86,1.02-.03,2.01.19,2.99.48Z" style="fill: #febfba;"/>
  <path d="m166.11,81.3c-.1-.02-.19-.04-.29-.05-.32-.57-.15-1.17-.11-1.9.38.7.51,1.3.39,1.95Z" style="fill: #febfba;"/>
  <path d="m165.15,92.77q-.11.49-.83.13c.33-.05.59-.08.84-.12,0,0-.01,0-.01,0Z" style="fill: #febfba;"/>
  <path d="m185.42,101.86c.36.1.72.19,1.07.29-.37-.02-.74-.05-1.12-.07,0-.08.02-.15.04-.22Z" style="fill: #e03268;"/>
  <path d="m176.9,102.19l-.11.04s-.11-.03-.11-.03c.02-.07.04-.14.06-.2.06.07.11.13.17.2Z" style="fill: #e03268;"/>
  <path d="m266.35,135.75c-.14,0-.29,0-.43,0,.03-.95-.07-1.9.17-2.85.11-.44.23-.76.67-.95,2.22-.94,3.7-2.61,4.68-4.78.12-.27.17-.54.7-.37,1.48.48,2.44.14,3.17-.92.84-1.23.78-2.26-.21-3.65.63-1.29,1.17-2.65,1.38-4.04.31-2.07.67-4.26-1.09-5.98.23-.39.95.01.9-.5-.1-1-1.18-1.05-1.78-1.54.42-.48,1.7-.5,1.12-1.39-.4-.61-1.42-.41-2.12.09-.13.1-.26.21-.37.33-.24.28-.47.22-.74.03-1.4-1.02-2.99-1.47-4.67-1.81-3.79-.77-7.38-.26-10.87,1.29.64-2.68,1.95-5.09,3.03-7.6.23-.53.48-1.06.73-1.58.21-.43.21-.79-.24-1.06.29-.99,1.34-1.25,1.91-1.98.3-.38.75-.63.93-1.11,3.33.12,6.61.82,9.95.86,1.02.1,2.03.2,3.05.3.35.23.74.17,1.13.15,1.02.12,2.03.24,3.05.37.36,1.09.72,2.18,1.08,3.27-.91.18-1.14.77-1.07,1.62.36,4.97.4,9.95.22,14.94-.3,8.2-6.22,16.07-14.08,18.7-.07.02-.12.11-.17.17Z" style="fill: #fff;"/>
  <path d="m273.64,147.02c.17.08.34.16.5.24,0,0,.01-.01.01-.01-.17-.08-.34-.16-.5-.24h-.01Z" style="fill: #c5e0e8;"/>
  <path d="m274.64,146.52c.06.04.11.08.17.12-.2.12-.14-.06-.15-.14l-.02.02Z" style="fill: #c5e0e8;"/>
  <path d="m273.65,147.01s-.06-.03-.08-.05c.02.02.05.04.07.06,0,0,.01-.01.01-.01Z" style="fill: #c5e0e8;"/>
  <path d="m274.65,146.5c-.07-.03-.13-.05-.2-.08.19-.21.14.03.18.1,0,0,.02-.02.02-.02Z" style="fill: #c5e0e8;"/>
  <path d="m207.15,176.52c-9.15.44-18.31.11-27.47.19-.01-.16-.03-.32-.04-.48-.11-1.28-.97-2.26-1.35-3.44,2.34-1.71,3.5-4.06,3.59-6.9.08-2.58-.04-5.16.03-7.74.13-4.62-2.28-7.61-6.05-9.8-1.48-.86-3.13-1.26-4.71-1.84.66-.1,1.37.19,2-.2.25-.03.5-.05.75-.08,4.53.02,9.07.05,13.6.05,5.78,0,11.57-.03,17.35-.05.85.34,1.7.67,2.53,1.04.44.2.79.25,1.05-.23,1.97-.02,3.59.97,5.15,1.97,2.6,1.66,4.56,3.85,5.1,7.03.46,2.68.07,5.4.21,8.09.23,4.73-2.07,7.94-5.98,10.26-1.8,1.07-3.8,1.54-5.77,2.13Z" style="fill: #03ccc0;"/>
  <path d="m178.29,172.8c.38,1.18,1.24,2.16,1.35,3.44-.16.08-.32.16-.48.25-.39.06-.74.21-1,.53-.18.08-.35.17-.53.25,0,0,.02-.01.02-.01-.17.09-.35.17-.52.26h.02c-2.99,1.21-5.93,2.59-9.17,3.11-.82.13-.98.02-1.1-.75-.24-1.58-.59-3.15-1.23-4.63.24,1.93.6,3.83.98,5.73.03.13.21.22.32.34-.13,3.51-.47,7.01-.82,10.5-.07.74-.16,1.48-1.01,1.84-3.69,1.59-7.46,2.93-11.44,3.64,0-4.43-.02-8.86-.02-13.29q0-2.57-2.51-2.01,0-1.84-1.23-1.48c.05-.87-.22-1.25-1.11-.75-.21.12-.45.17-.67.26-.22-.01-.42.03-.56.22-.07-.02-.13,0-.19.05-.99-.03-1.76.82-2.77.7-.5-2.16-.8-4.32-.21-6.51.32-1.18.65-2.36.97-3.55-1.77,3.15-2.36,6.42-1.04,9.88-1.51-.05-2.96-.44-4.42-.74-.43-.15-.85-.29-1.28-.44q-2.09-.73-1.94-2.87c.16-.64.33-1.29.49-1.94.91-2.42,1.95-4.78,3.68-6.75.63-.6,1.22-1.24,1.89-1.78,1.85-1.51,3.92-2.62,6.3-3.03,3.14,3.66,8.32,2.9,11.03-1.37,2.84-.2,5.58.3,8.27,1.14,1.35.52,2.63,1.14,3.79,2.02,1.84,1.38,3.17,3.21,4.52,5.04.53.92,1.06,1.83,1.59,2.75Z" style="fill: #feb546;"/>
  <path d="m215.34,142.23c1.62-3.8,2.74-7.75,3.6-11.78.79-3.69,1.29-7.41,1.45-11.18.88.1,1.72-.21,2.59-.23,3.31-.08,6.61-.37,9.91-.46,3.89-.11,7.78-.49,11.68-.3-.72,3.13-.99,6.29-1,9.5-.01,4.99,1.01,9.74,3.06,14.28.02.18.03.35.05.53-.18.65-.37,1.29-.55,1.94-9.79,0-19.58.02-29.36.03-.59-.7-1.12-1.44-1.43-2.31Z" style="fill: #daeef7;"/>
  <path d="m207.15,176.52c1.97-.59,3.97-1.06,5.77-2.13,3.91-2.32,6.22-5.53,5.98-10.26-.13-2.69.25-5.41-.21-8.09-.54-3.18-2.5-5.37-5.1-7.03-1.56-1-3.18-1.99-5.15-1.97-.01-.24-.02-.49-.03-.73,1.98-.02,3.96-.05,5.94-.07.76.3,1.55.54,2.27.91,1.02.53,1.35.19,1.29-.84h4.99c-.08.17-.66.37.08.46,1.88.23,3.59,1.01,5.17,2.01,2.94,1.86,5.12,4.27,5.56,7.94.35,2.94.25,5.89.12,8.82-.13,2.92-1.51,5.31-3.79,7.26-2.12,1.81-4.52,2.89-7.2,3.43-.53.11-.57.15-.18.48-4.94,0-9.89.02-14.83.03-.25,0-.5,0-.68-.22Z" style="fill: #2ca2b0;"/>
  <path d="m222.67,176.72c-.39-.33-.35-.38.18-.48,2.68-.54,5.08-1.62,7.2-3.43,2.28-1.94,3.65-4.34,3.79-7.26.13-2.93.23-5.88-.12-8.82-.43-3.67-2.61-6.08-5.56-7.94-1.58-1-3.28-1.78-5.17-2.01-.74-.09-.16-.29-.08-.46,3.98,0,7.95.01,11.93.02.51.25,1.07.21,1.61.23,2.96.79,5.74,1.93,8.01,4.09-1.38,5.41-2.79,10.82-4.12,16.24-.73,2.97-1.34,5.97-2,8.96-1.18.75-2.54.52-3.82.7-.23-.05-.45-.05-.62.15-3.74,0-7.48,0-11.21.01Z" style="fill: #03ccc0;"/>
  <path d="m153.7,197.29c3.97-.71,7.74-2.05,11.44-3.64.84-.36.93-1.1,1.01-1.84.35-3.5.69-6.99.82-10.5,1.89-.35,3.79-.66,5.58-1.4,1.28-.53,2.56-1.08,3.85-1.61,0,.25,0,.5,0,.75-.24,1.99-.49,3.98-.73,5.97-.72,3.65-1.56,7.26-2.76,10.79-.08.23-.16.47-.24.7-.59,1.75-1.89,2.77-3.56,3.39-1.01.38-2.05.65-3.11.87-4.06.87-8.18.73-12.29.72-.24-.22-.53-.21-.82-.21-2.38-.03-4.69-.37-6.91-1.28-1.4-.57-2.85-.85-4.37-.77-.26.01-.68.21-.77-.35.74-.27,1.67-.03,2.38-.94-1.21-.14-2.25-.26-3.3-.38-.28-.18-.55-.37-.83-.55.03-.08.06-.16.08-.25.26,0,.51.02.77.02.85.31,1.73.48,2.63.45.2,0,.45,0,.5-.25.05-.24-.16-.36-.35-.44-.68-.27-1.36-.53-2.04-.79.8-.14,1.58.13,2.71.18-1.25-.8-2.36-.96-3.46-1.16,0-.1,0-.21-.01-.31.53.06,1.07.09,1.6.19,2.74.53,5.28,1.67,7.89,2.6,1.46.52,2.87.72,4.32.03Z" style="fill: #febfba;"/>
  <path d="m275.1,122.24c1,1.39,1.06,2.42.21,3.65-.73,1.06-1.69,1.4-3.17.92-.53-.17-.58.09-.7.37-.98,2.17-2.46,3.84-4.68,4.78-.44.19-.56.51-.67.95-.24.95-.14,1.9-.17,2.85-2.29.5-4.57.97-6.8-.24.02-.29-.01-.59.06-.86.49-1.78.7-3.44-1.39-4.42-.27-.13-.44-.47-.66-.72-.89-1.27-1.66-2.67-1.66-4.18,0-1.51-.46-2.48-1.8-3.07-.41-1.1-.31-2.17.23-3.2.6-.39,1.87.17,1.74-1.24.37-.22.26-1.07,1.03-.78,1.43.55,2.83.1,4.23-.18.65-.13,1.61-.38,1.88.06.58.93,1.32.64,1.96.52,1.4-.27,2.78-.67,4.15-1.09.79-.24,1.15.01,1,.78-.31,1.64-.24,3.29-.26,4.94-.01.85.25,1.62.59,2.37.16.36.45.59.88.58.44-.01.69-.23.8-.65.43-1.66,1.46-2.42,3.19-2.13Zm-13.84-3.29c-1.24-1.49-2.82-1.56-3.95-.19,1.37-.41,2.66-.41,3.95.19Zm3.45.62c1.56-.16,2.77.14,3.88.85-1-1.5-2.04-1.75-3.88-.85Zm1.17,1.18c-.25.18-.75.12-.76.72,0,.6.36.79.84.84.54.06.68-.29.7-.77.02-.51-.21-.76-.78-.8Zm-5.99-.23c.05-.45-.12-.8-.66-.74-.38.04-.82.1-.85.67-.03.6.35.79.82.85.53.07.74-.24.69-.78Z" style="fill: #febfba;"/>
  <path d="m275.1,122.24c-1.73-.29-2.77.47-3.19,2.13-.11.41-.36.64-.8.65-.43.01-.72-.22-.88-.58-.35-.75-.6-1.53-.59-2.37.02-1.65-.05-3.3.26-4.94.14-.77-.21-1.02-1-.78-1.37.42-2.75.82-4.15,1.09-.64.12-1.38.41-1.96-.52-.27-.44-1.23-.19-1.88-.06-1.4.28-2.8.72-4.23.18-.77-.3-.66.56-1.03.78-.09-.04-.17-.08-.26-.12.19-.66.14-1.31-.17-1.93.15-.63.73-1.42-.57-1.49-.71-1.24.01-2.02.88-2.76.27-.23.77-.39.46-.85-.76-1.14.11-1.51.86-1.96,3.49-1.54,7.08-2.05,10.87-1.29,1.69.34,3.28.8,4.67,1.81.27.2.5.25.74-.03.11-.12.24-.23.37-.33.7-.5,1.73-.7,2.12-.09.58.89-.7.91-1.12,1.39.6.5,1.68.55,1.78,1.54.05.51-.67.11-.9.5,1.76,1.71,1.4,3.91,1.09,5.98-.21,1.39-.75,2.75-1.38,4.04Z" style="fill: #08095b;"/>
  <path d="m175.65,185.01c.24-1.99.49-3.98.73-5.97,20.01,0,40.02,0,60.03.01.42,0,1.04-.34,1.26.41-.15.24-.39.31-.64.29-2.16-.16-4.3.22-6.46.29-4.97.16-9.93.45-14.89.74-3.47.2-6.93.44-10.39.75-3.91.35-7.8.89-11.71,1.17-3.18.23-6.32.74-9.48,1.09-2.3.25-4.57.68-6.85,1.09-.54.1-1.07.11-1.6.14Z" style="fill: #c5e0e8;"/>
  <path d="m234.83,146.33c-3.98,0-7.95-.01-11.93-.02-1.66,0-3.33,0-4.99,0-.5-.51-.84-1.13-1.15-1.77,9.79,0,19.58-.02,29.36-.03-.01.65-.26,1.24-.5,1.83-2.98,0-5.97,0-8.95,0-.61-.14-1.23-.1-1.84,0Z" style="fill: #ff5c7e;"/>
  <path d="m253.67,122.26c1.34.59,1.8,1.57,1.8,3.07,0,1.52.78,2.92,1.66,4.18-.36.33-.24.76-.23,1.15.05,1.29.14,2.59.22,3.88-3.01-3-3.79-6.75-3.63-10.81.02-.49.12-.98.18-1.48Z" style="fill: #daeef7;"/>
  <path d="m244.57,118.27c-3.9-.2-7.79.19-11.68.3-3.3.09-6.6.38-9.91.46-.86.02-1.71.34-2.59.23,0-.52,0-1.03-.01-1.55,8.09,0,16.19.02,24.28.02-.03.18-.06.35-.09.53Z" style="fill: #c5e0e8;"/>
  <path d="m236.68,146.34c2.98,0,5.97,0,8.95,0-.28,1.47-.68,2.91-1.18,4.31-2.26-2.16-5.04-3.3-8.01-4.09.08-.07.16-.15.23-.22Z" style="fill: #fff;"/>
  <path d="m257.12,134.55c-.08-1.29-.16-2.59-.22-3.88-.02-.39-.13-.83.23-1.15.22.24.39.59.66.72,2.08.98,1.88,2.64,1.39,4.42-.08.27-.04.58-.06.86-.72.09-1.23-.59-1.94-.52-.02-.15-.04-.3-.06-.45Z" style="fill: #fff;"/>
  <path d="m176.39,178.29c-1.28.54-2.56,1.08-3.85,1.61-1.79.74-3.69,1.05-5.58,1.4-.11-.11-.29-.21-.32-.34-.38-1.9-.73-3.8-.98-5.73.64,1.49.99,3.05,1.23,4.63.12.77.27.88,1.1.75,3.25-.52,6.18-1.9,9.17-3.13-.07.45-.63.41-.78.79Z" style="fill: #10116b;"/>
  <path d="m255.22,115.77c.31.62.36,1.26.17,1.93-.45,0-.9.02-1.34.03.02-.67.14-1.32.38-1.94.27,0,.53,0,.8,0Z" style="fill: #ff5c7e;"/>
  <path d="m254.05,117.72c.45,0,.9-.02,1.34-.03.09.04.17.08.26.12.13,1.41-1.14.85-1.74,1.24-.05-.46-.05-.91.14-1.34Z" style="fill: #daeef7;"/>
  <path d="m234.5,176.56c1.28-.18,2.64.05,3.82-.7-.02.66-.33.93-1,.9-.93-.05-1.87-.02-2.81-.03-.02-.05-.03-.11,0-.17Z" style="fill: #c5e0e8;"/>
  <path d="m255.22,115.77c-.27,0-.53,0-.8,0,.07-.5.15-1,.22-1.5,1.3.07.73.86.57,1.49Z" style="fill: #daeef7;"/>
  <path d="m246.68,142.58c-.02-.18-.03-.35-.05-.53.68.15.9-.61,1.52-.7,0,.23-.54.75.25.66,0,0-.01-.01-.01-.01-.44.58-1.15.35-1.7.58Z" style="fill: #c5e0e8;"/>
  <path d="m179.17,176.49c.16-.08.32-.16.48-.25.01.16.03.32.04.48-.23.04-.43.03-.52-.23Z" style="fill: #2ca2b0;"/>
  <path d="m248.91,141.77c.06-.05.11-.1.17-.15.02-.01.06.01.09.02-.09.04-.18.07-.27.11,0,0,.01.01.01.01Z" style="fill: #c5e0e8;"/>
  <path d="m248.9,141.76c-.1.22-.31.23-.51.24,0,0,.01.01.01.01.17-.08.34-.16.51-.24,0,0-.01-.01-.01-.01Z" style="fill: #c5e0e8;"/>
  <path d="m234.5,176.56c-.02.06-.02.11,0,.17-.21,0-.42-.01-.63-.02.17-.2.39-.2.62-.15Z" style="fill: #2ca2b0;"/>
  <path d="m177.64,177.26c.18-.08.35-.17.53-.25-.18.08-.35.17-.53.25Z" style="fill: #10116b;"/>
  <path d="m177.14,177.51c.17-.09.35-.17.52-.26-.09.26-.32.22-.52.26Z" style="fill: #10116b;"/>
  <path d="m61.14,246.81c-.75-.01-1.5-.02-2.25-.03.01-.08.02-.17.03-.25,2.29-1.51,3.61-3.72,4.52-6.23.14-.38.31-.75.47-1.13.59.27,1.18.54,1.77.81.01,1.48-.38,2.94-.26,4.42.03.36-.09.66-.44.81-1.27.55-2.39,1.47-3.84,1.6Z" style="fill: #daeef7;"/>
  <path d="m58.91,246.53c-.01.08-.02.17-.03.25-.11,0-.22-.02-.33-.03.12-.08.24-.15.36-.23Z" style="fill: #febfba;"/>
  <path d="m133.66,115.75c2.42,0,4.83,0,7.25,0,5.06.02,10.12.03,15.18.05.62,0,1.24.03,1.86.05-.03.05-.05.1-.05.15-4.92.54-10.2,4.47-10.78,9.88-.39,3.71-.41,7.46.09,11.19-1.05.17-2.14.24-3.15.54-4.32,1.26-6.36,4.48-7.25,8.65-.13.02-.26.04-.39.06-2.42,0-4.84,0-7.25,0-.16,0-.32,0-.49,0-.18-.03-.37-.05-.55-.08-2.9-.75-5.58-1.89-7.62-4.2-1.8-2.04-2.88-4.34-2.86-7.11.02-2.29.12-4.59-.02-6.87-.32-5.32,3.45-9.59,7.88-11.27.62-.24,1.27-.39,1.9-.59.65-.11,1.3-.23,1.95-.34.93-.03,1.87-.07,2.8-.1h1.5Z" style="fill: #e03268;"/>
  <path d="m129.36,115.84c-.65.12-1.3.23-1.95.34,0-.11,0-.23,0-.34.65,0,1.3,0,1.94,0Z" style="fill: #f4a641;"/>
  <path d="m58.63,217.06c2.08,0,4.16.02,6.25.03-.07,2.4-.13,4.8-.41,7.19-.14,1.14-.06,2.3-.08,3.46-.99-3.93-2.69-7.48-5.67-10.32-.07-.07-.06-.23-.08-.35Z" style="fill: #daeef7;"/>
  <path d="m205.86,142.24c1.14-2.9,2.17-5.83,2.8-8.9.06-.31.16-.62.48-.79.56,1.62.16,3.33.49,4.98.28,1.44.27,2.94.39,4.42-.23.89-1.22,1.91.4,2.51-1.07.02-2.14.05-3.2.07-.51-.73-1.12-1.4-1.35-2.29Z" style="fill: #daeef7;"/>
  <path d="m210.42,144.46c-1.63-.6-.63-1.61-.4-2.51,1.78.09,3.55.18,5.33.27.3.88.84,1.61,1.43,2.31.3.64.64,1.26,1.15,1.77.06,1.03-.27,1.37-1.29.84-.72-.38-1.51-.61-2.27-.91-1.27-.7-2.56-1.34-3.94-1.78Z" style="fill: #56779f;"/>
  <path d="m179.77,54.2c1.29-.19,2.63-.5,3.24,1.19-.88-.96-2.17-.74-3.24-1.19Z" style="fill: #10116b;"/>
  <path d="m176.02,53.93c-1.08-.37-2.17-.05-3.48.24,1.45-1.19,2.25-1.22,3.48-.24Z" style="fill: #10116b;"/>
  <path d="m175.4,55.59c-.02.45-.26.69-.7.71-.45.02-.72-.23-.73-.66,0-.43.27-.71.69-.72.42-.01.69.24.73.68Z" style="fill: #294d7a;"/>
  <path d="m180.06,56.36c.02-.42.22-.73.65-.77.43-.04.7.21.73.65.03.43-.17.72-.61.76-.44.04-.68-.23-.76-.64Z" style="fill: #294d7a;"/>
  <path d="m259.15,87.81c3.46-.09,6.86.6,10.29.84.86.06,1.71.28,2.57.36,2.21.2,2.97,1.06,2.89,3.3-.02.5-.06,1-.27,1.46-1.28-2.79-3.71-3.72-6.52-4.3-2.98-.61-5.99-1.02-8.96-1.66Z" style="fill: #c5e0e8;"/>
  <path d="m277.32,96.69c-.39.02-.78.08-1.13-.15,2.72-.89,3.82-3.68,2.48-6.24-.13-.25-.37-.46-.29-.79.89.19,1.29.88,1.47,1.65.6,2.54-.23,4.29-2.54,5.53Z" style="fill: #f4a641;"/>
  <path d="m200.75,81.39c-.4.22-.65.02-.91-.27.39-.14.71-.16.91.27Z" style="fill: #fff;"/>
  <path d="m136.72,176.73q-.15,2.14,1.94,2.87c.42.15.85.29,1.28.44.03,1-.5,1.96-.24,2.98-.52.69-1.18,1.13-2.05,1.23-.88-1.97-1.72-3.95-2.75-5.85-.31-.57-.5-.18-.75-.04-.09-.41-.31-.48-.45-.07-.12.36-.06.78-.07,1.17-.51-.06-.31-.8-.81-.94-.39.98.11,1.84.11,2.71,0,6.15-.02,12.31-.04,18.46-4.45.42-8.43,1.96-11.81,4.93-3.12,2.73-5.03,6.22-6.27,10.12-.71,0-1.42,0-2.12,0-5.12.02-10.24.04-15.36.06-2.43-.14-4.59-1.05-6.64-2.28-.52-1.13-.3-2.37-.44-3.55-.4-3.28-.53-6.59-.85-9.89-.13-1.35-.49-2.68-.74-4.02,1.62-.14,3.21-.43,4.78-.86.89,2.51.51,4.92-.89,7.3.97-.07,1.2-.86,1.9-1.01.51,1.13.38,2.48,1.1,3.57.45-.62-.37-1.21.04-1.81.81.19.3,1.16.87,1.45.58-.44-.42-1.03.18-1.42.48.05.32.68.78.74.02-.49.05-.96.07-1.43.47-.02.43.58.87.52.21-.61.02-1.2-.06-1.8-.23-1.54-.82-2.99-.92-4.59-.19-3.01-.23-6.03-.62-9.03-.33-2.53-.55-5.08-.96-7.61-.11-.68-.92-1.61.11-2.32.34-.02.68-.04,1.03-.05.33-.01.67-.02,1-.03.54.01,1.08.03,1.62.03,12.4,0,24.8,0,37.19,0Z" style="fill: #294d7a;"/>
  <path d="m94.62,246.91c-.12.05-.24.09-.36.14-.14-.15-.25-.4-.41-.44-3.33-.72-3.49-3.15-3.16-5.84.03-.24.01-.5.02-.74,2.23-.78,2.28-.79,1.97-3.4-.35-2.98-.53-5.98-.78-8.96-.27-3.22-.62-6.44-.93-9.66,3.33.27,6.68.3,10.02.43,4.13.16,8.25.54,12.38.57-.19.51-.36,1.02-.56,1.52-1.79,4.44-4.05,8.65-6.27,12.87-.46.88-.3,1.24.55,1.69,4.9,2.62,10.03,3.62,15.52,2.5.47,2.13,1.42,4.07,2.37,6.02-.72,1.11-1.44,2.23-2.16,3.34-.39-.21-.81-.14-1.22-.14-8.88,0-17.75,0-26.63,0-.11.03-.22.07-.34.1Z" style="fill: #daeef7;"/>
  <path d="m69.76,246.81c-.03-.2-.06-.4-.09-.6.41-2.05.82-4.09,1.02-6.17,1.14-.09,1.75-.38,1.8-1.85.09-2.85.61-5.68.91-8.52.21-1.96.29-3.93.55-5.88.3-2.23.26-4.5.76-6.71,2.06,0,4.12.02,6.17.03.45,3.23.98,6.45,1.34,9.69.29,2.65.8,5.27.97,7.94.08,1.21.43,2.4.51,3.63.05.8,1,.74,1.46,1.17.35,2.25.7,4.5,1.04,6.75-.03.18-.05.36-.08.53-5.46,0-10.91,0-16.37,0Z" style="fill: #daeef7;"/>
  <path d="m93.44,194.22c-1.57.42-3.16.72-4.78.86-.92-2.45-1.85-4.89-2.77-7.34.38-1.41.76-2.82,1.14-4.22.33.32.66.63.99.95.3.29.6.71,1.03.62.54-.11.32-.68.41-1.06.12-.52.21-1.06.31-1.58,1.65,3.79,3.03,7.67,3.67,11.78Z" style="fill: #ff5c7e;"/>
  <path d="m74.87,214.99c.35-3.65.71-7.31,1.05-10.96.05-.51.23-.77.75-.77.21,0,.42.01.62-.02q1.87-.24,2.11,1.62c.39,3.05.66,6.12,1.22,9.15.06.32.02.66.02.99-1.92,0-3.85,0-5.77-.01Z" style="fill: #feb546;"/>
  <path d="m91,217.09c-.06-.68-.13-1.36-.19-2.04,2.16-.03,4.33-.06,6.49-.08,5.79.02,11.58.04,17.36.06-.1.74-.21,1.48-.8,2.02-7.62.02-15.24.03-22.86.05Z" style="fill: #f4a641;"/>
  <path d="m86.21,246.29c-.35-2.25-.7-4.5-1.04-6.75,1.8.65,3.63.96,5.53.49,0,.25.01.5-.02.74-.32,2.69-.17,5.12,3.16,5.84.16.04.28.29.41.44-1.36,1.14-2.91.66-4.43.52-1.32-.12-2.42-.85-3.62-1.29Z" style="fill: #febfba;"/>
  <path d="m70.69,240.04c-.19,2.08-.61,4.13-1.02,6.17-2.71,1.42-5.47,2.26-8.45.8-.03-.07-.06-.13-.08-.2,1.45-.13,2.57-1.05,3.84-1.6.35-.15.47-.45.44-.81-.12-1.49.27-2.94.26-4.42,1.67.33,3.34.5,5.02.06Z" style="fill: #febfba;"/>
  <path d="m91,217.09c7.62-.02,15.24-.03,22.86-.05.19.75-.22,1.34-.5,1.97-4.13-.04-8.25-.42-12.38-.57-3.34-.13-6.69-.16-10.02-.43.01-.31.03-.61.04-.92Z" style="fill: #c5e0e8;"/>
  <path d="m74.87,214.99c1.92,0,3.85,0,5.77.01-.12.73.45,1.37.24,2.11-2.06,0-4.12-.02-6.17-.03.08-.7-.28-1.42.16-2.09Z" style="fill: #f4a641;"/>
  <path d="m97.31,214.96c-2.16.03-4.33.06-6.49.08-.25-.83-.15-1.67-.13-2.51,2.05,1.23,4.22,2.14,6.64,2.28-.01.05-.02.09-.02.14Z" style="fill: #fff;"/>
  <path d="m81.94,162.54c-.22-.09-.52,0-.66-.27-.53-1.02.03-2.89,1.02-3.48,2.1-1.24,3.44-3.07,4.04-5.42.14-.56.23-.9.94-.62.85.35,1.55-.39,2.36-.48.47,2.51,1.69,4.53,3.77,6.08,1.83,1.36,2.31,5.26.3,6.43-1.17.68-1.63,1.65-1.76,2.89-1-1.17-1.81-2.49-3.06-3.43-.11-.8.69-1.72-.58-2.35-2.09-1.04-2.06-1.11-3.29.82-.02.03-.07.05-.1.07-.95-.56-1.98-.18-2.97-.25Z" style="fill: #ff5602;"/>
  <path d="m84.91,162.79s.08-.04.1-.07c1.23-1.93,1.2-1.86,3.29-.82,1.27.63.47,1.55.58,2.35-.68.96-.58,2.12-.81,3.18-.81,3.73-.99,7.46.13,11.17.52,1.28,1.05,2.56,1.57,3.84-.1.53-.19,1.06-.31,1.58-.09.38.13.95-.41,1.06-.43.09-.73-.33-1.03-.62-.33-.32-.66-.63-.99-.95-1.4-2.12-2.58-4.33-3.15-6.84-.53-2.32-.5-4.64-.34-6.99.17-2.36,1.16-4.55,1.38-6.89Z" style="fill: #e03268;"/>
  <path d="m65.36,189.24c-.7-2.93-.16-5.79.51-8.64.18-.76.41-1.51.62-2.27.52.14,1.04.28,1.55.42,0,0-.01,0-.01,0,.73,2.91,1.46,5.83,2.18,8.74-1.22.98-2.82.91-4.18,1.5-.22.09-.45.17-.67.25Z" style="fill: #feb546;"/>
  <path d="m68.03,178.75s.01,0,.01,0c-.17-1.6-.28-3.18.62-4.63.2-.32.23-.81.75-.87,0,0,.01.01.01.01-.77,1.75-1.45,3.53-1.4,5.49Z" style="fill: #c5e0e8;"/>
  <path d="m69.91,172.5c-.04.33-.18.6-.49.76,0,0-.01-.01-.01-.01-.02-.39.08-.68.52-.73l-.02-.02Z" style="fill: #c5e0e8;"/>
  <path d="m69.93,172.52c.02-.06.04-.13.06-.19.19.16-.02.13-.08.18,0,0,.02.02.02.02Z" style="fill: #c5e0e8;"/>
  <path d="m91.94,167.69c.14-1.24.59-2.21,1.76-2.89,2.01-1.17,1.53-5.07-.3-6.43-2.08-1.54-3.3-3.56-3.77-6.08.36-1.15,1.13-2.23.55-3.53,5.18-.03,10.35.19,15.52.44,3.14.15,6.29.31,9.44.36,1.73.03,3.47.12,5.2.22,4.86.29,9.72.65,14.59.99-.48.97-1.34,1.58-2.16,2.21-1.34,1.02-1.98,2.5-2.31,4.01-.4,1.86.7,3.25,2.21,4.21.86.54,1.26,1.13,1.27,2.2.01,2.73,1.09,4.16,3.43,4.99,1.24.44,2.34-.31,3.52-.34-1.73,1.98-2.77,4.33-3.68,6.75-12.83,0-25.66-.01-38.48-.02-1,0-2-.03-3-.05.01-.48-.26-.86-.46-1.26-.98-2-2.15-3.89-3.32-5.78Z" style="fill: #daeef7;"/>
  <path d="m134.94,150.77c-4.86-.33-9.72-.69-14.59-.99-1.73-.1-3.48-.19-5.2-.22-3.15-.06-6.3-.22-9.44-.36-5.17-.25-10.34-.47-15.52-.44-.09-.16-.18-.33-.28-.49,1.83-.01,3.66-.04,5.49-.04,13.65,0,27.3,0,40.95.01-.25.96-.72,1.81-1.41,2.53Z" style="fill: #c5e0e8;"/>
  <path d="m72.43,148.32c1.39-1.32,2.51-1.41,3.66-.37-1.21.16-2.4-.11-3.66.37Z" style="fill: #ff5602;"/>
  <path d="m75.69,149.69c.05.69-.35.95-.78,1.05-.56.13-.66-.38-.73-.76-.1-.53.21-.89.73-.92.46-.03.75.27.78.62Z" style="fill: #294d7a;"/>
  <path d="m82.45,149.84c-.03.73-.35.96-.82.88-.45-.07-.73-.4-.66-.88.07-.47.39-.73.86-.68.52.05.66.42.61.69Z" style="fill: #294d7a;"/>
  <path d="m83.94,148.24c-1.21-.09-2.35-.94-3.63-.17.95-1.22,2.37-1.1,3.61.19h.02Z" style="fill: #ff5602;"/>
  <path d="m88.79,147.5c.18,0,.3.09.37.26-.14-.02-.29-.04-.43-.06,0-.08.01-.14.07-.2Z" style="fill: #2ca2b0;"/>
  <path d="m83.92,148.26s.05.05.07.07c-.02-.03-.04-.06-.06-.09,0,0-.02.01-.02.01Z" style="fill: #ff5602;"/>
  <path d="m78.44,186.03c.97-.19,1.36.29,1.45,1.2.25,2.5.46,5.01.81,7.5.2,1.43.51,2.84.56,4.29-.54-.12-.76-.79-1.38-.78.28-1.68-.31-3.28-.47-4.92-.25-2.43-.64-4.85-.97-7.28Z" style="fill: #c5e0e8;"/>
  <path d="m134.94,150.77c.68-.72,1.15-1.57,1.41-2.53.02-.62.5-1.12.43-1.76.06-.07.07-.14.03-.22.89-4.17,2.93-7.38,7.25-8.65,1.02-.3,2.1-.36,3.15-.54.97-.15,1.78-.8,2.79-.84.96,0,1.92-.05,2.87.03,3.55.3,6.42,1.66,8.22,4.99.98,1.81,2.2,3.51,3.63,5.03.05.25.19.43.41.54.42.57.88,1.08,1.48,1.47.43.62,1.14.94,1.66,1.45,2.35,2.32,3.85,5.04,1.32,7.98-.85.49-1.26,1.17-1.17,2.21.09,1.02,0,2.05-.02,3.07-2.7-.83-5.44-1.34-8.27-1.14q-2.24-.09-2.97-2.32c-.1-.32-.2-.64-.34-.94-.2-.42-.14-.79.12-1.17.67-.98,1.08-2.06,1.29-3.22.07-.35.09-.69.7-.55,1.19.27,2.02-.38,2.49-1.41.41-.89.49-1.87-.08-2.73-.54-.82-1.33-.87-2.22-.54-.24.09-.58.01-.85-.07-4.22-1.32-8.15-3.17-11.26-6.41-.6-.63-1.03-.61-1.67-.13-2.45,1.85-3.55,4.32-3.55,7.34-1.18.15-1.74.84-1.64,2.02.1,1.21.88,1.89,2.2,2.02.05.12.11.23.14.35,1.09,3.94,3.39,6.51,7.68,6.89.8.07.65.73.73,1.23.08.54-.25.73-.74.77-.37.03-.76,0-1.08.24-2.39.42-4.45,1.52-6.3,3.03-.67.55-1.26,1.18-1.89,1.78-1.18.03-2.28.78-3.52.34-2.34-.83-3.42-2.26-3.43-4.99,0-1.07-.41-1.66-1.27-2.2-1.52-.96-2.62-2.35-2.21-4.21.33-1.5.97-2.99,2.31-4.01.82-.62,1.68-1.23,2.16-2.21Z" style="fill: #ff5602;"/>
  <path d="m113.19,145.25c.43.16.85.32,1.28.47-.44.18-.88.35-1.31.53-.07.02-.15.03-.22.04-.09,0-.18,0-.27,0-.9-.01-1.81-.02-2.71-.03,1.08-.33,2.16-.67,3.24-1Z" style="fill: #56779f;"/>
  <path d="m113.15,146.25c.44-.18.88-.35,1.31-.53.71.17,1.43.34,2.14.51-.08.01-.15.04-.21.08-1.08-.02-2.17-.04-3.25-.06Z" style="fill: #c5e0e8;"/>
  <path d="m116.4,146.31c.06-.04.13-.07.21-.08.27.03.54.05.81.08-.34.29-.68.25-1.02,0Z" style="fill: #2ca2b0;"/>
  <path d="m128.67,146.31c.16,0,.32,0,.49,0-.16.21-.33.21-.49,0Z" style="fill: #2ca2b0;"/>
  <path d="m136.8,146.26c.04.08.03.16-.03.22-.12-.06-.24-.11-.36-.17.13-.02.26-.04.39-.06Z" style="fill: #2ca2b0;"/>
  <path d="m112.66,146.28c.09,0,.18,0,.27,0-.09.13-.18.12-.27,0Z" style="fill: #2ca2b0;"/>
  <path d="m125.66,146.32c.08,0,.17,0,.25,0-.08.12-.17.11-.25,0Z" style="fill: #2ca2b0;"/>
  <path d="m117.93,115.84c-.18.05-.36.11-.55.16.15-.17.34-.2.55-.16Z" style="fill: #ff5c7e;"/>
  <path d="m113.36,219.01c.28-.63.69-1.22.5-1.97.6-.54.71-1.28.8-2.02.05-.09.09-.18.14-.27,1.24-3.9,3.14-7.38,6.27-10.12,3.39-2.97,7.36-4.51,11.81-4.93,1.08,1.87,1.61,3.99,2.76,5.82.01.35.08.73.47.79,1.29.19,2.6.55,3.83-.27.41-.06.82-.09,1.22-.19,3.7-.87,7.39-1.78,11.11-2.59,1.07-.23,1.62-.65,1.42-1.78,4.11.01,8.23.15,12.29-.72,1.06-.23,2.1-.5,3.11-.87,1.66-.62,2.97-1.64,3.56-3.39.43,3.41.83,6.84.16,10.26-.47,2.37-1.81,4.24-3.69,5.73-1.74,1.09-3.71,1.67-5.57,2.49-1.87.12-3.61.85-5.47,1.06-2.05.24-4.07.68-6.15.72-.18,0-.36.16-.54.25-3.26.07-6.52.14-9.79.19-.65.01-1.22-.03-.75.92.54,1.11,1,2.26,1.49,3.39.1.36.18.73.31,1.08,1.65,4.58,2.86,9.28,3.9,14.03.31,1.44.21,1.55-1.26,1.64-1.71.1-3.4-.11-5.1-.2-.36-.07-.72-.16-1.09-.2-2.36-.29-4.61-1.12-6.99-1.29-.55-.05-1.07-.33-1.65-.19-2.7-.07-5.29.56-7.87,1.23-5.49,1.11-10.62.12-15.52-2.5-.85-.45-1.02-.81-.55-1.69,2.22-4.23,4.48-8.44,6.27-12.87.2-.5.38-1.01.56-1.52Zm24.3-2.75c-.08-.08-.17-.17-.25-.25l-.08-.06s.06.04.09.05c.08.08.17.17.25.25.02.03.03.08.05.1.01.02.05,0,.08.01-.05-.04-.09-.07-.14-.11Zm2.42.99c-.74-.29-1.25-.49-1.79-.7-.12.51.52.46.44.89-.57.15-1.16.3-1.9.49,1.19.18,2.13-.02,3.25-.67Z" style="fill: #feb546;"/>
  <path d="m140.2,238.06c1.7.1,3.39.3,5.1.2,1.47-.09,1.58-.2,1.26-1.64-1.03-4.75-2.24-9.45-3.9-14.03-.13-.35-.21-.72-.31-1.08,3.53.35,7.05.82,10.54,1.49,6.55,1.26,12.38,3.94,17.01,8.88,1.79,1.91,3.39,3.97,4.31,6.47-1.11,3.82-3.96,5.92-7.41,7.36-1.74.73-3.57,1.08-5.47,1.07-8.4-.02-16.8-.03-25.2-.04.84-.6,1.82-.9,2.74-1.33,1.91-.9,1.92-.89,1.2-2.86.04-1.5.08-3.01.12-4.51Z" style="fill: #daeef7;"/>
  <path d="m174.21,238.35c-.92-2.5-2.52-4.56-4.31-6.47-4.63-4.93-10.45-7.62-17.01-8.88-3.49-.67-7-1.14-10.54-1.49-.49-1.13-.95-2.28-1.49-3.39-.46-.95.1-.91.75-.92,3.26-.05,6.53-.13,9.79-.19,3.66.17,7.32-.15,10.98.19,3.65.34,6.86,1.65,9.43,4.3,1.9,1.96,2.96,4.28,2.9,7.07-.05,2.37,0,4.74-.01,7.12,0,.91-.01,1.83-.5,2.66Z" style="fill: #c5e0e8;"/>
  <path d="m130.47,236.37c.57-.13,1.1.14,1.65.19.61,2.29,1.59,4.43,2.63,6.55-.83,1.27-1.66,2.55-2.49,3.82-1.61-.34-3.25.07-4.87-.22,0,0-.02-.07-.02-.07.59-.28,1.17-.59,1.78-.85q1.89-.82,1.24-2.76c.03-2.22.06-4.44.09-6.66Z" style="fill: #daeef7;"/>
  <path d="m132.26,246.93c.83-1.27,1.66-2.55,2.49-3.82,1.79-.08,3.53-.61,5.33-.54.72,1.97.71,1.96-1.2,2.86-.92.43-1.9.73-2.74,1.33,0,0,.03-.02.03-.02-.09.02-.18.05-.27.07-.86.37-1.72.74-2.58,1.1-.32.13-.66.4-1.02.06-.34-.33-.14-.68-.04-1.03Z" style="fill: #08095b;"/>
  <path d="m130.39,243.03q.65,1.95-1.24,2.76c-.6.26-1.18.57-1.78.85-.07.04-.14.08-.21.12,0,0,0,0,0,0-.1.05-.2.09-.29.14-1.2.42-2.36.93-3.48,1.56-.32.05-.64.08-.93-.1-.25-.55.14-.95.33-1.4.72-1.11,1.44-2.23,2.17-3.34,1.8-.19,3.61-.39,5.41-.58Z" style="fill: #08095b;"/>
  <path d="m126.88,246.9c.1-.05.2-.09.29-.14-.1.05-.2.09-.29.14Z" style="fill: #febfba;"/>
  <path d="m135.9,246.8c.09-.02.18-.05.27-.07-.04.2-.15.17-.27.07Z" style="fill: #febfba;"/>
  <path d="m127.17,246.76c.07-.04.14-.08.21-.12,0,0,.01.07.01.07-.07.04-.14.06-.22.05Z" style="fill: #febfba;"/>
  <path d="m94.62,246.91c.11-.03.22-.07.34-.1-.04.07-.09.15-.13.22-.09,0-.16-.04-.2-.12Z" style="fill: #febfba;"/>
  <path d="m198.85,121.02c.19,3.12.38,6.24.61,9.36.24,3.35.56,6.7.71,10.06.02.52.18,1.04.28,1.55-.24.89-1.11,1.91.45,2.47-7.82,0-15.64.03-23.45,0-.94,0-1.91-.2-2.81-.5-3.7-1.25-6.51-3.44-7.49-7.45.2-.31.42-.61.59-.94,2.89-5.36,7.07-9.24,12.85-11.35,2.54-.93,5.17-1.42,7.83-1.86,3.46-.58,6.94-1.02,10.44-1.35Z" style="fill: #daeef7;"/>
  <path d="m198.85,121.02c-3.49.33-6.97.77-10.44,1.35-2.65.44-5.28.93-7.83,1.86-5.78,2.11-9.96,5.99-12.85,11.35-.17.32-.39.62-.59.94-.09-.36-.25-.72-.25-1.08-.02-2.87-.05-5.74,0-8.61.03-1.3.5-2.52,1.19-3.63,2.29-3.66,5.69-5.4,9.91-5.45,6.86-.08,13.72-.03,20.58-.04.16,1.1-.1,2.23.25,3.31Z" style="fill: #c5e0e8;"/>
  <path d="m198.6,117.71c-6.86,0-13.72-.04-20.58.04-4.23.05-7.62,1.8-9.91,5.45-.69,1.11-1.17,2.33-1.19,3.63-.06,2.87-.03,5.74,0,8.61,0,.36.16.72.25,1.08.97,4.01,3.78,6.2,7.49,7.45.89.3,1.87.5,2.81.5,7.82.03,15.64,0,23.45,0,1.39.44,2.68,1.09,3.96,1.77-5.78.02-11.57.04-17.35.05-4.53,0-9.07-.03-13.6-.05-.19-.08-.36-.18-.56-.23-4.63-1.25-8.01-3.86-9.11-8.71-.68-2.98-.29-6.05-.31-9.08-.04-5.92,2.81-9.83,8.39-11.72.39-.13.96-.06,1.08-.67.15-.04.29-.08.44-.13,5.22,1.09,10.51,1.52,15.84,1.62.32.28.71.18,1.07.18,2.61,0,5.23,0,7.84-.02.04.07.04.15,0,.23Z" style="fill: #ff5c7e;"/>
  <path d="m204.86,146.24c-1.28-.69-2.58-1.33-3.96-1.77-1.57-.56-.69-1.58-.45-2.47,1.81.04,3.6.39,5.41.25.23.89.84,1.56,1.35,2.29.31.65.65,1.29,1.2,1.78.01.24.02.49.03.73-.26.48-.61.43-1.05.23-.83-.37-1.69-.7-2.53-1.04Z" style="fill: #56779f;"/>
  <path d="m173.84,115.7c-.15.04-.29.08-.44.13-1.91-.03-3.81-.06-5.72-.08.67-.76,1.34-1.52,2.01-2.28,1.25.99,2.66,1.7,4.15,2.24Z" style="fill: #fff;"/>
  <path d="m198.59,117.49c-2.61,0-5.23.02-7.84.02-.36,0-.75.1-1.07-.18,2.8-.02,5.6-.03,8.4-.05.2,0,.42-.03.51.22Z" style="fill: #e03268;"/>
  <path d="m167.68,115.74c1.91.03,3.81.06,5.72.08-.12.61-.69.53-1.08.67-5.59,1.89-8.43,5.8-8.39,11.72.02,3.03-.37,6.1.31,9.08,1.1,4.85,4.49,7.47,9.11,8.71.19.05.37.15.56.23-.25.03-.5.05-.75.08-1.17,0-2.33,0-3.5,0-1.5,0-3,0-4.49,0l-.46-.04c-1.43-1.52-2.65-3.22-3.63-5.03-1.8-3.33-4.66-4.69-8.22-4.99-.95-.08-1.91-.02-2.87-.03-.02-3.11-.12-6.23-.04-9.34.04-1.75.61-3.41,1.55-4.93,1.95-3.14,4.85-4.92,8.36-5.8.65-.11,1.3-.21,1.95-.32.37-.03.75-.07,1.12-.1.66,0,1.33,0,1.99,0,.92,0,1.83,0,2.75,0Z" style="fill: #e03268;"/>
  <path d="m159.87,116.16c-3.52.88-6.41,2.66-8.36,5.8-.94,1.52-1.51,3.18-1.55,4.93-.08,3.11.02,6.23.04,9.34-1,.04-1.82.69-2.79.84-.5-3.73-.48-7.48-.09-11.19.57-5.41,5.86-9.35,10.78-9.88.26.02.53.07.74-.14.34,0,.69,0,1.03-.01.07.11.13.21.2.32Z" style="fill: #feb546;"/>
  <path d="m164.93,115.75c-.66,0-1.33,0-1.99,0,0-.47-.42-.88-.24-1.47.83.43,1.58.86,2.23,1.47Z" style="fill: #daeef7;"/>
  <path d="m159.87,116.16c-.07-.11-.13-.21-.2-.32.72,0,1.43,0,2.15,0-.65.11-1.3.21-1.95.32Z" style="fill: #f4a641;"/>
  <path d="m158.64,115.86c-.22.21-.48.16-.74.14,0-.05.02-.1.05-.15.23,0,.46,0,.69,0Z" style="fill: #f4a641;"/>
  <path d="m165.17,146.32c1.5,0,3,0,4.49,0,.46.36,1,.12,1.5.2,1.58.58,3.23.98,4.71,1.84,3.77,2.2,6.18,5.18,6.05,9.8-.07,2.58.05,5.16-.03,7.74-.09,2.85-1.26,5.19-3.59,6.9-.53-.92-1.06-1.83-1.59-2.75.9-1.02,1.62-2.13,1.71-3.54.07-.1.18-.2.19-.31.19-3.15.23-6.31-.03-9.46-.06-.72-.36-1.47-.72-2.1-2.48-4.34-6.43-6.13-11.25-6.36-.59-.39-1.06-.9-1.48-1.47.01-.17.03-.33.04-.5Z" style="fill: #07bfad;"/>
  <path d="m171.16,146.51c-.5-.08-1.04.16-1.5-.2,1.17,0,2.33,0,3.5,0-.63.39-1.34.1-2,.2Z" style="fill: #2ca2b0;"/>
  <path d="m141.79,149.73c0-3.02,1.11-5.49,3.55-7.34.64-.49,1.07-.5,1.67.13,3.11,3.24,7.04,5.1,11.26,6.41.27.08.61.16.85.07.88-.33,1.68-.27,2.22.54.57.86.49,1.84.08,2.73-.47,1.02-1.31,1.68-2.49,1.41-.61-.14-.64.2-.7.55-.22,1.16-.62,2.24-1.29,3.22-.26.38-.32.74-.12,1.17.14.3.24.62.34.94q.73,2.22,2.97,2.32c-2.71,4.27-7.89,5.02-11.03,1.37.32-.24.71-.21,1.08-.24.49-.04.82-.23.74-.77-.07-.5.07-1.16-.73-1.23-4.29-.37-6.59-2.95-7.68-6.89-.03-.12-.09-.23-.14-.35-.19-1.34-.38-2.69-.57-4.03Zm12.38-1.23c-.08.15-.03.19.12.15l-.14-.13c-1.07-1.25-2.3-1.37-3.41-.17,1.28-.52,2.33.1,3.43.15Zm-7.16.04c-1.82-.92-3.14-.5-3.65.98,1.01-.78,2.09-1.1,3.65-.98Zm-1.45,1.24c-.42.08-.69.31-.68.75.01.49.29.76.79.74.45-.02.69-.33.69-.73,0-.48-.33-.72-.8-.77Zm7.11.28c.04-.49-.2-.74-.64-.74-.43,0-.7.25-.71.69-.02.49.24.77.75.76.49,0,.62-.32.6-.71Z" style="fill: #febfba;"/>
  <path d="m153.7,197.29c-1.44.69-2.86.49-4.32-.03-2.61-.93-5.15-2.07-7.89-2.6-.53-.1-1.07-.13-1.6-.19,0-3.23.01-6.46.02-9.68.02-.08.04-.16.06-.25.15-.02.29-.05.44-.07,3.58-.83,7.17-1.66,10.75-2.49q2.51-.56,2.51,2.01c0,4.43.01,8.86.02,13.29Z" style="fill: #ff5c7e;"/>
  <path d="m95.73,174.73c1,.02,2,.05,3,.05,12.83,0,25.66.01,38.48.02-.16.65-.33,1.29-.49,1.94-12.4,0-24.8,0-37.19,0-.54,0-1.08-.02-1.62-.03-.34-.26-.68-.27-1,.03-.34.02-.68.04-1.03.05-.79-.12-.61-.78-.71-1.28,0-.39.22-.63.56-.76Z" style="fill: #07bfad;"/>
  <path d="m178.41,166.51c-.09,1.41-.8,2.52-1.71,3.54-1.35-1.82-2.68-3.65-4.52-5.04-1.16-.87-2.45-1.5-3.79-2.02.01-1.02.11-2.06.02-3.07-.09-1.04.32-1.72,1.17-2.21,2.59,1.29,4.39,3.47,6.32,5.52.95,1.01,1.34,2.44,2.51,3.27Z" style="fill: #daeef7;"/>
  <path d="m139.97,184.53c-.02.08-.04.16-.06.25-1.42.35-2.83.52-4.21-.12l-2.07-5.19c.02-.39-.04-.81.07-1.17.13-.41.35-.34.45.07.65,1.6,1.37,3.17,1.92,4.8.29.87.71,1.23,1.59,1.1.87-.1,1.54-.54,2.05-1.23,1.65-.53,3.28-1.1,4.76-2.03.06,0,.12-.02.17-.03,1.01.12,1.78-.73,2.77-.7-.4.36-.86.6-1.36.82-2.09.91-4.15,1.88-6.21,2.84-.2.09-.54.14-.43.46.03.1.37.1.57.14Z" style="fill: #daeef7;"/>
  <path d="m151.16,181.98c-3.58.83-7.17,1.66-10.75,2.49.35-.74,1.14-.73,1.76-.98,2.58-1.02,5.18-2,7.77-2.99q1.22-.36,1.23,1.48Z" style="fill: #daeef7;"/>
  <path d="m149.94,180.5c-2.59.99-5.19,1.97-7.77,2.99-.62.24-1.4.24-1.76.98-.15.02-.29.04-.44.07-.2-.04-.53-.04-.57-.14-.11-.32.23-.37.43-.46,2.07-.96,4.13-1.93,6.21-2.84.5-.22.96-.46,1.36-.82.05-.05.12-.06.19-.05.23.02.44,0,.56-.22.22-.08.46-.14.67-.26.89-.5,1.16-.12,1.11.75Z" style="fill: #fff;"/>
  <path d="m144.47,181c-1.48.93-3.11,1.5-4.76,2.03-.26-1.02.26-1.98.24-2.98,1.46.31,2.92.7,4.42.74.05.06.08.13.1.2Z" style="fill: #febfba;"/>
  <path d="m144.47,181c-.02-.07-.05-.14-.1-.2-1.32-3.46-.74-6.73,1.04-9.88-.32,1.18-.65,2.36-.97,3.55-.6,2.19-.3,4.35.21,6.51-.06,0-.12.02-.17.03Z" style="fill: #10116b;"/>
  <path d="m148.16,180.01c-.13.23-.34.25-.56.22.14-.19.34-.23.56-.22Z" style="fill: #daeef7;"/>
  <path d="m208.42,146.31c-.55-.49-.89-1.13-1.2-1.78,1.07-.02,2.14-.05,3.2-.07,1.38.44,2.68,1.08,3.94,1.78-1.98.02-3.96.05-5.94.07Z" style="fill: #ff5c7e;"/>
  <path d="m236.68,146.34c-.08.07-.16.15-.23.22-.54-.02-1.1.02-1.61-.23.61-.1,1.23-.13,1.84,0Z" style="fill: #febfba;"/>
  <path d="m135.7,184.66c1.39.64,2.8.47,4.21.12,0,3.23-.01,6.46-.02,9.68,0,.1,0,.21.01.31,0,.24,0,.48,0,.72,0,.09,0,.18,0,.27,0,.34,0,.68,0,1.02-.26,0-.51-.02-.77-.02-.04.01-.11.03-.11.04,0,.07.01.14.02.2.28.18.55.37.83.55.01,2.83.03,5.66.04,8.49-1.22.82-2.54.46-3.83.27-.39-.06-.45-.44-.47-.79.02-6.95.03-13.91.05-20.86Z" style="fill: #e03268;"/>
  <path d="m139.94,206.05c-.01-2.83-.03-5.66-.04-8.49,1.05.12,2.09.24,3.3.38-.72.91-1.64.67-2.38.94.09.56.52.37.77.35,1.52-.08,2.98.2,4.37.77,2.22.91,4.54,1.25,6.91,1.28.29,0,.59-.01.82.21.2,1.13-.35,1.55-1.42,1.78-3.71.81-7.41,1.73-11.11,2.59-.4.09-.82.13-1.22.19Z" style="fill: #ff5c7e;"/>
  <path d="m139.91,196.78c0-.34,0-.68,0-1.02.25,0,.5,0,.76,0h-.01c.68.25,1.36.51,2.04.78.19.08.4.2.35.44-.05.25-.3.25-.5.25-.91.03-1.78-.15-2.63-.45Z" style="fill: #ff5c7e;"/>
  <path d="m139.91,195.49c0-.24,0-.48,0-.72,1.1.2,2.2.36,3.46,1.16-1.13-.05-1.91-.33-2.71-.18h.01c-.17-.33-.5-.19-.76-.26Z" style="fill: #ff5c7e;"/>
  <path d="m139.06,197c0-.07-.03-.14-.02-.2,0-.02.07-.03.11-.04-.03.08-.06.16-.08.25Z" style="fill: #ff5c7e;"/>
  <path d="m261.26,118.95c-1.29-.61-2.58-.6-3.95-.19,1.13-1.37,2.7-1.3,3.95.19Z" style="fill: #294d7a;"/>
  <path d="m264.71,119.57c1.84-.9,2.88-.66,3.88.85-1.11-.71-2.31-1.01-3.88-.85Z" style="fill: #10116b;"/>
  <path d="m265.89,120.75c.57.04.8.28.78.8-.02.48-.16.82-.7.77-.48-.05-.84-.25-.84-.84,0-.6.5-.54.76-.72Z" style="fill: #294d7a;"/>
  <path d="m259.9,120.53c.05.54-.16.84-.69.78-.47-.06-.86-.25-.82-.85.03-.56.47-.62.85-.67.54-.06.71.29.66.74Z" style="fill: #294d7a;"/>
  <path d="m95.17,175.49c.1.5-.08,1.16.71,1.28-1.03.7-.22,1.64-.11,2.32.41,2.53.63,5.08.96,7.61.39,3.01.43,6.03.62,9.03.1,1.61.69,3.05.92,4.59.09.6.28,1.19.06,1.8-.44.06-.41-.54-.87-.52-.02.47-.05.94-.07,1.43-.46-.06-.29-.69-.78-.74-.6.39.4.99-.18,1.42-.57-.29-.06-1.26-.87-1.45-.41.6.42,1.18-.04,1.81-.72-1.09-.59-2.44-1.1-3.57-.7.15-.93.93-1.9,1.01,1.4-2.38,1.79-4.79.89-7.3-.65-4.11-2.02-7.98-3.67-11.78-.52-1.28-1.05-2.56-1.57-3.84,2.2-.28,4.02-1.4,5.82-2.59.35-.23.6-.74,1.16-.52Z" style="fill: #febfba;"/>
  <path d="m135.7,184.66c-.02,6.95-.03,13.91-.05,20.86-1.15-1.83-1.68-3.95-2.76-5.82.02-6.15.05-12.31.04-18.46,0-.88-.51-1.73-.11-2.71.5.14.3.88.81.94.69,1.73,1.38,3.46,2.07,5.19Z" style="fill: #ff5c7e;"/>
  <path d="m137.65,184.26c-.88.14-1.3-.23-1.59-1.1-.55-1.63-1.27-3.2-1.92-4.8.26-.14.44-.53.75.04,1.03,1.9,1.87,3.88,2.75,5.85Z" style="fill: #fff;"/>
  <path d="m114.81,214.75c-.05.09-.09.18-.14.27-5.79-.02-11.57-.04-17.36-.06,0-.05.01-.1.02-.14,5.12-.02,10.24-.04,15.36-.06.71,0,1.42,0,2.12,0Z" style="fill: #56779f;"/>
  <path d="m96.91,176.72c.32-.31.66-.29,1-.03-.33.01-.67.02-1,.03Z" style="fill: #2ca2b0;"/>
  <path d="m130.39,243.03c-1.8.19-3.61.39-5.41.58-.95-1.94-1.9-3.88-2.37-6.02,2.58-.67,5.17-1.3,7.87-1.23-.03,2.22-.06,4.44-.08,6.66Z" style="fill: #febfba;"/>
  <path d="m95.17,175.49c-.56-.22-.81.29-1.16.52-1.8,1.19-3.62,2.31-5.82,2.59-1.11-3.71-.93-7.44-.13-11.17.23-1.07.14-2.23.81-3.18,1.25.94,2.07,2.27,3.06,3.43,1.18,1.89,2.34,3.78,3.33,5.78.2.4.47.78.46,1.26-.35.14-.56.37-.56.76Z" style="fill: #03ccc0;"/>
  <path d="m178.41,166.51c-1.17-.84-1.56-2.26-2.51-3.27-1.92-2.05-3.73-4.23-6.32-5.52,2.53-2.93,1.04-5.66-1.32-7.98-.52-.52-1.23-.83-1.66-1.45,4.82.23,8.77,2.01,11.25,6.36.36.64.67,1.38.72,2.1.25,3.15.21,6.3.03,9.46,0,.11-.12.21-.19.31Z" style="fill: #c5e0e8;"/>
  <path d="m141.79,149.73c.19,1.34.38,2.69.57,4.03-1.32-.12-2.1-.81-2.2-2.02-.1-1.17.45-1.86,1.64-2.02Z" style="fill: #ff5c7e;"/>
  <path d="m165.17,146.32c-.01.17-.03.33-.04.5-.23-.11-.37-.29-.41-.54.15.01.31.03.46.04Z" style="fill: #2ca2b0;"/>
  <path d="m140.08,242.57c-1.8-.07-3.54.47-5.33.54-1.03-2.12-2.01-4.26-2.63-6.55,2.38.18,4.63,1.01,6.99,1.3.37.04.73.13,1.09.2-.04,1.5-.08,3.01-.12,4.51Z" style="fill: #febfba;"/>
  <path d="m140.08,217.25c-1.12.66-2.07.85-3.25.67.74-.19,1.33-.34,1.9-.49.08-.43-.56-.38-.44-.89.54.21,1.05.41,1.79.7Z" style="fill: #febfba;"/>
  <path d="m137.42,216s-.06-.04-.09-.05c.03.02.05.04.08.06,0,0,0,0,0,0Z" style="fill: #febfba;"/>
  <path d="m137.66,216.26s.09.07.14.11c-.03,0-.07,0-.08-.01-.02-.03-.03-.07-.05-.1h0Z" style="fill: #febfba;"/>
  <path d="m137.67,216.25c-.08-.08-.17-.17-.25-.25,0,0,0,0,0,0,.08.08.17.17.25.25,0,0,0,0,0,0Z" style="fill: #febfba;"/>
  <path d="m147.01,148.54c-1.56-.12-2.65.19-3.65.98.51-1.48,1.83-1.9,3.65-.98Z" style="fill: #ff5602;"/>
  <path d="m154.18,148.5c-1.1-.05-2.15-.68-3.43-.15,1.11-1.2,2.34-1.08,3.41.17l.02-.02Z" style="fill: #ff5602;"/>
  <path d="m145.57,149.79c.47.04.8.28.8.77,0,.4-.24.71-.69.73-.5.02-.78-.25-.79-.74,0-.44.26-.67.68-.75Z" style="fill: #294d7a;"/>
  <path d="m152.67,150.06c.02.39-.1.7-.6.71-.51,0-.77-.27-.75-.76.01-.44.28-.69.71-.69.44,0,.68.24.64.74Z" style="fill: #294d7a;"/>
  <path d="m154.15,148.52l.14.13c-.16.05-.2,0-.12-.15,0,0-.02.02-.02.02Z" style="fill: #ff5602;"/>
  <path d="m139.91,195.49c.26.07.6-.07.76.27-.25,0-.5,0-.76,0,0-.09,0-.18,0-.27Z" style="fill: #febfba;"/>
</svg>