<?xml version="1.0" encoding="UTF-8"?>
<svg id="Layer_1" data-name="Layer 1" xmlns="http://www.w3.org/2000/svg" viewBox="0 0 375 38">
  <path d="m.25,38c-.08-.33-.24-.67-.24-1C0,24.67,0,12.33,0,0h375v32.5c-3.96-1.73-7.93-3.44-11.89-5.18-15.47-6.81-31.23-12.6-48.27-13.98-5.83-.47-11.65-.37-17.44.48-7.35,1.08-14.46,3.12-21.47,5.53-9.63,3.3-19.2,6.78-28.88,9.95-7.53,2.47-15.29,4-23.26,4.14-9.08.15-17.93-1.43-26.51-4.21-10.79-3.5-21.48-7.31-32.16-11.12-14.37-5.12-29.11-8.22-44.39-8.6-11.23-.28-22.38.7-33.45,2.53-13.47,2.23-26.74,5.41-39.71,9.62-14.98,4.86-29.82,10.14-44.72,15.25-.89.3-1.74.73-2.6,1.1Z"/>
</svg>